<svg xmlns="http://www.w3.org/2000/svg" viewBox="0 0 500 500"><g id="freepik--background-simple--inject-233"><path d="M362.85,77.67a119.69,119.69,0,0,1-45.28-26.19c-17.89-16.34-51-36.68-100.42-28.91C138.08,35,107.87,79.44,91.87,146.07s-107.5,146.6-70.19,216.79,108.4,112,222.13,96,129.72-58.64,148.38-122.61,87.07-96,90.62-164.37C485.37,122.64,407,91.36,362.85,77.67Z" style="fill:#B0BEC5"></path><path d="M362.85,77.67a119.69,119.69,0,0,1-45.28-26.19c-17.89-16.34-51-36.68-100.42-28.91C138.08,35,107.87,79.44,91.87,146.07s-107.5,146.6-70.19,216.79,108.4,112,222.13,96,129.72-58.64,148.38-122.61,87.07-96,90.62-164.37C485.37,122.64,407,91.36,362.85,77.67Z" style="fill:#fff;opacity:0.7000000000000001"></path></g><g id="freepik--Plant--inject-233"><path d="M451,421.44a.49.49,0,0,1-.49-.44L436.28,285a.5.5,0,0,1,.44-.55.5.5,0,0,1,.55.45l14.19,136a.5.5,0,0,1-.44.55Z" style="fill:#b2b2b2"></path><path d="M448.17,394.86a.46.46,0,0,1-.36-.16l-5.93-6.23a.49.49,0,0,1,0-.7.5.5,0,0,1,.71,0l5.92,6.23a.5.5,0,0,1,0,.71A.49.49,0,0,1,448.17,394.86Z" style="fill:#b2b2b2"></path><path d="M444.2,390.16a7.29,7.29,0,0,0-2.56-5.45c-1.65-1.48-10.34-5.13-11.17-2.07C429.58,386,438.47,392.5,444.2,390.16Z" style="fill:#fff"></path><path d="M441.55,391.15a14.61,14.61,0,0,1-9-3.72c-2-1.75-2.91-3.55-2.54-4.92a2,2,0,0,1,1.45-1.4c2.84-.84,9.07,1.92,10.53,3.22a7.77,7.77,0,0,1,2.73,5.87l0,.31-.29.12A7.5,7.5,0,0,1,441.55,391.15Zm-8.86-9.2a3.45,3.45,0,0,0-1,.12c-.57.17-.72.48-.77.7-.26,1,.59,2.46,2.23,3.91,2.77,2.45,7.21,4.26,10.51,3.14a6.93,6.93,0,0,0-2.39-4.74C440.16,384.05,435.4,382,432.69,382Z" style="fill:#b2b2b2"></path><path d="M444.2,390.67a.56.56,0,0,1-.27-.08l-8.27-5.16a.5.5,0,0,1-.16-.68.51.51,0,0,1,.69-.17l8.27,5.16a.5.5,0,0,1-.26.93Z" style="fill:#b2b2b2"></path><path d="M449.64,408.9a.54.54,0,0,1-.32-.11L443.54,404a.52.52,0,0,1-.07-.71.51.51,0,0,1,.71-.06L450,408a.5.5,0,0,1,.07.7A.51.51,0,0,1,449.64,408.9Z" style="fill:#b2b2b2"></path><path d="M445.81,405.63a7.26,7.26,0,0,0-2.56-5.46c-1.65-1.47-10.34-5.13-11.16-2.07C431.19,401.43,440.08,408,445.81,405.63Z" style="fill:#fff"></path><path d="M443.17,406.61a14.66,14.66,0,0,1-9-3.72c-2-1.75-2.91-3.54-2.54-4.92a2,2,0,0,1,1.46-1.4c2.83-.84,9.06,1.92,10.53,3.23a7.72,7.72,0,0,1,2.72,5.86l0,.31-.29.12A7.45,7.45,0,0,1,443.17,406.61Zm-8.87-9.2a3.5,3.5,0,0,0-1,.12,1,1,0,0,0-.77.7c-.26,1,.6,2.47,2.23,3.91,2.78,2.45,7.22,4.27,10.51,3.14a6.93,6.93,0,0,0-2.39-4.74C441.77,399.52,437,397.41,434.3,397.41Z" style="fill:#b2b2b2"></path><path d="M445.81,406.13a.5.5,0,0,1-.26-.08l-8.27-5.15a.49.49,0,0,1-.16-.69.48.48,0,0,1,.68-.16l8.28,5.15a.51.51,0,0,1,.16.69A.52.52,0,0,1,445.81,406.13Z" style="fill:#b2b2b2"></path><path d="M444.15,356.15a.5.5,0,0,1-.34-.13L438,350.77a.5.5,0,0,1,.67-.75l5.84,5.26a.5.5,0,0,1,0,.71A.49.49,0,0,1,444.15,356.15Z" style="fill:#b2b2b2"></path><path d="M440.26,352.43A7.25,7.25,0,0,0,437.7,347c-1.65-1.48-10.34-5.14-11.16-2.07C425.64,348.23,434.53,354.77,440.26,352.43Z" style="fill:#fff"></path><path d="M437.61,353.42a14.67,14.67,0,0,1-9-3.73c-2-1.75-2.91-3.54-2.54-4.91a2,2,0,0,1,1.46-1.4c2.83-.85,9.06,1.92,10.52,3.22a7.72,7.72,0,0,1,2.73,5.86l0,.32-.29.11A7.47,7.47,0,0,1,437.61,353.42Zm-8.86-9.2a3.15,3.15,0,0,0-1,.12,1,1,0,0,0-.77.7c-.26,1,.59,2.46,2.23,3.9,2.78,2.45,7.22,4.27,10.51,3.15a6.9,6.9,0,0,0-2.39-4.74C436.22,346.32,431.46,344.22,428.75,344.22Z" style="fill:#b2b2b2"></path><path d="M440.26,352.93a.48.48,0,0,1-.26-.07l-8.28-5.16a.5.5,0,1,1,.53-.85l8.28,5.16a.5.5,0,0,1-.27.92Z" style="fill:#b2b2b2"></path><path d="M445.78,372.59a.51.51,0,0,1-.37-.15l-5.85-6.24a.5.5,0,0,1,.72-.68l5.86,6.23a.49.49,0,0,1-.36.84Z" style="fill:#b2b2b2"></path><path d="M441.87,367.9a7.26,7.26,0,0,0-2.56-5.46c-1.65-1.48-10.34-5.13-11.16-2.07C427.25,363.7,436.15,370.23,441.87,367.9Z" style="fill:#fff"></path><path d="M439.23,368.88a14.62,14.62,0,0,1-9-3.73c-2-1.74-2.9-3.54-2.53-4.91a2,2,0,0,1,1.45-1.4c2.83-.84,9.06,1.92,10.53,3.23a7.7,7.7,0,0,1,2.72,5.85l0,.32-.29.12A7.45,7.45,0,0,1,439.23,368.88Zm-8.87-9.2a3.38,3.38,0,0,0-.95.12,1,1,0,0,0-.78.7c-.26,1,.6,2.46,2.23,3.91,2.78,2.45,7.22,4.26,10.51,3.14a6.89,6.89,0,0,0-2.39-4.74C437.83,361.78,433.07,359.68,430.36,359.68Z" style="fill:#b2b2b2"></path><path d="M441.88,368.39a.5.5,0,0,1-.27-.07l-8.27-5.16a.49.49,0,0,1-.16-.69.51.51,0,0,1,.69-.16l8.27,5.16a.5.5,0,0,1-.26.92Z" style="fill:#b2b2b2"></path><path d="M441.54,331.75a.5.5,0,0,1-.35-.15l-5.86-6a.5.5,0,1,1,.71-.7l5.86,6a.5.5,0,0,1,0,.71A.54.54,0,0,1,441.54,331.75Z" style="fill:#b2b2b2"></path><path d="M437.64,327.31a7.29,7.29,0,0,0-2.56-5.45c-1.65-1.48-10.34-5.13-11.17-2.07C423,323.12,431.91,329.65,437.64,327.31Z" style="fill:#fff"></path><path d="M435,328.3a14.68,14.68,0,0,1-9-3.73c-2-1.75-2.9-3.54-2.53-4.91a2,2,0,0,1,1.45-1.4c2.84-.84,9.07,1.92,10.53,3.22a7.76,7.76,0,0,1,2.73,5.86l0,.32-.29.12A7.46,7.46,0,0,1,435,328.3Zm-8.86-9.2a3.45,3.45,0,0,0-1,.12,1,1,0,0,0-.77.7c-.26,1,.59,2.46,2.22,3.9,2.78,2.45,7.22,4.27,10.52,3.15a6.92,6.92,0,0,0-2.39-4.74C433.6,321.2,428.84,319.1,426.13,319.1Z" style="fill:#b2b2b2"></path><path d="M437.64,327.81a.48.48,0,0,1-.26-.07l-8.28-5.16a.5.5,0,1,1,.53-.85l8.27,5.16a.49.49,0,0,1,.16.69A.48.48,0,0,1,437.64,327.81Z" style="fill:#b2b2b2"></path><path d="M438.72,304.89a.57.57,0,0,1-.3-.1l-5.67-4.34a.5.5,0,0,1-.09-.7.49.49,0,0,1,.7-.1L439,304a.5.5,0,0,1,.09.7A.51.51,0,0,1,438.72,304.89Z" style="fill:#b2b2b2"></path><path d="M435,302.08a7.29,7.29,0,0,0-2.56-5.45c-1.65-1.48-10.34-5.13-11.17-2.07C420.38,297.89,429.28,304.42,435,302.08Z" style="fill:#fff"></path><path d="M432.36,303.07a14.62,14.62,0,0,1-9-3.73c-2-1.74-2.9-3.54-2.53-4.91a2,2,0,0,1,1.45-1.4c2.83-.84,9.07,1.92,10.53,3.22a7.81,7.81,0,0,1,2.73,5.87l0,.31-.29.12A7.54,7.54,0,0,1,432.36,303.07Zm-8.87-9.2a3.38,3.38,0,0,0-.95.12,1,1,0,0,0-.78.7c-.26,1,.6,2.46,2.23,3.9,2.78,2.46,7.22,4.27,10.51,3.15a6.89,6.89,0,0,0-2.39-4.74C431,296,426.2,293.87,423.49,293.87Z" style="fill:#b2b2b2"></path><path d="M435,302.58a.52.52,0,0,1-.27-.07l-8.27-5.16a.49.49,0,0,1-.16-.68.51.51,0,0,1,.69-.17l8.27,5.16a.5.5,0,0,1-.26.92Z" style="fill:#b2b2b2"></path><path d="M447.6,386.27a.54.54,0,0,1-.27-.07.51.51,0,0,1-.16-.69l4.89-8a.5.5,0,1,1,.85.52L448,386A.49.49,0,0,1,447.6,386.27Z" style="fill:#b2b2b2"></path><path d="M451,380.19a7.24,7.24,0,0,1,1.37-5.86c1.31-1.79,9.06-7.16,10.5-4.33C464.44,373.07,457.08,381.3,451,380.19Z" style="fill:#fff"></path><path d="M452.12,380.79a6.89,6.89,0,0,1-1.21-.1l-.31-.06-.09-.3A7.76,7.76,0,0,1,452,374c1.16-1.58,6.72-5.56,9.64-5.33a2,2,0,0,1,1.71,1.07c.64,1.27.11,3.21-1.47,5.33C459.64,378.08,455.73,380.79,452.12,380.79Zm-.7-1c3.46.41,7.42-2.27,9.63-5.25,1.3-1.75,1.83-3.39,1.38-4.28a1,1,0,0,0-.91-.52c-2.42-.19-7.71,3.51-8.74,4.92A6.93,6.93,0,0,0,451.42,379.75Z" style="fill:#b2b2b2"></path><path d="M451,380.69a.51.51,0,0,1-.37-.15.5.5,0,0,1,0-.71l5.82-5.46a.5.5,0,0,1,.69.73l-5.82,5.46A.5.5,0,0,1,451,380.69Z" style="fill:#b2b2b2"></path><path d="M443.35,345.58a.48.48,0,0,1-.26-.07.5.5,0,0,1-.17-.69l4.89-8a.51.51,0,0,1,.86.53l-4.89,8A.5.5,0,0,1,443.35,345.58Z" style="fill:#b2b2b2"></path><path d="M446.75,339.5a7.29,7.29,0,0,1,1.38-5.87c1.31-1.78,7.37-6.25,8.81-3.42C458.5,333.28,452.84,340.61,446.75,339.5Z" style="fill:#fff"></path><path d="M448,340.12a7,7,0,0,1-1.36-.13l-.31-.05-.08-.31a7.71,7.71,0,0,1,1.45-6.29c1.07-1.45,5.25-4.76,7.86-4.54a2.11,2.11,0,0,1,1.8,1.18c.72,1.4.19,3.58-1.37,5.67S451.44,340.12,448,340.12Zm-.85-1.06c3.41.44,6.44-1.85,8-4,1.31-1.76,1.82-3.58,1.28-4.63a1.11,1.11,0,0,0-1-.63c-2.1-.18-6,2.85-7,4.13A6.89,6.89,0,0,0,447.17,339.06Z" style="fill:#b2b2b2"></path><path d="M446.75,340a.5.5,0,0,1-.35-.86l7.45-7.12a.5.5,0,0,1,.71,0,.49.49,0,0,1,0,.7l-7.45,7.12A.45.45,0,0,1,446.75,340Z" style="fill:#b2b2b2"></path><path d="M441.48,327.7a.48.48,0,0,1-.26-.07.5.5,0,0,1-.16-.69l4.89-8a.5.5,0,0,1,.69-.16.51.51,0,0,1,.16.69l-4.89,8A.49.49,0,0,1,441.48,327.7Z" style="fill:#b2b2b2"></path><path d="M444.88,321.62a7.29,7.29,0,0,1,1.38-5.87c1.31-1.78,9.06-7.15,10.5-4.33C458.32,314.49,451,322.73,444.88,321.62Z" style="fill:#fff"></path><path d="M446,322.22a7,7,0,0,1-1.21-.11l-.31-.05-.08-.31a7.74,7.74,0,0,1,1.46-6.29c1.16-1.58,6.71-5.57,9.63-5.33a1.94,1.94,0,0,1,1.71,1.07c.65,1.26.12,3.21-1.46,5.33C453.52,319.51,449.62,322.22,446,322.22Zm-.7-1c3.45.42,7.42-2.28,9.64-5.25,1.3-1.75,1.83-3.39,1.37-4.28a1,1,0,0,0-.9-.53c-2.44-.19-7.71,3.52-8.75,4.93A6.93,6.93,0,0,0,445.3,321.18Z" style="fill:#b2b2b2"></path><path d="M444.88,322.12a.5.5,0,0,1-.34-.86l7.45-7.12a.5.5,0,0,1,.69.72L445.23,322A.52.52,0,0,1,444.88,322.12Z" style="fill:#b2b2b2"></path><path d="M438.75,301.48a.48.48,0,0,1-.26-.07.5.5,0,0,1-.17-.69l4.89-8a.5.5,0,0,1,.69-.17.49.49,0,0,1,.16.69l-4.89,8A.48.48,0,0,1,438.75,301.48Z" style="fill:#b2b2b2"></path><path d="M442.15,295.4a7.27,7.27,0,0,1,1.38-5.86c1.31-1.79,9.05-7.16,10.49-4.33C455.59,288.28,448.23,296.51,442.15,295.4Z" style="fill:#fff"></path><path d="M443.27,296a7,7,0,0,1-1.21-.1l-.31-.06-.09-.3a7.8,7.8,0,0,1,1.46-6.3c1.16-1.58,6.67-5.58,9.64-5.33a2,2,0,0,1,1.71,1.07c.65,1.27.11,3.21-1.47,5.33C450.79,293.29,446.89,296,443.27,296Zm-.7-1c3.46.42,7.42-2.27,9.63-5.25,1.3-1.75,1.83-3.39,1.38-4.28a1,1,0,0,0-.9-.52c-2.43-.2-7.72,3.51-8.75,4.92A6.85,6.85,0,0,0,442.57,295Z" style="fill:#b2b2b2"></path><path d="M442.15,295.9a.48.48,0,0,1-.36-.15.5.5,0,0,1,0-.71l7.45-7.12a.5.5,0,1,1,.69.73l-7.45,7.12A.48.48,0,0,1,442.15,295.9Z" style="fill:#b2b2b2"></path><path d="M436.66,284.22a7.24,7.24,0,0,1,1.37-5.86c1.31-1.79,9.06-7.16,10.5-4.33C450.1,277.1,442.74,285.33,436.66,284.22Z" style="fill:#fff"></path><path d="M437.78,284.82a6.89,6.89,0,0,1-1.21-.1l-.31-.06-.09-.3a7.76,7.76,0,0,1,1.46-6.3c1.16-1.58,6.67-5.58,9.64-5.33A2,2,0,0,1,449,273.8c.64,1.27.11,3.21-1.47,5.33C445.29,282.11,441.39,284.82,437.78,284.82Zm-.7-1c3.44.42,7.42-2.27,9.63-5.24,1.3-1.75,1.83-3.4,1.38-4.29a1,1,0,0,0-.91-.52c-2.42-.19-7.71,3.51-8.74,4.92A6.85,6.85,0,0,0,437.08,283.78Z" style="fill:#b2b2b2"></path><path d="M436.66,284.72a.51.51,0,0,1-.37-.15.5.5,0,0,1,0-.71l7.45-7.12a.5.5,0,0,1,.71,0,.49.49,0,0,1,0,.7L437,284.58A.47.47,0,0,1,436.66,284.72Z" style="fill:#b2b2b2"></path><path d="M437.09,284.53a7.29,7.29,0,0,1-5.69-2c-1.64-1.49-6.17-9.75-3.21-10.89C431.41,270.42,438.83,278.59,437.09,284.53Z" style="fill:#fff"></path><path d="M436.43,285.07a8,8,0,0,1-5.37-2.16c-1.45-1.32-4.84-7.23-4.29-10.14a2,2,0,0,1,1.24-1.59c1.33-.51,3.21.23,5.15,2,3,2.8,5.53,7.64,4.41,11.47l-.09.3-.31,0A4.29,4.29,0,0,1,436.43,285.07ZM428.91,272a1.33,1.33,0,0,0-.54.1,1,1,0,0,0-.62.84c-.45,2.4,2.69,8,4,9.21a6.92,6.92,0,0,0,5,1.9c.78-3.39-1.48-7.62-4.2-10.14A6.15,6.15,0,0,0,428.91,272Z" style="fill:#b2b2b2"></path><path d="M437.09,285a.53.53,0,0,1-.4-.19l-6.3-8.16a.5.5,0,0,1,.79-.61l6.3,8.15a.51.51,0,0,1-.09.71A.49.49,0,0,1,437.09,285Z" style="fill:#b2b2b2"></path><path d="M458,420.78a.5.5,0,0,1-.5-.5V248.33a.5.5,0,0,1,1,0V420.28A.5.5,0,0,1,458,420.78Z" style="fill:#b2b2b2"></path><path d="M460.09,440.18h0a.5.5,0,0,1-.45-.55l14.11-136a.5.5,0,0,1,.55-.44.49.49,0,0,1,.45.54l-14.11,136A.51.51,0,0,1,460.09,440.18Z" style="fill:#b2b2b2"></path><path d="M463.07,412.4a.48.48,0,0,1-.37-.17l-3.27-3.74a.5.5,0,0,1,.75-.65l3.27,3.73a.49.49,0,0,1-.05.7A.46.46,0,0,1,463.07,412.4Z" style="fill:#b2b2b2"></path><path d="M459.81,408.16a7.27,7.27,0,0,0-1.38-5.86c-1.32-1.79-9.07-7.15-10.5-4.33C446.36,401.05,453.72,409.27,459.81,408.16Z" style="fill:#fff"></path><path d="M458.68,408.76c-3.61,0-7.52-2.7-9.73-5.68-1.58-2.12-2.12-4.06-1.47-5.33a2,2,0,0,1,1.71-1.07c3-.23,8.48,3.74,9.64,5.32a7.71,7.71,0,0,1,1.46,6.3l-.08.3-.31.06A7.09,7.09,0,0,1,458.68,408.76Zm-9.21-11.09h-.2a1,1,0,0,0-.9.53c-.45.89.08,2.53,1.38,4.28,2.21,3,6.19,5.66,9.64,5.24a6.92,6.92,0,0,0-1.37-5.13C457,401.22,452,397.67,449.47,397.67Z" style="fill:#b2b2b2"></path><path d="M459.81,408.67a.52.52,0,0,1-.35-.14l-7-6.75a.5.5,0,0,1,0-.71.5.5,0,0,1,.71,0l7,6.74a.5.5,0,0,1,0,.71A.52.52,0,0,1,459.81,408.67Z" style="fill:#b2b2b2"></path><path d="M467.06,373.58a.47.47,0,0,1-.32-.12l-4.85-4a.49.49,0,0,1-.06-.7.5.5,0,0,1,.7-.07l4.85,4.05a.51.51,0,0,1,.06.71A.53.53,0,0,1,467.06,373.58Z" style="fill:#b2b2b2"></path><path d="M463.72,370.43a7.29,7.29,0,0,0-1.38-5.87c-1.31-1.78-9.06-7.15-10.5-4.32C450.28,363.31,457.64,371.54,463.72,370.43Z" style="fill:#fff"></path><path d="M462.6,371c-3.62,0-7.52-2.71-9.74-5.69-1.58-2.11-2.11-4.06-1.46-5.33a2,2,0,0,1,1.71-1.07c2.92-.22,8.47,3.75,9.63,5.33a7.76,7.76,0,0,1,1.47,6.29l-.09.3-.31.06A7,7,0,0,1,462.6,371Zm-9.22-11.1h-.19a1,1,0,0,0-.9.52c-.46.9.07,2.54,1.38,4.29,2.21,3,6.16,5.66,9.63,5.24a6.89,6.89,0,0,0-1.36-5.13C460.93,363.49,455.89,359.93,453.38,359.93Z" style="fill:#b2b2b2"></path><path d="M463.72,370.93a.49.49,0,0,1-.34-.14l-7-6.75a.5.5,0,1,1,.7-.72l7,6.75a.48.48,0,0,1,0,.7A.45.45,0,0,1,463.72,370.93Z" style="fill:#b2b2b2"></path><path d="M465.52,392a.47.47,0,0,1-.42-.24l-4.9-8a.5.5,0,1,1,.85-.52l4.9,8a.5.5,0,0,1-.17.69A.48.48,0,0,1,465.52,392Z" style="fill:#b2b2b2"></path><path d="M462.12,385.89a7.27,7.27,0,0,0-1.38-5.86c-1.32-1.79-9.07-7.15-10.5-4.33C448.67,378.77,456,387,462.12,385.89Z" style="fill:#fff"></path><path d="M461,386.49c-3.62,0-7.52-2.7-9.74-5.68-1.58-2.12-2.12-4.06-1.47-5.33a2,2,0,0,1,1.71-1.07c2.93-.24,8.48,3.74,9.64,5.32a7.71,7.71,0,0,1,1.46,6.3l-.08.3-.31.06A7.06,7.06,0,0,1,461,386.49Zm-9.22-11.09h-.2a1,1,0,0,0-.9.53c-.45.89.08,2.53,1.38,4.28,2.21,3,6.18,5.66,9.64,5.24a6.92,6.92,0,0,0-1.37-5.13C459.33,379,454.29,375.4,451.78,375.4Z" style="fill:#b2b2b2"></path><path d="M462.12,386.39a.47.47,0,0,1-.35-.14l-7-6.75a.49.49,0,0,1,0-.7.5.5,0,0,1,.71,0l7,6.75a.5.5,0,0,1-.34.86Z" style="fill:#b2b2b2"></path><path d="M469.51,348.8a.52.52,0,0,1-.38-.17l-4.67-5.39a.5.5,0,0,1,.75-.65l4.68,5.38a.51.51,0,0,1-.05.71A.52.52,0,0,1,469.51,348.8Z" style="fill:#b2b2b2"></path><path d="M466.33,345.31a7.29,7.29,0,0,0-1.38-5.87c-1.31-1.78-9.07-7.15-10.5-4.32C452.88,338.19,460.24,346.42,466.33,345.31Z" style="fill:#fff"></path><path d="M465.21,345.91c-3.62,0-7.52-2.71-9.74-5.69-1.58-2.11-2.11-4.06-1.47-5.33a2,2,0,0,1,1.71-1.07c2.93-.22,8.48,3.75,9.64,5.33a7.69,7.69,0,0,1,1.46,6.29l-.08.3-.31.06A7,7,0,0,1,465.21,345.91ZM456,334.81h-.2a1,1,0,0,0-.9.52c-.45.9.08,2.54,1.38,4.29,2.21,3,6.17,5.66,9.64,5.24a6.93,6.93,0,0,0-1.36-5.13C463.54,338.37,458.5,334.81,456,334.81Z" style="fill:#b2b2b2"></path><path d="M466.33,345.81a.54.54,0,0,1-.35-.14l-7-6.75a.5.5,0,0,1,.69-.72l7,6.75a.49.49,0,0,1,0,.7A.48.48,0,0,1,466.33,345.81Z" style="fill:#b2b2b2"></path><path d="M472,325.19a.51.51,0,0,1-.42-.23L467,318a.51.51,0,0,1,.15-.7.5.5,0,0,1,.69.15l4.51,7a.49.49,0,0,1-.15.69A.5.5,0,0,1,472,325.19Z" style="fill:#b2b2b2"></path><path d="M469,320.08a7.29,7.29,0,0,0-1.38-5.87c-1.32-1.78-9.07-7.15-10.5-4.32C455.5,313,462.86,321.19,469,320.08Z" style="fill:#fff"></path><path d="M467.83,320.68c-3.62,0-7.52-2.71-9.74-5.69-1.58-2.11-2.12-4.06-1.47-5.33a2,2,0,0,1,1.71-1.07c2.93-.22,8.48,3.75,9.64,5.33a7.69,7.69,0,0,1,1.46,6.29l-.08.3-.31.06A7.07,7.07,0,0,1,467.83,320.68Zm-9.22-11.1h-.2a1,1,0,0,0-.9.52c-.45.9.08,2.54,1.38,4.29,2.21,3,6.18,5.66,9.64,5.24a6.91,6.91,0,0,0-1.37-5.13C466.15,313.14,461.12,309.58,458.61,309.58Z" style="fill:#b2b2b2"></path><path d="M469,320.58a.52.52,0,0,1-.35-.14l-7-6.75a.5.5,0,1,1,.69-.72l7,6.75a.49.49,0,0,1,0,.7A.48.48,0,0,1,469,320.58Z" style="fill:#b2b2b2"></path><path d="M464,405.07a.52.52,0,0,1-.35-.14.5.5,0,0,1,0-.71l6.43-6.79a.5.5,0,0,1,.71,0,.49.49,0,0,1,0,.7l-6.43,6.8A.52.52,0,0,1,464,405.07Z" style="fill:#b2b2b2"></path><path d="M468.51,399.81a7.31,7.31,0,0,1,2.56-5.46c1.65-1.48,10.34-5.14,11.16-2.08C483.13,395.6,474.24,402.14,468.51,399.81Z" style="fill:#fff"></path><path d="M471.15,400.79a7.45,7.45,0,0,1-2.83-.52l-.29-.12,0-.31a7.71,7.71,0,0,1,2.73-5.86c1.46-1.31,7.69-4.07,10.52-3.24a2,2,0,0,1,1.45,1.4c.38,1.38-.55,3.17-2.53,4.92A14.65,14.65,0,0,1,471.15,400.79ZM469,399.46c3.29,1.12,7.74-.7,10.51-3.15,1.64-1.44,2.49-2.94,2.23-3.91a1,1,0,0,0-.77-.7c-2.34-.69-8.27,1.86-9.58,3A6.93,6.93,0,0,0,469,399.46Z" style="fill:#b2b2b2"></path><path d="M468.51,400.31a.5.5,0,0,1-.26-.93L477,394a.49.49,0,0,1,.69.16.5.5,0,0,1-.16.69l-8.75,5.43A.56.56,0,0,1,468.51,400.31Z" style="fill:#b2b2b2"></path><path d="M468.26,364.37a.48.48,0,0,1-.34-.13.5.5,0,0,1,0-.71l6.42-6.8a.5.5,0,0,1,.73.69l-6.43,6.8A.51.51,0,0,1,468.26,364.37Z" style="fill:#b2b2b2"></path><path d="M472.73,359.11a7.32,7.32,0,0,1,2.56-5.46c1.65-1.47,10.34-5.13,11.17-2.07C487.35,354.91,478.46,361.45,472.73,359.11Z" style="fill:#fff"></path><path d="M475.38,360.1a7.65,7.65,0,0,1-2.83-.52l-.3-.12v-.32a7.73,7.73,0,0,1,2.72-5.86c1.46-1.31,7.7-4.07,10.52-3.23a2,2,0,0,1,1.46,1.4c.37,1.37-.55,3.17-2.53,4.92A14.68,14.68,0,0,1,475.38,360.1Zm-2.14-1.33c3.29,1.12,7.73-.7,10.51-3.15,1.63-1.45,2.48-2.95,2.22-3.91a1,1,0,0,0-.77-.7c-2.33-.69-8.27,1.85-9.58,3A6.87,6.87,0,0,0,473.24,358.77Z" style="fill:#b2b2b2"></path><path d="M472.73,359.61a.49.49,0,0,1-.42-.23.5.5,0,0,1,.16-.69l8.76-5.44a.49.49,0,0,1,.68.17.48.48,0,0,1-.16.68L473,359.54A.5.5,0,0,1,472.73,359.61Z" style="fill:#b2b2b2"></path><path d="M470.11,346.49a.47.47,0,0,1-.34-.14.49.49,0,0,1,0-.7l6.43-6.8a.5.5,0,0,1,.73.69l-6.43,6.79A.49.49,0,0,1,470.11,346.49Z" style="fill:#b2b2b2"></path><path d="M474.59,341.23a7.26,7.26,0,0,1,2.56-5.46c1.65-1.47,10.33-5.14,11.16-2.08C489.21,337,480.32,343.57,474.59,341.23Z" style="fill:#fff"></path><path d="M477.23,342.21a7.45,7.45,0,0,1-2.83-.52l-.29-.12,0-.31a7.72,7.72,0,0,1,2.72-5.86c1.47-1.31,7.69-4.08,10.53-3.23a1.92,1.92,0,0,1,1.45,1.39c.38,1.38-.55,3.17-2.53,4.92A14.62,14.62,0,0,1,477.23,342.21Zm-2.14-1.33c3.3,1.12,7.73-.69,10.51-3.15,1.64-1.44,2.49-2.94,2.23-3.91a1,1,0,0,0-.78-.7c-2.33-.69-8.27,1.86-9.57,3A6.93,6.93,0,0,0,475.09,340.88Z" style="fill:#b2b2b2"></path><path d="M474.59,341.73a.5.5,0,0,1-.26-.93l8.75-5.43a.51.51,0,0,1,.69.16.5.5,0,0,1-.16.69l-8.76,5.43A.5.5,0,0,1,474.59,341.73Z" style="fill:#b2b2b2"></path><path d="M472.76,318.93a.5.5,0,0,1-.32-.88l6.5-5.46a.5.5,0,1,1,.64.77l-6.5,5.46A.54.54,0,0,1,472.76,318.93Z" style="fill:#b2b2b2"></path><path d="M477.31,315a7.27,7.27,0,0,1,2.56-5.46c1.65-1.47,10.34-5.13,11.16-2.07C491.93,310.81,483,317.35,477.31,315Z" style="fill:#fff"></path><path d="M480,316a7.46,7.46,0,0,1-2.83-.53l-.29-.11,0-.32a7.72,7.72,0,0,1,2.72-5.86c1.47-1.31,7.7-4.07,10.53-3.23a2,2,0,0,1,1.45,1.4c.38,1.37-.55,3.16-2.53,4.91A14.63,14.63,0,0,1,480,316Zm-2.14-1.33c3.29,1.12,7.73-.7,10.51-3.16,1.64-1.44,2.49-2.94,2.23-3.9a1,1,0,0,0-.77-.7c-2.34-.69-8.28,1.85-9.58,3A6.9,6.9,0,0,0,477.81,314.67Z" style="fill:#b2b2b2"></path><line x1="477.31" y1="315.01" x2="486.07" y2="309.58" style="fill:#fff"></line><rect x="476.54" y="311.79" width="10.3" height="1" transform="translate(-92.27 300.98) rotate(-31.83)" style="fill:#b2b2b2"></rect><path d="M474.24,302.94a7.26,7.26,0,0,1,2.56-5.46c1.65-1.47,10.33-5.13,11.16-2.07C488.86,298.73,480,305.28,474.24,302.94Z" style="fill:#fff"></path><path d="M476.88,303.92a7.45,7.45,0,0,1-2.83-.52l-.29-.12,0-.31a7.72,7.72,0,0,1,2.72-5.86c1.46-1.31,7.7-4.08,10.53-3.23a2,2,0,0,1,1.45,1.4c.37,1.37-.55,3.16-2.53,4.91A14.62,14.62,0,0,1,476.88,303.92Zm-2.14-1.33c3.29,1.12,7.73-.69,10.51-3.14,1.63-1.45,2.49-2.95,2.23-3.91a1,1,0,0,0-.78-.7c-2.33-.7-8.27,1.85-9.57,3A6.93,6.93,0,0,0,474.74,302.59Z" style="fill:#b2b2b2"></path><path d="M474.24,303.44a.5.5,0,0,1-.43-.24.51.51,0,0,1,.16-.69l8.76-5.43a.5.5,0,1,1,.53.85l-8.76,5.43A.42.42,0,0,1,474.24,303.44Z" style="fill:#b2b2b2"></path><path d="M474.6,303.33a7.28,7.28,0,0,1-5.16-3.12c-1.3-1.79-4-10.82-.9-11.32C472,288.35,477.52,297.88,474.6,303.33Z" style="fill:#fff"></path><path d="M474.89,303.84h-.31a7.77,7.77,0,0,1-5.55-3.32c-1.14-1.59-3.24-8.08-2.11-10.81a2,2,0,0,1,1.54-1.3c1.41-.22,3.1.88,4.63,3,2.4,3.37,3.83,8.62,2,12.14Zm-6.06-14.47-.21,0a.94.94,0,0,0-.77.69c-.94,2.26,1,8.42,2,9.84a7,7,0,0,0,4.47,2.87c1.46-3.16.11-7.76-2-10.78C471.1,290.36,469.8,289.37,468.83,289.37Z" style="fill:#b2b2b2"></path><path d="M474.6,303.83a.48.48,0,0,1-.45-.28l-4.49-9.28a.51.51,0,0,1,.23-.67.5.5,0,0,1,.67.23l4.49,9.28a.51.51,0,0,1-.23.67A.59.59,0,0,1,474.6,303.83Z" style="fill:#b2b2b2"></path><path d="M457.8,394.61a.51.51,0,0,1-.4-.2l-5.32-7.11a.5.5,0,0,1,.1-.7.51.51,0,0,1,.7.1l5.32,7.11a.51.51,0,0,1-.1.7A.49.49,0,0,1,457.8,394.61Z" style="fill:#b2b2b2"></path><path d="M454.21,389.23a7.3,7.3,0,0,0-2-5.69c-1.49-1.64-9.75-6.18-10.89-3.22C440.1,383.54,448.27,391,454.21,389.23Z" style="fill:#fff"></path><path d="M452.36,390c-3.4,0-7.15-2.15-9.48-4.69-1.79-1.94-2.52-3.82-2-5.15a2,2,0,0,1,1.59-1.24c2.92-.55,8.82,2.85,10.14,4.3a7.73,7.73,0,0,1,2.1,6.11l-.05.31-.3.09A7,7,0,0,1,452.36,390Zm-9.2-10.14a2.71,2.71,0,0,0-.51,0,1,1,0,0,0-.85.62c-.36.93.34,2.51,1.82,4.12,2.5,2.72,6.74,5,10.12,4.21a6.87,6.87,0,0,0-1.88-5C450.76,382.67,445.77,379.84,443.16,379.84Z" style="fill:#b2b2b2"></path><path d="M454.21,389.73a.45.45,0,0,1-.31-.11l-7.69-6a.5.5,0,0,1,.61-.79l7.69,6a.5.5,0,0,1,.09.7A.51.51,0,0,1,454.21,389.73Z" style="fill:#b2b2b2"></path><path d="M458,360.32a.51.51,0,0,1-.34-.14l-5.51-5.12a.5.5,0,0,1,0-.71.51.51,0,0,1,.71,0l5.5,5.13a.5.5,0,0,1,0,.71A.52.52,0,0,1,458,360.32Z" style="fill:#b2b2b2"></path><path d="M454.21,356.92a7.33,7.33,0,0,0-2-5.7c-1.49-1.63-9.75-6.17-10.89-3.21C440.1,351.22,448.27,358.65,454.21,356.92Z" style="fill:#fff"></path><path d="M452.36,357.67c-3.4,0-7.15-2.16-9.48-4.69-1.79-1.94-2.52-3.82-2-5.15a2,2,0,0,1,1.59-1.24c2.92-.55,8.82,2.85,10.14,4.3a7.73,7.73,0,0,1,2.1,6.11l-.05.31-.3.09A7.35,7.35,0,0,1,452.36,357.67Zm-9.2-10.14a2.71,2.71,0,0,0-.51,0,1,1,0,0,0-.85.62c-.36.93.34,2.51,1.82,4.11,2.5,2.73,6.74,5,10.12,4.22a6.87,6.87,0,0,0-1.88-5C450.76,350.35,445.77,347.53,443.16,347.53Z" style="fill:#b2b2b2"></path><path d="M454.21,357.42a.51.51,0,0,1-.31-.11l-7.69-6a.51.51,0,0,1-.09-.71.49.49,0,0,1,.7-.08l7.69,6a.5.5,0,0,1,.09.7A.49.49,0,0,1,454.21,357.42Z" style="fill:#b2b2b2"></path><path d="M458.17,324.68a.51.51,0,0,1-.4-.2l-5.69-7.43a.5.5,0,1,1,.79-.6l5.69,7.42a.49.49,0,0,1-.09.7A.5.5,0,0,1,458.17,324.68Z" style="fill:#b2b2b2"></path><path d="M454.21,319a7.3,7.3,0,0,0-2-5.69c-1.49-1.64-9.75-6.18-10.89-3.22C440.1,313.29,448.27,320.71,454.21,319Z" style="fill:#fff"></path><path d="M452.36,319.73c-3.4,0-7.15-2.15-9.48-4.69-1.79-1.94-2.52-3.82-2-5.15a2,2,0,0,1,1.59-1.24c2.9-.55,8.82,2.85,10.14,4.3a7.73,7.73,0,0,1,2.1,6.11l-.05.31-.3.09A7.35,7.35,0,0,1,452.36,319.73Zm-9.2-10.14a2.64,2.64,0,0,0-.51,0,1,1,0,0,0-.85.62c-.36.93.34,2.51,1.82,4.12,2.5,2.72,6.74,5,10.12,4.21a6.87,6.87,0,0,0-1.88-5C450.76,312.41,445.77,309.59,443.16,309.59Z" style="fill:#b2b2b2"></path><path d="M454.21,319.48a.51.51,0,0,1-.31-.11l-7.69-6a.5.5,0,0,1,.61-.79l7.69,6a.5.5,0,0,1-.3.9Z" style="fill:#b2b2b2"></path><path d="M457.8,296.79a.5.5,0,0,1-.34-.13l-5.32-4.79a.5.5,0,0,1,.67-.75l5.32,4.8a.5.5,0,0,1-.33.87Z" style="fill:#b2b2b2"></path><path d="M454.21,293.72a7.3,7.3,0,0,0-2-5.69c-1.49-1.64-9.75-6.18-10.89-3.22C440.1,288,448.27,295.46,454.21,293.72Z" style="fill:#fff"></path><path d="M452.36,294.48c-3.4,0-7.15-2.16-9.48-4.69-1.79-2-2.52-3.83-2-5.16a2,2,0,0,1,1.59-1.24c2.91-.53,8.82,2.85,10.14,4.31a7.71,7.71,0,0,1,2.1,6.11l-.05.31-.3.08A7,7,0,0,1,452.36,294.48Zm-9.2-10.15a2.67,2.67,0,0,0-.51.05,1,1,0,0,0-.85.61c-.36.94.34,2.51,1.82,4.12,2.5,2.73,6.74,5,10.12,4.22a6.87,6.87,0,0,0-1.88-5C450.76,287.16,445.77,284.33,443.16,284.33Z" style="fill:#b2b2b2"></path><path d="M454.21,294.22a.5.5,0,0,1-.31-.1l-7.69-6a.5.5,0,1,1,.61-.79l7.69,6a.5.5,0,0,1,.09.7A.48.48,0,0,1,454.21,294.22Z" style="fill:#b2b2b2"></path><path d="M458.1,271.53a.53.53,0,0,1-.29-.1l-5.52-4.05a.5.5,0,1,1,.59-.81l5.52,4.05a.51.51,0,0,1,.11.7A.49.49,0,0,1,458.1,271.53Z" style="fill:#b2b2b2"></path><path d="M454.21,268.36a7.3,7.3,0,0,0-2-5.69c-1.49-1.64-9.75-6.18-10.89-3.22C440.1,262.67,448.27,270.09,454.21,268.36Z" style="fill:#fff"></path><path d="M452.36,269.11c-3.4,0-7.15-2.15-9.48-4.69-1.79-1.94-2.52-3.82-2-5.15a2,2,0,0,1,1.59-1.24c2.9-.55,8.82,2.85,10.14,4.3a7.73,7.73,0,0,1,2.1,6.11l-.05.31-.3.09A7.35,7.35,0,0,1,452.36,269.11ZM443.16,259a2.64,2.64,0,0,0-.51,0,1,1,0,0,0-.85.62c-.36.93.34,2.51,1.82,4.12,2.5,2.72,6.74,5,10.12,4.21a6.87,6.87,0,0,0-1.88-5C450.76,261.79,445.77,259,443.16,259Z" style="fill:#b2b2b2"></path><path d="M454.21,268.86a.51.51,0,0,1-.31-.11l-7.69-6a.5.5,0,0,1,.61-.79l7.69,6a.5.5,0,0,1-.3.9Z" style="fill:#b2b2b2"></path><path d="M459.15,403.2a.51.51,0,0,1-.31-.11.5.5,0,0,1-.09-.7l4.59-5.83a.5.5,0,0,1,.79.62L459.54,403A.52.52,0,0,1,459.15,403.2Z" style="fill:#b2b2b2"></path><path d="M462,399.1a7.33,7.33,0,0,1,2-5.7c1.49-1.63,9.76-6.17,10.89-3.21C476.11,393.4,467.94,400.83,462,399.1Z" style="fill:#fff"></path><path d="M463.85,399.85a7.35,7.35,0,0,1-2-.27l-.3-.09-.05-.31a7.73,7.73,0,0,1,2.1-6.11c1.32-1.45,7.24-4.84,10.14-4.3a2,2,0,0,1,1.59,1.24c.51,1.33-.22,3.21-2,5.15C471,397.7,467.25,399.85,463.85,399.85Zm-1.38-1.15c3.38.78,7.61-1.49,10.12-4.22,1.48-1.6,2.18-3.18,1.82-4.11a1,1,0,0,0-.85-.62c-2.39-.44-8,2.7-9.21,4A6.87,6.87,0,0,0,462.47,398.7Z" style="fill:#b2b2b2"></path><path d="M462,399.6a.49.49,0,0,1-.39-.2.5.5,0,0,1,.09-.7l8.14-6.31a.5.5,0,1,1,.62.79l-8.15,6.31A.51.51,0,0,1,462,399.6Z" style="fill:#b2b2b2"></path><path d="M458,353.4a.49.49,0,0,1-.39-.8l5.69-7.43a.5.5,0,0,1,.79.61l-5.69,7.43A.53.53,0,0,1,458,353.4Z" style="fill:#b2b2b2"></path><path d="M462,347.7a7.3,7.3,0,0,1,2-5.69c1.49-1.64,9.76-6.17,10.89-3.22C476.11,342,467.94,349.44,462,347.7Z" style="fill:#fff"></path><path d="M463.85,348.46a7.35,7.35,0,0,1-2-.27l-.3-.09-.05-.31a7.72,7.72,0,0,1,2.1-6.11c1.32-1.46,7.25-4.85,10.14-4.3a2,2,0,0,1,1.59,1.24c.51,1.33-.22,3.2-2,5.15C471,346.3,467.25,348.46,463.85,348.46Zm-1.38-1.15c3.38.77,7.61-1.49,10.12-4.22,1.48-1.6,2.18-3.18,1.82-4.12a1,1,0,0,0-.85-.61c-2.39-.44-8,2.69-9.21,4A6.87,6.87,0,0,0,462.47,347.31Z" style="fill:#b2b2b2"></path><path d="M462,348.21a.49.49,0,0,1-.39-.2.5.5,0,0,1,.09-.7l8.14-6.31a.51.51,0,0,1,.71.09.51.51,0,0,1-.09.7l-8.15,6.31A.51.51,0,0,1,462,348.21Z" style="fill:#b2b2b2"></path><path d="M458,328a.5.5,0,0,1-.3-.11.49.49,0,0,1-.09-.7l5.69-7.42a.5.5,0,1,1,.79.61l-5.69,7.42A.51.51,0,0,1,458,328Z" style="fill:#b2b2b2"></path><path d="M462,322.34a7.3,7.3,0,0,1,2-5.69c1.49-1.64,9.76-6.18,10.89-3.22C476.11,316.65,467.94,324.07,462,322.34Z" style="fill:#fff"></path><path d="M463.85,323.09a7,7,0,0,1-2-.27l-.3-.09-.05-.31a7.73,7.73,0,0,1,2.1-6.11c1.32-1.45,7.24-4.84,10.14-4.3a2,2,0,0,1,1.59,1.24c.51,1.33-.22,3.21-2,5.15C471,320.94,467.25,323.09,463.85,323.09Zm-1.38-1.15c3.39.78,7.61-1.49,10.12-4.21,1.48-1.61,2.18-3.19,1.82-4.12a1,1,0,0,0-.84-.62c-2.4-.45-8,2.7-9.22,4A6.87,6.87,0,0,0,462.47,321.94Z" style="fill:#b2b2b2"></path><path d="M462,322.84a.5.5,0,0,1-.3-.9l8.14-6.3a.5.5,0,0,1,.71.09.52.52,0,0,1-.09.7l-8.15,6.31A.5.5,0,0,1,462,322.84Z" style="fill:#b2b2b2"></path><path d="M458,294.51a.49.49,0,0,1-.39-.8l5.69-7.43a.5.5,0,0,1,.79.61l-5.69,7.43A.53.53,0,0,1,458,294.51Z" style="fill:#b2b2b2"></path><path d="M462,288.81a7.3,7.3,0,0,1,2-5.69c1.49-1.64,9.76-6.18,10.89-3.22C476.11,283.12,467.94,290.55,462,288.81Z" style="fill:#fff"></path><path d="M463.85,289.56a7,7,0,0,1-2-.27l-.3-.09-.05-.31a7.73,7.73,0,0,1,2.1-6.11c1.32-1.45,7.24-4.84,10.14-4.3a2,2,0,0,1,1.59,1.24c.51,1.33-.22,3.21-2,5.16C471,287.41,467.25,289.56,463.85,289.56Zm-1.38-1.14c3.38.78,7.61-1.49,10.12-4.22,1.48-1.61,2.18-3.18,1.82-4.12a1,1,0,0,0-.85-.61c-2.38-.44-8,2.69-9.21,4A6.85,6.85,0,0,0,462.47,288.42Z" style="fill:#b2b2b2"></path><path d="M462,289.31a.48.48,0,0,1-.39-.19.5.5,0,0,1,.09-.7l8.14-6.31a.51.51,0,0,1,.71.09.51.51,0,0,1-.09.7l-8.15,6.31A.5.5,0,0,1,462,289.31Z" style="fill:#b2b2b2"></path><path d="M458.29,265.58a.51.51,0,0,1-.4-.2.5.5,0,0,1,.09-.7l5.58-4.35a.5.5,0,0,1,.7.08.52.52,0,0,1-.08.71l-5.59,4.35A.5.5,0,0,1,458.29,265.58Z" style="fill:#b2b2b2"></path><path d="M462,262.45a7.3,7.3,0,0,1,2-5.69c1.49-1.64,9.76-6.17,10.89-3.22C476.11,256.76,467.94,264.19,462,262.45Z" style="fill:#fff"></path><path d="M463.85,263.21a7.35,7.35,0,0,1-2-.27l-.3-.09-.05-.31a7.72,7.72,0,0,1,2.1-6.11c1.32-1.46,7.24-4.85,10.14-4.31a2,2,0,0,1,1.59,1.24c.51,1.34-.22,3.21-2,5.16C471,261.05,467.25,263.21,463.85,263.21Zm-1.38-1.15c3.39.77,7.61-1.49,10.12-4.22,1.48-1.6,2.18-3.18,1.82-4.12a1,1,0,0,0-.84-.61c-2.4-.46-8,2.69-9.22,4A6.87,6.87,0,0,0,462.47,262.06Z" style="fill:#b2b2b2"></path><path d="M462,263a.49.49,0,0,1-.39-.2.5.5,0,0,1,.09-.7l8.14-6.31a.51.51,0,0,1,.71.09.51.51,0,0,1-.09.7l-8.15,6.31A.51.51,0,0,1,462,263Z" style="fill:#b2b2b2"></path><path d="M457.7,250.76a7.3,7.3,0,0,1,2-5.69c1.49-1.64,9.75-6.17,10.89-3.22C471.81,245.07,463.64,252.5,457.7,250.76Z" style="fill:#fff"></path><path d="M459.55,251.52a7,7,0,0,1-2-.28l-.3-.08-.05-.31a7.72,7.72,0,0,1,2.1-6.11c1.32-1.46,7.25-4.84,10.14-4.31a2,2,0,0,1,1.59,1.24c.51,1.33-.22,3.21-2,5.16C466.7,249.36,463,251.52,459.55,251.52Zm-1.38-1.15c3.38.77,7.61-1.49,10.12-4.22,1.48-1.6,2.17-3.18,1.82-4.12a1,1,0,0,0-.85-.61c-2.42-.45-8,2.7-9.21,4A6.87,6.87,0,0,0,458.17,250.37Z" style="fill:#b2b2b2"></path><path d="M457.7,251.26a.47.47,0,0,1-.39-.19.5.5,0,0,1,.09-.7l8.14-6.31a.51.51,0,0,1,.71.09.51.51,0,0,1-.09.7L458,251.16A.5.5,0,0,1,457.7,251.26Z" style="fill:#b2b2b2"></path><path d="M458.1,251.11a7.24,7.24,0,0,1-5.45-2.56c-1.48-1.65-5.12-10.35-2.06-11.17C453.92,236.49,460.44,245.39,458.1,251.11Z" style="fill:#fff"></path><path d="M458,251.62a7.84,7.84,0,0,1-5.7-2.74c-1.3-1.46-4.06-7.7-3.21-10.53a2,2,0,0,1,1.4-1.45c1.38-.37,3.16.55,4.91,2.54,2.73,3.1,4.71,8.17,3.19,11.86l-.12.29-.31,0Zm-6.89-13.8a1.37,1.37,0,0,0-.36,0,1,1,0,0,0-.7.78c-.7,2.34,1.84,8.27,3,9.58a6.9,6.9,0,0,0,4.73,2.39c1.13-3.29-.68-7.73-3.13-10.51C453.35,238.65,452,237.82,451.08,237.82Z" style="fill:#b2b2b2"></path><path d="M458.1,251.61a.51.51,0,0,1-.43-.23l-5.42-8.77a.51.51,0,0,1,.17-.69.49.49,0,0,1,.68.17l5.42,8.76a.49.49,0,0,1-.16.69A.48.48,0,0,1,458.1,251.61Z" style="fill:#b2b2b2"></path><polygon points="465.11 464.88 446.89 464.88 444.62 418.89 467.38 418.89 465.11 464.88" style="fill:#fff"></polygon><path d="M465.11,465.38H446.89a.5.5,0,0,1-.49-.48l-2.28-46a.48.48,0,0,1,.14-.37.48.48,0,0,1,.36-.15h22.76a.48.48,0,0,1,.36.15.48.48,0,0,1,.14.37l-2.28,46A.5.5,0,0,1,465.11,465.38Zm-17.74-1h17.26l2.23-45H445.14Z" style="fill:#b2b2b2"></path></g><g id="freepik--Picture--inject-233"><g style="opacity:0.30000000000000004"><path d="M451.53,171.72h-87a.5.5,0,0,1-.5-.5v-118a.5.5,0,0,1,.5-.5h87a.5.5,0,0,1,.5.5v118A.5.5,0,0,1,451.53,171.72Zm-86.5-1h86v-117H365Z"></path><path d="M446.37,164.72H369.7a.5.5,0,0,1-.5-.5v-104a.5.5,0,0,1,.5-.5h76.67a.5.5,0,0,1,.5.5v104A.5.5,0,0,1,446.37,164.72Zm-76.17-1h75.67v-103H370.2Z"></path><path d="M427.94,139.72H388.13a.5.5,0,0,1-.5-.5v-54a.5.5,0,0,1,.5-.5h39.81a.5.5,0,0,1,.5.5v54A.5.5,0,0,1,427.94,139.72Zm-39.31-1h38.81v-53H388.63Z"></path></g></g><g id="freepik--Sofa--inject-233"><g style="opacity:0.30000000000000004"><path d="M192.52,390.48h-1V301.4a.5.5,0,0,1,.5-.5H293.44A11.62,11.62,0,0,1,305,312.5v77.21h-1V312.5a10.62,10.62,0,0,0-10.6-10.6H192.52Z"></path><path d="M79,389.71H78V312.5a11.6,11.6,0,0,1,11.58-11.6H192.87v1H89.55A10.61,10.61,0,0,0,79,312.5Z"></path><path d="M314.56,423.55H192.06a.51.51,0,0,1-.5-.5V389.71a.5.5,0,0,1,.5-.5H307.18a7.88,7.88,0,0,1,7.88,7.87v26A.51.51,0,0,1,314.56,423.55Zm-122-1h121.5V397.08a6.88,6.88,0,0,0-6.88-6.87H192.56Z"></path><path d="M193,423.55H68.44a.51.51,0,0,1-.5-.5v-26a7.89,7.89,0,0,1,7.88-7.87H193v1H75.82a6.88,6.88,0,0,0-6.88,6.87v25.47H193Z"></path><path d="M314.76,465.38H68.44a.51.51,0,0,1-.5-.5V423.05a.5.5,0,0,1,.5-.5H314.76a.5.5,0,0,1,.5.5v41.83A.5.5,0,0,1,314.76,465.38Zm-245.82-1H314.26V423.55H68.94Z"></path><path d="M73.09,465.38H50.79a8,8,0,0,1-7.95-7.93V350.55a8,8,0,0,1,7.95-7.93h22.3a8,8,0,0,1,5.74,2.44l-.73.69a7,7,0,0,0-5-2.13H50.79a7,7,0,0,0-6.95,6.93v106.9a7,7,0,0,0,6.95,6.93h22.3Z"></path><path d="M329.64,465.38H307.33v-1h22.31a6.94,6.94,0,0,0,6.93-6.93V350.55a6.94,6.94,0,0,0-6.93-6.93H307.33a7,7,0,0,0-2.6.5l-.38-.92a7.79,7.79,0,0,1,3-.58h22.31a7.94,7.94,0,0,1,7.93,7.93v106.9A7.94,7.94,0,0,1,329.64,465.38Z"></path></g></g><g id="freepik--Screen--inject-233"><rect x="33.92" y="40.34" width="202.15" height="392.54" style="fill:#263238"></rect><rect x="33.92" y="40.34" width="202.15" height="32.09" style="fill:#B0BEC5"></rect><path d="M53.23,51.32c0,2.93-3.29,4-3.3,6.22v.15h3.19v1H48.86v-.84c0-3.13,3.29-3.74,3.29-6.48,0-1-.33-1.53-1.14-1.53s-1.14.57-1.14,1.43v.86h-1v-.79c0-1.48.68-2.47,2.18-2.47S53.23,49.83,53.23,51.32Z" style="fill:#263238"></path><path d="M58.55,51.31v.25a1.92,1.92,0,0,1-1.18,2,1.94,1.94,0,0,1,1.18,2v.75c0,1.48-.69,2.45-2.19,2.45s-2.18-1-2.18-2.45v-.67h1v.74c0,.87.36,1.4,1.14,1.4s1.14-.52,1.14-1.5v-.75c0-1-.4-1.42-1.22-1.44h-.59v-1h.64a1.16,1.16,0,0,0,1.17-1.33v-.44c0-1-.35-1.52-1.14-1.52s-1.14.55-1.14,1.42v.5h-1v-.44c0-1.49.69-2.45,2.18-2.45S58.55,49.82,58.55,51.31Z" style="fill:#263238"></path><path d="M60.65,52v1.35h-1V52Zm0,5.29v1.35h-1V57.33Z" style="fill:#263238"></path><path d="M62.84,52.92a1.57,1.57,0,0,1,1.45-.81c1.25,0,1.8.92,1.8,2.3v1.91c0,1.48-.71,2.45-2.19,2.45s-2.18-1-2.18-2.45v-.66h1v.73c0,.87.36,1.4,1.14,1.4S65,57.26,65,56.39V54.5c0-.88-.36-1.4-1.14-1.4a1,1,0,0,0-1.1,1v.22h-1L62,49h3.83v1H63Z" style="fill:#263238"></path><path d="M71.49,51.29v.18h-1v-.25c0-.87-.36-1.39-1.15-1.39s-1.18.53-1.18,1.57v2.18a1.56,1.56,0,0,1,1.56-1c1.25,0,1.81.9,1.81,2.3v1.48c0,1.48-.74,2.45-2.22,2.45s-2.24-1-2.24-2.45v-5c0-1.54.7-2.5,2.24-2.5S71.49,49.81,71.49,51.29Zm-3.34,3.64v1.46c0,.87.36,1.4,1.15,1.4s1.15-.53,1.15-1.4V54.93c0-.88-.37-1.4-1.15-1.4S68.15,54.05,68.15,54.93Z" style="fill:#263238"></path><rect x="174.82" y="51.72" width="2.74" height="6.86" style="fill:#263238"></rect><rect x="178.48" y="50.34" width="2.74" height="8.23" style="fill:#263238"></rect><rect x="182.14" y="49.37" width="2.74" height="9.21" style="fill:#263238"></rect><rect x="185.79" y="47.67" width="2.74" height="10.9" style="fill:#263238"></rect><path d="M222.49,58.39H206V48.33h16.46Zm-15.55-.92h14.63V49.24H206.94Z" style="fill:#263238"></path><rect x="208.31" y="50.24" width="8.69" height="6.24" style="fill:#263238"></rect><rect x="221.92" y="52.17" width="2.07" height="2.37" style="fill:#263238"></rect><path d="M200,56.2a.56.56,0,0,1-.31-.09c-3.35-2-5.57-.14-5.66-.06a.62.62,0,1,1-.81-.93c.12-.1,2.95-2.52,7.1-.06a.61.61,0,0,1,.21.84A.63.63,0,0,1,200,56.2Z" style="fill:#263238"></path><path d="M201.23,54.13a.55.55,0,0,1-.31-.08c-4.85-2.88-8.1-.1-8.14-.07a.6.6,0,0,1-.86,0,.62.62,0,0,1,.05-.87s4-3.4,9.57-.07a.61.61,0,0,1-.31,1.14Z" style="fill:#263238"></path><path d="M202.35,51.74a.61.61,0,0,1-.31-.09c-6.13-3.64-10.21-.21-10.38-.06a.63.63,0,0,1-.87-.06.61.61,0,0,1,.06-.86c0-.05,4.89-4.19,11.82-.07a.61.61,0,0,1,.21.84A.62.62,0,0,1,202.35,51.74Z" style="fill:#263238"></path><path d="M198.14,57.23a1.54,1.54,0,1,1-1.54-1.54A1.54,1.54,0,0,1,198.14,57.23Z" style="fill:#263238"></path><path d="M135,220.46a55.43,55.43,0,0,1,0-110.85v14a41.43,41.43,0,1,0,26.58,73.2l9,10.74A55.5,55.5,0,0,1,135,220.46Z" style="fill:#858585"></path><path d="M170.55,207.55l-9-10.74A41.42,41.42,0,0,0,135,123.61v-14a55.42,55.42,0,0,1,35.56,97.94Z" style="fill:#B0BEC5"></path><path d="M121.7,164.16v5.17h-2.79v-5.17h-8.29v-2.61l8-17.91h3.12v17.91h2.06v2.61Zm-8.44-2.61h5.65V149Z" style="fill:#fff"></path><path d="M128.82,154.1a4.13,4.13,0,0,1,3.82-2.13c3.3,0,4.77,2.42,4.77,6.09v5c0,3.93-1.87,6.5-5.8,6.5s-5.76-2.57-5.76-6.5v-1.72h2.68v1.91c0,2.31.95,3.7,3,3.7s3-1.39,3-3.7v-5c0-2.31-1-3.7-3-3.7-1.58,0-2.64.88-2.9,2.75v.59H126l.7-14.28h10.13v2.57h-7.56Z" style="fill:#fff"></path><path d="M147.36,147.64v8.11c0,2.5-1.18,4.15-3.67,4.15s-3.67-1.65-3.67-4.15v-8.11c0-2.46,1.17-4.15,3.67-4.15S147.36,145.18,147.36,147.64Zm-5.51-.11v8.37c0,1.39.52,2.31,1.84,2.31s1.83-.92,1.83-2.31v-8.37c0-1.4-.55-2.35-1.83-2.35S141.85,146.13,141.85,147.53Zm14-3.89-10.13,25.69H144l10.13-25.69ZM160,157.22v8.07c0,2.5-1.13,4.15-3.67,4.15s-3.67-1.65-3.67-4.15v-8.07c0-2.46,1.18-4.11,3.67-4.11S160,154.76,160,157.22Zm-5.5-.11v8.33c0,1.4.55,2.35,1.83,2.35s1.84-.95,1.84-2.35v-8.33c0-1.4-.55-2.31-1.84-2.31S154.48,155.71,154.48,157.11Z" style="fill:#fff"></path><path d="M121.26,96.39V83.89h-2.79V83.5h6v.39h-2.82v12.5Z" style="fill:#fff"></path><path d="M125.59,86.67c0-1.81.77-3.26,2.72-3.26s2.76,1.45,2.76,3.26v6.55c0,1.81-.77,3.26-2.76,3.26s-2.72-1.45-2.72-3.26Zm.4,6.57c0,1.58.61,2.87,2.32,2.87s2.36-1.29,2.36-2.87V86.65c0-1.58-.63-2.87-2.36-2.87S126,85.07,126,86.65Z" style="fill:#fff"></path><path d="M135.21,83.5c2,0,2.8,1.38,2.8,3.22v6.46c0,1.83-.83,3.21-2.78,3.21h-2.7V83.5Zm0,12.5c1.73,0,2.4-1.2,2.4-2.8V86.7c0-1.62-.68-2.81-2.4-2.81h-2.28V96Z" style="fill:#fff"></path><path d="M140.5,93.35l-.76,3h-.37l3.11-12.91h.57l3.19,12.91h-.41l-.75-3Zm.07-.37H145l-2.25-9Z" style="fill:#fff"></path><path d="M149.68,91.18l-3-7.68h.4l2.82,7.13,2.82-7.13h.42l-3.06,7.68v5.21h-.4Z" style="fill:#fff"></path><path d="M115.75,182.43v.8h-.33v-.82c0-1.27-.48-2.34-1.86-2.34s-1.87,1.07-1.87,2.34v5.36c0,1.28.47,2.33,1.87,2.33s1.86-1,1.86-2.33v-1.15h.33v1.14c0,1.45-.6,2.65-2.21,2.65s-2.18-1.2-2.18-2.65v-5.33c0-1.46.59-2.66,2.18-2.66S115.75,181,115.75,182.43Z" style="fill:#fff"></path><path d="M116.9,182.43c0-1.47.63-2.66,2.21-2.66s2.25,1.19,2.25,2.66v5.33c0,1.47-.63,2.65-2.25,2.65s-2.21-1.18-2.21-2.65Zm.33,5.34c0,1.29.49,2.34,1.88,2.34s1.92-1.05,1.92-2.34v-5.36c0-1.29-.51-2.34-1.92-2.34s-1.88,1.05-1.88,2.34Z" style="fill:#fff"></path><path d="M125.81,190.31h-.38l-2.59-10v10h-.3V179.85h.51l2.58,10,2.57-10h.51v10.49h-.33v-10Z" style="fill:#fff"></path><path d="M132,179.85c1.61,0,2.17,1.06,2.17,2.53v1.05c0,1.66-.75,2.46-2.41,2.46h-1.5v4.45h-.33V179.85Zm-.24,5.72c1.46,0,2.08-.64,2.08-2.13v-1.07c0-1.29-.44-2.21-1.84-2.21h-1.74v5.41Z" style="fill:#fff"></path><path d="M135.28,190.34V179.85h.33V190h3.52v.32Z" style="fill:#fff"></path><path d="M143.69,184.87v.3H140.6V190h3.67v.32h-4V179.85h4v.31H140.6v4.71Z" style="fill:#fff"></path><path d="M147.4,190.34V180.16h-2.28v-.31H150v.31h-2.29v10.18Z" style="fill:#fff"></path><path d="M154.35,184.87v.3h-3.09V190h3.67v.32h-4V179.85h4v.31h-3.67v4.71Z" style="fill:#fff"></path><path d="M158.29,179.85c1.6,0,2.27,1.12,2.27,2.62v5.26c0,1.48-.67,2.61-2.26,2.61h-2.2V179.85Zm0,10.17c1.4,0,1.94-1,1.94-2.28v-5.29c0-1.31-.55-2.29-1.94-2.29h-1.86V190Z" style="fill:#fff"></path><path d="M175.13,228.39a1.62,1.62,0,0,1,1.49-.82c1.28,0,1.85.94,1.85,2.36v2c0,1.52-.73,2.52-2.25,2.52s-2.24-1-2.24-2.52v-.67h1V232c0,.9.37,1.44,1.17,1.44s1.17-.54,1.17-1.44V230c0-.9-.37-1.44-1.17-1.44a1.08,1.08,0,0,0-1.13,1.07v.23h-1l.27-5.55h3.94v1h-2.94Z" style="fill:#fff"></path><path d="M180.66,228.39a1.6,1.6,0,0,1,1.48-.82c1.28,0,1.85.94,1.85,2.36v2c0,1.52-.72,2.52-2.25,2.52s-2.24-1-2.24-2.52v-.67h1V232c0,.9.37,1.44,1.17,1.44s1.17-.54,1.17-1.44V230c0-.9-.37-1.44-1.17-1.44a1.08,1.08,0,0,0-1.13,1.07v.23h-1l.27-5.55h3.94v1h-2.94Z" style="fill:#fff"></path><path d="M187.86,225.88V229c0,1-.45,1.61-1.42,1.61S185,230,185,229v-3.16c0-.95.46-1.61,1.43-1.61S187.86,224.93,187.86,225.88Zm-2.14,0v3.25c0,.54.2.9.72.9s.71-.36.71-.9v-3.25c0-.54-.22-.91-.71-.91S185.72,225.3,185.72,225.84Zm5.44-1.51-3.94,10h-.67l3.94-10Zm1.61,5.28v3.13c0,1-.44,1.62-1.43,1.62s-1.42-.65-1.42-1.62v-3.13c0-1,.45-1.6,1.42-1.6S192.77,228.65,192.77,229.61Zm-2.14-.05v3.24c0,.54.21.91.71.91s.72-.37.72-.91v-3.24c0-.54-.22-.9-.72-.9S190.63,229,190.63,229.56Z" style="fill:#fff"></path><path d="M178.6,252.9v.32a2,2,0,0,1-1.14,2.05,2,2,0,0,1,1.14,2.11v.74a2.36,2.36,0,1,1-4.71,0v-.74a2,2,0,0,1,1.16-2.11,1.94,1.94,0,0,1-1.16-2.05v-.32a2.36,2.36,0,1,1,4.71,0Zm-3.61,0v.48c0,1,.47,1.4,1.26,1.4s1.25-.42,1.25-1.4v-.48c0-1-.47-1.5-1.25-1.5S175,251.9,175,252.93Zm0,4.32v.84c0,1,.46,1.52,1.26,1.52s1.24-.49,1.25-1.52v-.84c0-1-.43-1.44-1.25-1.44S175,256.28,175,257.25Z" style="fill:#fff"></path><path d="M179.53,252.94c0-1.52.75-2.51,2.28-2.51s2.3,1,2.3,2.51v5.15c0,1.53-.76,2.53-2.3,2.53s-2.28-1-2.28-2.53Zm1.1,5.22c0,.9.38,1.45,1.18,1.45s1.19-.55,1.19-1.45v-5.27c0-.92-.38-1.46-1.19-1.46s-1.18.54-1.18,1.46Z" style="fill:#fff"></path><path d="M188,252.09v3.15c0,1-.45,1.61-1.42,1.61s-1.43-.64-1.43-1.61v-3.15c0-1,.46-1.61,1.43-1.61S188,251.13,188,252.09Zm-2.14,0v3.25c0,.54.2.9.72.9s.71-.36.71-.9v-3.25c0-.55-.22-.92-.71-.92S185.82,251.5,185.82,252.05Zm5.44-1.52-3.94,10h-.67l3.94-10Zm1.61,5.28V259c0,1-.44,1.61-1.43,1.61S190,259.92,190,259v-3.14c0-.95.45-1.6,1.42-1.6S192.87,254.86,192.87,255.81Zm-2.14,0V259c0,.54.21.91.71.91s.72-.37.72-.91v-3.24c0-.54-.22-.9-.72-.9S190.73,255.23,190.73,255.77Z" style="fill:#fff"></path><path d="M178.51,279.16c0,3-3.38,4.1-3.39,6.39v.16h3.28v1H174v-.85c0-3.23,3.38-3.85,3.38-6.67,0-1-.34-1.56-1.17-1.56s-1.17.58-1.17,1.47V280h-1v-.81c0-1.53.7-2.54,2.24-2.54S178.51,277.64,178.51,279.16Z" style="fill:#fff"></path><path d="M180.66,280.8a1.6,1.6,0,0,1,1.48-.82c1.28,0,1.85.94,1.85,2.36v2c0,1.52-.72,2.52-2.25,2.52s-2.24-1-2.24-2.52v-.67h1v.74c0,.9.37,1.44,1.17,1.44s1.17-.54,1.17-1.44v-1.94c0-.9-.37-1.44-1.17-1.44a1.08,1.08,0,0,0-1.13,1.07v.23h-1l.27-5.55h3.94v1h-2.94Z" style="fill:#fff"></path><path d="M187.86,278.29v3.15c0,1-.45,1.62-1.42,1.62s-1.43-.64-1.43-1.62v-3.15c0-1,.46-1.61,1.43-1.61S187.86,277.34,187.86,278.29Zm-2.14,0v3.25c0,.54.2.9.72.9s.71-.36.71-.9v-3.25c0-.54-.22-.91-.71-.91S185.72,277.71,185.72,278.25Zm5.44-1.51-3.94,10h-.67l3.94-10Zm1.61,5.28v3.13c0,1-.44,1.62-1.43,1.62s-1.42-.65-1.42-1.62V282c0-1,.45-1.6,1.42-1.6S192.77,281.06,192.77,282Zm-2.14,0v3.24c0,.54.21.91.71.91s.72-.37.72-.91V282c0-.54-.22-.9-.72-.9S190.63,281.43,190.63,282Z" style="fill:#fff"></path><path d="M177.34,303.41H174v-1h4.52v1l-2.57,9h-1.11Z" style="fill:#fff"></path><path d="M180.66,306.47a1.6,1.6,0,0,1,1.48-.82c1.28,0,1.85.94,1.85,2.36v2c0,1.52-.72,2.52-2.25,2.52s-2.24-1-2.24-2.52v-.67h1V310c0,.9.37,1.44,1.17,1.44s1.17-.54,1.17-1.44V308.1c0-.9-.37-1.44-1.17-1.44a1.08,1.08,0,0,0-1.13,1.07V308h-1l.27-5.55h3.94v1h-2.94Z" style="fill:#fff"></path><path d="M187.86,304v3.15c0,1-.45,1.62-1.42,1.62s-1.43-.64-1.43-1.62V304c0-.95.46-1.61,1.43-1.61S187.86,303,187.86,304Zm-2.14,0v3.25c0,.54.2.9.72.9s.71-.36.71-.9v-3.25c0-.54-.22-.91-.71-.91S185.72,303.38,185.72,303.92Zm5.44-1.51-3.94,10h-.67l3.94-10Zm1.61,5.28v3.13c0,1-.44,1.62-1.43,1.62s-1.42-.65-1.42-1.62v-3.13c0-1,.45-1.6,1.42-1.6S192.77,306.73,192.77,307.69Zm-2.14-.05v3.24c0,.54.21.91.71.91s.72-.37.72-.91v-3.24c0-.54-.22-.9-.72-.9S190.63,307.1,190.63,307.64Z" style="fill:#fff"></path><path d="M85.89,237.62h-.8a1.15,1.15,0,0,1-1.15-1.15v-.73a1.16,1.16,0,0,0-1.16-1.15H79.89a1.16,1.16,0,0,0-1.15,1.15v4H70.21v-4a1.15,1.15,0,0,0-1.15-1.15H66.17A1.15,1.15,0,0,0,65,235.74v.73a1.16,1.16,0,0,1-1.15,1.15h-.81a1.15,1.15,0,0,0-1.15,1.15v4.92a1.15,1.15,0,0,0,1.15,1.15h.81A1.16,1.16,0,0,1,65,246v.73a1.15,1.15,0,0,0,1.15,1.15h2.89a1.15,1.15,0,0,0,1.15-1.15v-4h8.53v4a1.16,1.16,0,0,0,1.15,1.15h2.89a1.16,1.16,0,0,0,1.16-1.15V246a1.15,1.15,0,0,1,1.15-1.15h.8A1.14,1.14,0,0,0,87,243.69v-4.92A1.14,1.14,0,0,0,85.89,237.62Z" style="fill:#B0BEC5"></path><path d="M82.88,259a5.78,5.78,0,0,0-8.16,0l-.2.2-.21-.2a5.76,5.76,0,0,0-8.15,8.15l.2.21,8.16,8.16,8.15-8.16.21-.21a5.73,5.73,0,0,0,0-8.15Zm-2.82,6.89H76.73l-1.84,4.35-2.54-6.65-1.49,2.86H68.65a.44.44,0,0,1-.43-.44.43.43,0,0,1,.43-.43h1.68l2.14-4.11,2.46,6.44L76.16,265h3.9a.44.44,0,0,1,.44.44A.44.44,0,0,1,80.06,265.88Z" style="fill:#B0BEC5"></path><path d="M82.1,287.47a5.15,5.15,0,0,0-4.46-3,4.76,4.76,0,0,0-3.46,1.58,4.74,4.74,0,0,0-3.45-1.58c-2.86,0-5.18,2.72-5.18,6.08a11.92,11.92,0,0,0,5.07,8.95c2.33,1.37,3.56.27,3.56.27s2.33,1.1,4,0a11,11,0,0,0,3.32-4,11.45,11.45,0,0,0,1.27-5.2A6.73,6.73,0,0,0,82.1,287.47Z" style="fill:#B0BEC5"></path><path d="M73.09,281l-1.37.55a10.8,10.8,0,0,1,1.37,1.92,9.72,9.72,0,0,1,1.09,2.58C75.14,282.6,73.09,281,73.09,281Z" style="fill:#B0BEC5"></path><path d="M79.25,279.77A15.69,15.69,0,0,0,75.69,281c-1.1.69-1.1,2.88-1.1,2.88s2.47,0,3.29-.82S79.25,279.77,79.25,279.77Z" style="fill:#B0BEC5"></path><path d="M74.61,311.13a2.81,2.81,0,1,0-2.81-2.81A2.8,2.8,0,0,0,74.61,311.13Z" style="fill:#B0BEC5"></path><path d="M83.82,315.53a22.89,22.89,0,0,0-7-1.86,15,15,0,0,0-3.44-.08,8,8,0,0,0-1.81-1.72,15.75,15.75,0,0,0-6.78-2.5,1.09,1.09,0,0,0-1.14,1,1.07,1.07,0,0,0,1,1.14,13.65,13.65,0,0,1,5.78,2.17,3.78,3.78,0,0,1,.62.5,9.33,9.33,0,0,0-3.21,2.47l-.46.52c-2.3,2.61-4.58,4.84-7.14,3.58A10.73,10.73,0,0,1,59,320a1.07,1.07,0,0,0-1.23,1.75,12.75,12.75,0,0,0,1.54.91,5.55,5.55,0,0,0,2.46.6c3.11,0,5.61-2.84,7.23-4.69l.45-.5a6.6,6.6,0,0,1,3-2.12,13.72,13.72,0,0,1,2.16,7.31,6.06,6.06,0,0,1-3.24,5.49,1.07,1.07,0,0,0,.52,2,1.07,1.07,0,0,0,.51-.13,8.2,8.2,0,0,0,4.35-7.3,15.8,15.8,0,0,0-2-7.67,15.54,15.54,0,0,1,1.81.13,21.23,21.23,0,0,1,6.3,1.63,1.07,1.07,0,0,0,1-1.9Z" style="fill:#B0BEC5"></path><path d="M194.89,241.42a2.71,2.71,0,0,1-.78,1.9,2.67,2.67,0,0,1-1.89.78H98.63A2.67,2.67,0,0,1,96,241.42a2.63,2.63,0,0,1,.78-1.89,2.67,2.67,0,0,1,1.89-.78h93.59A2.68,2.68,0,0,1,194.89,241.42Z" style="fill:#7d7d7d"></path><path d="M147.3,238.75v5.35H98.63A2.67,2.67,0,0,1,96,241.42a2.63,2.63,0,0,1,.78-1.89,2.67,2.67,0,0,1,1.89-.78Z" style="fill:#B0BEC5"></path><path d="M194.89,267.09a2.71,2.71,0,0,1-.78,1.9,2.67,2.67,0,0,1-1.89.78H98.63A2.67,2.67,0,0,1,96,267.09a2.63,2.63,0,0,1,.78-1.89,2.67,2.67,0,0,1,1.89-.78h93.59A2.68,2.68,0,0,1,194.89,267.09Z" style="fill:#7d7d7d"></path><path d="M175.64,264.42v5.35h-77A2.67,2.67,0,0,1,96,267.09a2.63,2.63,0,0,1,.78-1.89,2.67,2.67,0,0,1,1.89-.78Z" style="fill:#B0BEC5"></path><path d="M194.89,292.76a2.71,2.71,0,0,1-.78,1.9,2.67,2.67,0,0,1-1.89.78H98.63A2.67,2.67,0,0,1,96,292.76a2.63,2.63,0,0,1,.78-1.89,2.67,2.67,0,0,1,1.89-.78h93.59A2.68,2.68,0,0,1,194.89,292.76Z" style="fill:#7d7d7d"></path><path d="M116.28,290.09v5.35H98.63A2.67,2.67,0,0,1,96,292.76a2.63,2.63,0,0,1,.78-1.89,2.67,2.67,0,0,1,1.89-.78Z" style="fill:#B0BEC5"></path><path d="M194.89,318.43a2.71,2.71,0,0,1-.78,1.9,2.67,2.67,0,0,1-1.89.78H98.63A2.67,2.67,0,0,1,96,318.43a2.63,2.63,0,0,1,.78-1.89,2.67,2.67,0,0,1,1.89-.78h93.59A2.68,2.68,0,0,1,194.89,318.43Z" style="fill:#7d7d7d"></path><path d="M163.34,315.76v5.35H98.63A2.67,2.67,0,0,1,96,318.43a2.63,2.63,0,0,1,.78-1.89,2.67,2.67,0,0,1,1.89-.78Z" style="fill:#B0BEC5"></path><path d="M74.29,404.12h-.36l-1.42-7.87h.25l1.37,7.53,1.36-7.49h.31l1.28,7.44,1.33-7.48h.22l-1.39,7.87h-.33l-1.27-7.29Z" style="fill:#fff"></path><path d="M82.06,400v.23H79.75v3.64H82.5v.24h-3v-7.87h3v.23H79.75V400Z" style="fill:#fff"></path><path d="M86,400v.23H83.63v3.64h2.75v.24h-3v-7.87h3v.23H83.63V400Z" style="fill:#fff"></path><path d="M88.11,400.2l-.6.9v3h-.25v-7.87h.25v4.44l2.92-4.44h.27L88.26,400l2.65,4.15h-.27Z" style="fill:#fff"></path><path d="M94.92,396.72a1.57,1.57,0,0,1-1.31.88v-.23a1.55,1.55,0,0,0,1.33-1.14h.23v7.89h-.25Z" style="fill:#fff"></path><path d="M124.89,404.12h-.36l-1.42-7.87h.25l1.37,7.53,1.36-7.49h.3l1.28,7.44,1.33-7.48h.23l-1.4,7.87h-.32l-1.28-7.29Z" style="fill:#fff"></path><path d="M132.66,400v.23h-2.32v3.64h2.76v.24h-3v-7.87h3v.23h-2.76V400Z" style="fill:#fff"></path><path d="M136.54,400v.23h-2.32v3.64H137v.24h-3v-7.87h3v.23h-2.76V400Z" style="fill:#fff"></path><path d="M138.7,400.2l-.59.9v3h-.25v-7.87h.25v4.44l2.92-4.44h.27L138.86,400l2.64,4.15h-.27Z" style="fill:#fff"></path><path d="M147.4,398.2c0,2.2-3,2.93-3,5.64v0h3v.24h-3.24V404c0-2.95,3-3.62,3-5.74,0-1-.31-1.8-1.41-1.8s-1.39.86-1.39,1.8v.43h-.24v-.41c0-1.1.43-2,1.65-2S147.4,397.09,147.4,398.2Z" style="fill:#fff"></path><path d="M174.81,404.12h-.36L173,396.25h.25l1.37,7.53,1.36-7.49h.31l1.28,7.44,1.33-7.48h.22l-1.39,7.87h-.33l-1.27-7.29Z" style="fill:#fff"></path><path d="M182.58,400v.23h-2.31v3.64H183v.24h-3v-7.87h3v.23h-2.75V400Z" style="fill:#fff"></path><path d="M186.47,400v.23h-2.32v3.64h2.75v.24h-3v-7.87h3v.23h-2.75V400Z" style="fill:#fff"></path><path d="M188.63,400.2l-.6.9v3h-.25v-7.87H188v4.44l2.93-4.44h.27L188.79,400l2.64,4.15h-.27Z" style="fill:#fff"></path><path d="M197.32,398.18v.19A1.64,1.64,0,0,1,196.2,400a1.5,1.5,0,0,1,1.12,1.58v.6c0,1.1-.44,2-1.64,2s-1.65-.89-1.65-2v-.37h.25v.37c0,1,.34,1.77,1.39,1.77s1.41-.8,1.41-1.78v-.59a1.32,1.32,0,0,0-1.31-1.46h-.57v-.22h.58a1.42,1.42,0,0,0,1.3-1.5v-.22c0-1-.36-1.77-1.41-1.77s-1.39.79-1.39,1.76v.23H194v-.22c0-1.1.45-2,1.65-2S197.32,397.08,197.32,398.18Z" style="fill:#fff"></path><rect x="63.65" y="375.17" width="3.97" height="13.53" style="fill:#B0BEC5"></rect><rect x="69.89" y="367.59" width="3.97" height="21.11" style="fill:#B0BEC5"></rect><rect x="76.13" y="374.28" width="3.97" height="14.42" style="fill:#B0BEC5"></rect><rect x="82.36" y="355.78" width="3.97" height="32.92" style="fill:#B0BEC5"></rect><rect x="88.6" y="370.71" width="3.97" height="17.99" style="fill:#B0BEC5"></rect><rect x="94.83" y="376.73" width="3.97" height="11.97" style="fill:#B0BEC5"></rect><rect x="101.07" y="384.31" width="3.97" height="4.39" style="fill:#B0BEC5"></rect><rect x="113.72" y="346.86" width="3.97" height="41.84" style="fill:#B0BEC5"></rect><rect x="119.96" y="357.79" width="3.97" height="30.92" style="fill:#B0BEC5"></rect><rect x="126.19" y="361.13" width="3.97" height="27.57" style="fill:#B0BEC5"></rect><rect x="132.43" y="369.82" width="3.97" height="18.88" style="fill:#B0BEC5"></rect><rect x="138.66" y="363.58" width="3.97" height="25.12" style="fill:#B0BEC5"></rect><rect x="144.9" y="351.77" width="3.97" height="36.93" style="fill:#B0BEC5"></rect><rect x="151.13" y="358.45" width="3.97" height="30.25" style="fill:#B0BEC5"></rect><rect x="163.79" y="372.05" width="3.97" height="16.65" style="fill:#B0BEC5"></rect><rect x="170.03" y="376.73" width="3.97" height="11.97" style="fill:#B0BEC5"></rect><rect x="176.26" y="364.92" width="3.97" height="23.78" style="fill:#B0BEC5"></rect><rect x="182.5" y="359.12" width="3.97" height="29.58" style="fill:#B0BEC5"></rect><rect x="188.73" y="362.69" width="3.97" height="26.01" style="fill:#B0BEC5"></rect><rect x="194.97" y="372.05" width="3.97" height="16.65" style="fill:#B0BEC5"></rect><rect x="201.2" y="365.81" width="3.97" height="22.89" style="fill:#B0BEC5"></rect></g><g id="freepik--Floor--inject-233"><rect x="420.62" y="464.38" width="57.38" height="1" style="fill:#263238"></rect><rect x="42.12" y="464.38" width="370.5" height="1" style="fill:#263238"></rect><rect x="19.02" y="464.38" width="16.88" height="1" style="fill:#263238"></rect></g></svg>