<svg id="visual" viewBox="0 0 960 540" width="960" height="540" xmlns="http://www.w3.org/2000/svg" xmlns:xlink="http://www.w3.org/1999/xlink" version="1.1"><rect x="0" y="0" width="960" height="540" fill="#FAFAFF"></rect><defs><linearGradient id="grad1_0" x1="43.8%" y1="0%" x2="100%" y2="100%"><stop offset="14.444444444444446%" stop-color="#8231d0" stop-opacity="1"></stop><stop offset="85.55555555555554%" stop-color="#8231d0" stop-opacity="1"></stop></linearGradient></defs><defs><linearGradient id="grad1_1" x1="43.8%" y1="0%" x2="100%" y2="100%"><stop offset="14.444444444444446%" stop-color="#8231d0" stop-opacity="1"></stop><stop offset="85.55555555555554%" stop-color="#966ce4" stop-opacity="1"></stop></linearGradient></defs><defs><linearGradient id="grad1_2" x1="43.8%" y1="0%" x2="100%" y2="100%"><stop offset="14.444444444444446%" stop-color="#b09df2" stop-opacity="1"></stop><stop offset="85.55555555555554%" stop-color="#966ce4" stop-opacity="1"></stop></linearGradient></defs><defs><linearGradient id="grad1_3" x1="43.8%" y1="0%" x2="100%" y2="100%"><stop offset="14.444444444444446%" stop-color="#b09df2" stop-opacity="1"></stop><stop offset="85.55555555555554%" stop-color="#d1ccfb" stop-opacity="1"></stop></linearGradient></defs><defs><linearGradient id="grad1_4" x1="43.8%" y1="0%" x2="100%" y2="100%"><stop offset="14.444444444444446%" stop-color="#fafaff" stop-opacity="1"></stop><stop offset="85.55555555555554%" stop-color="#d1ccfb" stop-opacity="1"></stop></linearGradient></defs><defs><linearGradient id="grad2_0" x1="0%" y1="0%" x2="56.3%" y2="100%"><stop offset="14.444444444444446%" stop-color="#8231d0" stop-opacity="1"></stop><stop offset="85.55555555555554%" stop-color="#8231d0" stop-opacity="1"></stop></linearGradient></defs><defs><linearGradient id="grad2_1" x1="0%" y1="0%" x2="56.3%" y2="100%"><stop offset="14.444444444444446%" stop-color="#966ce4" stop-opacity="1"></stop><stop offset="85.55555555555554%" stop-color="#8231d0" stop-opacity="1"></stop></linearGradient></defs><defs><linearGradient id="grad2_2" x1="0%" y1="0%" x2="56.3%" y2="100%"><stop offset="14.444444444444446%" stop-color="#966ce4" stop-opacity="1"></stop><stop offset="85.55555555555554%" stop-color="#b09df2" stop-opacity="1"></stop></linearGradient></defs><defs><linearGradient id="grad2_3" x1="0%" y1="0%" x2="56.3%" y2="100%"><stop offset="14.444444444444446%" stop-color="#d1ccfb" stop-opacity="1"></stop><stop offset="85.55555555555554%" stop-color="#b09df2" stop-opacity="1"></stop></linearGradient></defs><defs><linearGradient id="grad2_4" x1="0%" y1="0%" x2="56.3%" y2="100%"><stop offset="14.444444444444446%" stop-color="#d1ccfb" stop-opacity="1"></stop><stop offset="85.55555555555554%" stop-color="#fafaff" stop-opacity="1"></stop></linearGradient></defs><g transform="translate(960, 0)"><path d="M0 486C-61.7 477.9 -123.5 469.9 -186 449C-248.5 428.1 -311.8 394.4 -342.9 342.9C-374.1 291.5 -373.2 222.4 -391.7 162.3C-410.2 102.1 -448.1 51.1 -486 0L0 0Z" fill="#e5e3fe"></path><path d="M0 388.8C-49.4 382.4 -98.8 375.9 -148.8 359.2C-198.8 342.5 -249.4 315.5 -274.4 274.4C-299.3 233.2 -298.6 177.9 -313.4 129.8C-328.2 81.7 -358.5 40.9 -388.8 0L0 0Z" fill="#c0b5f8"></path><path d="M0 291.6C-37 286.8 -74.1 281.9 -111.6 269.4C-149.1 256.9 -187.1 236.6 -205.8 205.8C-224.5 174.9 -223.9 133.4 -235 97.4C-246.1 61.3 -268.9 30.6 -291.6 0L0 0Z" fill="#a285ec"></path><path d="M0 194.4C-24.7 191.2 -49.4 188 -74.4 179.6C-99.4 171.2 -124.7 157.8 -137.2 137.2C-149.7 116.6 -149.3 88.9 -156.7 64.9C-164.1 40.9 -179.2 20.4 -194.4 0L0 0Z" fill="#8b51db"></path><path d="M0 97.2C-12.3 95.6 -24.7 94 -37.2 89.8C-49.7 85.6 -62.4 78.9 -68.6 68.6C-74.8 58.3 -74.6 44.5 -78.3 32.5C-82 20.4 -89.6 10.2 -97.2 0L0 0Z" fill="#8231d0"></path></g><g transform="translate(0, 540)"><path d="M0 -486C67.5 -477.8 134.9 -469.7 179.9 -434.2C224.8 -398.8 247.1 -336 294.2 -294.2C341.2 -252.3 412.9 -231.5 449 -186C485.1 -140.5 485.5 -70.2 486 0L0 0Z" fill="#e5e3fe"></path><path d="M0 -388.8C54 -382.3 108 -375.8 143.9 -347.4C179.8 -319 197.7 -268.8 235.3 -235.3C273 -201.9 330.3 -185.2 359.2 -148.8C388.1 -112.4 388.4 -56.2 388.8 0L0 0Z" fill="#c0b5f8"></path><path d="M0 -291.6C40.5 -286.7 81 -281.8 107.9 -260.5C134.9 -239.3 148.3 -201.6 176.5 -176.5C204.7 -151.4 247.8 -138.9 269.4 -111.6C291.1 -84.3 291.3 -42.1 291.6 0L0 0Z" fill="#a285ec"></path><path d="M0 -194.4C27 -191.1 54 -187.9 71.9 -173.7C89.9 -159.5 98.8 -134.4 117.7 -117.7C136.5 -100.9 165.2 -92.6 179.6 -74.4C194 -56.2 194.2 -28.1 194.4 0L0 0Z" fill="#8b51db"></path><path d="M0 -97.2C13.5 -95.6 27 -93.9 36 -86.8C45 -79.8 49.4 -67.2 58.8 -58.8C68.2 -50.5 82.6 -46.3 89.8 -37.2C97 -28.1 97.1 -14 97.2 0L0 0Z" fill="#8231d0"></path></g></svg>