<svg width="884" height="723" viewBox="0 0 884 723" fill="none" xmlns="http://www.w3.org/2000/svg">
<path d="M30.2724 547.779V242.323L541.728 12.0974L541.972 318.876L30.2724 547.779Z" fill="url(#paint0_linear)"/>
<path d="M541.972 318.876L884 471.037L372.3 700.507L30.2724 547.779L541.972 318.876Z" fill="#586B73"/>
<path d="M536.357 342.315L719.7 423.026L269.033 625.277L85.6901 543.809L536.357 342.315Z" fill="#7E90A0"/>
<path d="M599.587 497.311L678.685 532.468L508.526 608.832L429.427 573.296L599.587 497.311Z" fill="#7E90A0"/>
<path d="M30.2724 242.323L0 229.092L510.723 0L541.728 12.0973L30.2724 242.323Z" fill="#7E90A0"/>
<path d="M30.2724 547.779L0 534.169V229.092L30.2724 242.323" fill="#7E90A0"/>
<path d="M884 471.037V492.018L371.812 723V700.507L884 471.037Z" fill="#7E90A0"/>
<path d="M371.812 723L0 561.199V534.169L371.812 700.507" fill="#7E90A0"/>
<path d="M141.035 486.188L524.127 311.991L415 72L31.9083 246.197L141.035 486.188Z" fill="url(#paint1_linear)"/>
<path d="M173.386 407.314C175.656 407.04 177.691 407.391 179.492 408.368C181.278 409.312 182.66 410.858 183.637 413.008C185.02 416.05 184.897 418.939 183.268 421.675C181.657 424.363 178.587 426.736 174.057 428.796L156.101 436.961L140.313 402.241L157.277 394.527C161.509 392.603 165.118 391.939 168.104 392.537C171.122 393.12 173.263 394.8 174.526 397.578C175.293 399.264 175.563 400.957 175.338 402.655C175.146 404.339 174.495 405.891 173.386 407.314ZM151.051 404.661L154.772 412.845L162.758 409.214C164.742 408.311 166.088 407.28 166.798 406.12C167.507 404.959 167.553 403.701 166.937 402.345C166.321 400.989 165.349 400.214 164.024 400.019C162.683 399.79 161.02 400.127 159.036 401.029L151.051 404.661ZM170.71 423.016C172.826 422.053 174.255 420.985 174.998 419.809C175.773 418.618 175.83 417.296 175.169 415.841C173.86 412.964 171.074 412.495 166.808 414.435L157.433 418.698L161.335 427.278L170.71 423.016ZM211.113 412.664C207.509 414.303 203.899 415.007 200.282 414.776C196.698 414.53 193.464 413.427 190.577 411.468C187.709 409.46 185.5 406.753 183.952 403.347C182.403 399.941 181.822 396.514 182.21 393.066C182.615 389.57 183.903 386.39 186.073 383.528C188.276 380.651 191.18 378.393 194.784 376.754C198.388 375.115 201.982 374.418 205.566 374.664C209.149 374.91 212.392 376.03 215.293 378.023C218.179 379.982 220.397 382.665 221.946 386.071C223.494 389.477 224.066 392.928 223.661 396.424C223.24 399.888 221.945 403.05 219.775 405.913C217.605 408.775 214.718 411.026 211.113 412.664ZM208.001 405.82C210.051 404.887 211.692 403.582 212.925 401.905C214.142 400.194 214.83 398.285 214.989 396.177C215.181 394.055 214.789 391.919 213.811 389.77C212.834 387.62 211.482 385.921 209.757 384.67C208.064 383.405 206.18 382.685 204.106 382.511C202.017 382.304 199.947 382.666 197.897 383.599C195.846 384.531 194.213 385.852 192.995 387.563C191.763 389.241 191.051 391.141 190.859 393.263C190.7 395.371 191.109 397.499 192.086 399.648C193.064 401.798 194.399 403.505 196.091 404.771C197.817 406.021 199.725 406.75 201.814 406.957C203.888 407.131 205.951 406.752 208.001 405.82ZM256.493 391.312L242.63 383.07L239.877 398.867L230.651 403.062L235.468 379.563L215.508 368.049L224.635 363.899L237.74 371.527L240.457 356.704L249.137 352.757L244.658 375.025L265.768 387.094L256.493 391.312ZM253.125 350.944L261.161 347.29L276.948 382.01L268.913 385.664L253.125 350.944ZM302.473 348.616C304.743 348.342 306.778 348.694 308.579 349.67C310.365 350.614 311.747 352.161 312.724 354.31C314.107 357.352 313.984 360.241 312.355 362.977C310.744 365.665 307.674 368.039 303.144 370.099L285.188 378.263L269.4 343.543L286.364 335.83C290.596 333.905 294.205 333.242 297.191 333.839C300.209 334.422 302.35 336.102 303.613 338.88C304.38 340.566 304.65 342.259 304.425 343.958C304.233 345.641 303.582 347.194 302.473 348.616ZM280.138 345.963L283.859 354.147L291.845 350.516C293.829 349.614 295.175 348.582 295.885 347.422C296.594 346.261 296.641 345.003 296.024 343.648C295.408 342.292 294.436 341.516 293.111 341.321C291.77 341.093 290.107 341.43 288.123 342.332L280.138 345.963ZM299.797 364.318C301.913 363.356 303.342 362.287 304.085 361.111C304.86 359.921 304.917 358.598 304.256 357.143C302.947 354.266 300.161 353.798 295.895 355.737L286.52 360L290.422 368.581L299.797 364.318ZM307.327 326.297L315.363 322.643L328.173 350.816L345.583 342.9L348.56 349.447L323.115 361.017L307.327 326.297ZM377.001 328.734L379.933 335.182L353.05 347.406L337.262 312.686L363.501 300.754L366.433 307.203L348.18 315.502L351.608 323.042L367.728 315.712L370.57 321.961L354.45 329.291L358.103 337.327L377.001 328.734Z" fill="white"/>
<g opacity="0.5">
<path opacity="0.5" d="M315.094 394.993C314.974 395.269 314.784 395.527 314.525 395.767C314.272 395.993 313.983 396.18 313.657 396.328C312.904 396.67 312.232 396.73 311.64 396.508C311.048 396.287 310.583 395.804 310.246 395.062L308.039 390.209L306.605 390.862L306.189 389.946L307.623 389.294L306.825 387.539L307.908 387.047L308.706 388.801L311.148 387.691L311.564 388.607L309.123 389.717L311.301 394.508C311.519 394.986 311.802 395.299 312.152 395.447C312.507 395.58 312.908 395.545 313.356 395.342C313.58 395.24 313.777 395.107 313.948 394.943C314.129 394.775 314.266 394.59 314.359 394.388L315.094 394.993ZM320.871 383.27L324.521 391.296L323.483 391.768L322.817 390.303C322.754 390.921 322.536 391.48 322.163 391.981C321.784 392.473 321.275 392.864 320.634 393.155C319.586 393.632 318.625 393.719 317.751 393.416C316.883 393.099 316.192 392.376 315.679 391.247L313.562 386.593L314.646 386.101L316.713 390.648C317.097 391.492 317.597 392.038 318.213 392.286C318.829 392.534 319.524 392.482 320.297 392.13C321.141 391.746 321.692 391.189 321.949 390.458C322.201 389.717 322.119 388.889 321.703 387.974L319.788 383.762L320.871 383.27ZM330.679 378.737C331.727 378.26 332.65 378.159 333.45 378.434C334.246 378.698 334.877 379.344 335.344 380.371L337.606 385.346L336.569 385.818L336 384.566C335.945 385.094 335.732 385.584 335.36 386.036C334.999 386.482 334.492 386.854 333.841 387.15C332.946 387.557 332.137 387.667 331.414 387.48C330.691 387.293 330.169 386.849 329.85 386.147C329.54 385.466 329.535 384.805 329.833 384.166C330.142 383.523 330.836 382.956 331.914 382.465L334.462 381.307L334.24 380.818C333.926 380.127 333.494 379.691 332.946 379.51C332.393 379.32 331.745 379.394 331.002 379.731C330.493 379.962 330.045 380.271 329.655 380.657C329.261 381.032 328.964 381.444 328.762 381.891L327.906 381.305C328.156 380.774 328.524 380.287 329.01 379.845C329.492 379.393 330.048 379.023 330.679 378.737ZM333.621 386.219C334.231 385.941 334.692 385.566 335.005 385.092C335.313 384.609 335.453 384.054 335.427 383.428L334.83 382.115L332.312 383.26C330.939 383.885 330.47 384.675 330.904 385.631C331.117 386.099 331.464 386.389 331.945 386.502C332.421 386.605 332.98 386.51 333.621 386.219ZM341.006 374.04C341.759 373.698 342.519 373.561 343.287 373.629C344.05 373.688 344.745 373.948 345.374 374.412C346.002 374.875 346.496 375.503 346.857 376.297C347.222 377.1 347.373 377.891 347.309 378.669C347.246 379.447 346.987 380.147 346.534 380.771C346.087 381.379 345.481 381.857 344.718 382.204C344.067 382.5 343.417 382.636 342.768 382.612C342.124 382.573 341.517 382.371 340.945 382.005L342.978 386.475L341.895 386.968L336.899 375.982L337.937 375.51L338.658 377.097C338.743 376.42 338.985 375.819 339.385 375.293C339.795 374.763 340.335 374.346 341.006 374.04ZM344.205 381.277C344.764 381.023 345.215 380.664 345.557 380.202C345.895 379.729 346.082 379.196 346.119 378.602C346.166 378.004 346.051 377.4 345.773 376.789C345.496 376.179 345.118 375.7 344.641 375.352C344.169 374.99 343.645 374.78 343.067 374.724C342.489 374.668 341.92 374.767 341.36 375.021C340.791 375.28 340.337 375.646 340 376.119C339.672 376.587 339.485 377.12 339.438 377.718C339.396 378.302 339.514 378.899 339.792 379.509C340.07 380.119 340.444 380.606 340.916 380.968C341.398 381.326 341.923 381.536 342.49 381.596C343.064 381.643 343.635 381.536 344.205 381.277ZM351.348 369.338C352.1 368.996 352.861 368.859 353.628 368.927C354.391 368.985 355.087 369.246 355.715 369.709C356.343 370.173 356.837 370.801 357.198 371.594C357.563 372.398 357.714 373.189 357.651 373.966C357.587 374.744 357.328 375.445 356.875 376.068C356.428 376.677 355.823 377.155 355.06 377.501C354.409 377.798 353.759 377.934 353.109 377.91C352.466 377.871 351.858 377.668 351.286 377.302L353.319 381.773L352.236 382.266L347.24 371.279L348.278 370.808L349 372.395C349.085 371.718 349.327 371.116 349.726 370.591C350.136 370.061 350.676 369.643 351.348 369.338ZM354.546 376.575C355.106 376.32 355.557 375.962 355.899 375.5C356.236 375.027 356.423 374.494 356.46 373.9C356.507 373.302 356.392 372.697 356.115 372.087C355.837 371.477 355.46 370.998 354.982 370.65C354.511 370.287 353.986 370.078 353.408 370.022C352.83 369.965 352.261 370.064 351.702 370.319C351.132 370.578 350.678 370.944 350.341 371.416C350.014 371.884 349.826 372.418 349.779 373.016C349.738 373.599 349.856 374.196 350.133 374.807C350.411 375.417 350.785 375.904 351.257 376.266C351.739 376.624 352.264 376.833 352.832 376.894C353.405 376.94 353.977 376.834 354.546 376.575ZM367.401 358.135L372.549 369.457L371.511 369.929L370.79 368.342C370.709 369.029 370.464 369.638 370.055 370.168C369.655 370.693 369.12 371.108 368.448 371.413C367.696 371.756 366.935 371.893 366.168 371.824C365.4 371.756 364.702 371.49 364.074 371.027C363.446 370.564 362.952 369.935 362.591 369.142C362.23 368.349 362.082 367.563 362.146 366.785C362.209 366.007 362.47 365.312 362.928 364.699C363.381 364.075 363.984 363.592 364.736 363.25C365.387 362.954 366.035 362.825 366.678 362.864C367.328 362.888 367.938 363.083 368.51 363.449L366.317 358.628L367.401 358.135ZM368.103 370.411C368.662 370.156 369.108 369.8 369.44 369.342C369.777 368.87 369.965 368.336 370.002 367.743C370.049 367.144 369.933 366.54 369.656 365.93C369.378 365.319 368.999 364.835 368.517 364.477C368.045 364.115 367.523 363.911 366.949 363.864C366.381 363.803 365.818 363.9 365.258 364.155C364.688 364.414 364.235 364.779 363.897 365.252C363.565 365.71 363.376 366.238 363.329 366.836C363.292 367.43 363.412 368.032 363.69 368.642C363.967 369.253 364.342 369.739 364.814 370.102C365.296 370.459 365.82 370.669 366.388 370.73C366.962 370.776 367.533 370.67 368.103 370.411ZM380.882 361.23L374.168 364.283C374.609 365.089 375.237 365.62 376.053 365.875C376.864 366.12 377.712 366.041 378.597 365.639C379.095 365.412 379.514 365.118 379.852 364.755C380.186 364.382 380.427 363.954 380.575 363.469L381.504 363.893C381.342 364.482 381.043 365.011 380.605 365.48C380.178 365.945 379.644 366.323 379.003 366.614C378.179 366.989 377.368 367.149 376.57 367.094C375.778 367.025 375.062 366.761 374.424 366.303C373.786 365.844 373.289 365.223 372.932 364.44C372.576 363.656 372.425 362.878 372.479 362.105C372.542 361.327 372.79 360.631 373.223 360.017C373.666 359.398 374.259 358.92 375.001 358.582C375.744 358.245 376.489 358.115 377.236 358.192C377.983 358.27 378.666 358.543 379.284 359.011C379.897 359.468 380.384 360.094 380.745 360.887L380.882 361.23ZM375.425 359.513C374.652 359.865 374.114 360.41 373.812 361.149C373.515 361.873 373.511 362.648 373.801 363.474L379.492 360.886C379.06 360.125 378.469 359.621 377.718 359.373C376.972 359.11 376.208 359.157 375.425 359.513ZM394.085 355.227L387.371 358.28C387.811 359.086 388.439 359.617 389.255 359.872C390.066 360.117 390.914 360.038 391.799 359.636C392.297 359.409 392.716 359.114 393.054 358.752C393.388 358.379 393.629 357.95 393.777 357.466L394.706 357.89C394.545 358.479 394.245 359.008 393.808 359.477C393.38 359.942 392.846 360.319 392.206 360.611C391.382 360.985 390.571 361.146 389.772 361.091C388.98 361.022 388.264 360.758 387.626 360.299C386.988 359.841 386.491 359.22 386.135 358.436C385.779 357.653 385.627 356.875 385.681 356.102C385.744 355.324 385.993 354.628 386.425 354.014C386.868 353.395 387.461 352.917 388.204 352.579C388.946 352.242 389.691 352.112 390.438 352.189C391.186 352.267 391.868 352.539 392.486 353.007C393.099 353.465 393.586 354.091 393.947 354.884L394.085 355.227ZM388.627 353.51C387.854 353.862 387.316 354.407 387.014 355.146C386.717 355.87 386.713 356.645 387.003 357.471L392.694 354.883C392.262 354.122 391.671 353.617 390.92 353.37C390.175 353.107 389.41 353.154 388.627 353.51ZM398.389 347.948C399.396 347.49 400.329 347.422 401.187 347.744C402.051 348.05 402.737 348.763 403.246 349.882L405.362 354.536L404.279 355.029L402.211 350.482C401.832 349.648 401.334 349.107 400.718 348.859C400.102 348.611 399.408 348.663 398.635 349.015C397.77 349.408 397.201 349.979 396.929 350.729C396.661 351.465 396.734 352.285 397.145 353.19L399.06 357.402L397.977 357.894L394.327 349.868L395.365 349.397L396.038 350.877C396.111 350.254 396.347 349.693 396.745 349.192C397.149 348.677 397.697 348.262 398.389 347.948ZM412.308 350.789C412.188 351.064 411.998 351.322 411.739 351.563C411.486 351.788 411.197 351.975 410.871 352.123C410.118 352.466 409.446 352.526 408.854 352.304C408.262 352.082 407.797 351.6 407.46 350.857L405.253 346.005L403.819 346.657L403.403 345.742L404.837 345.09L404.039 343.335L405.122 342.842L405.92 344.597L408.362 343.487L408.778 344.402L406.337 345.512L408.515 350.304C408.733 350.782 409.016 351.095 409.366 351.243C409.721 351.376 410.122 351.341 410.57 351.137C410.794 351.035 410.991 350.903 411.162 350.739C411.343 350.571 411.48 350.386 411.573 350.184L412.308 350.789ZM412.605 343.454C412.614 342.799 412.805 342.221 413.179 341.72C413.563 341.214 414.126 340.792 414.868 340.454L415.347 341.507L415.081 341.61C414.237 341.994 413.693 342.554 413.451 343.29C413.209 344.026 413.301 344.862 413.726 345.798L415.586 349.888L414.502 350.38L410.853 342.354L411.89 341.882L412.605 343.454ZM425.749 340.828L419.035 343.881C419.476 344.688 420.104 345.218 420.919 345.474C421.73 345.718 422.579 345.64 423.464 345.237C423.962 345.011 424.38 344.716 424.719 344.353C425.053 343.981 425.294 343.552 425.441 343.067L426.371 343.492C426.209 344.081 425.91 344.61 425.472 345.079C425.045 345.543 424.511 345.921 423.87 346.212C423.046 346.587 422.235 346.747 421.437 346.693C420.644 346.624 419.929 346.36 419.291 345.901C418.653 345.442 418.155 344.821 417.799 344.038C417.443 343.255 417.292 342.477 417.345 341.703C417.409 340.926 417.657 340.23 418.09 339.616C418.533 338.997 419.126 338.519 419.868 338.181C420.611 337.843 421.356 337.713 422.103 337.791C422.85 337.868 423.533 338.141 424.151 338.609C424.764 339.067 425.251 339.692 425.612 340.486L425.749 340.828ZM420.291 339.112C419.518 339.463 418.981 340.009 418.678 340.748C418.382 341.472 418.378 342.247 418.668 343.073L424.359 340.485C423.927 339.723 423.336 339.219 422.585 338.971C421.839 338.709 421.075 338.756 420.291 339.112ZM430.054 333.55C431.061 333.092 431.993 333.024 432.852 333.345C433.715 333.652 434.402 334.365 434.911 335.484L437.027 340.138L435.943 340.631L433.876 336.083C433.496 335.249 432.999 334.708 432.383 334.461C431.767 334.213 431.072 334.265 430.299 334.616C429.435 335.009 428.866 335.581 428.593 336.331C428.326 337.066 428.398 337.887 428.81 338.792L430.725 343.003L429.642 343.496L425.992 335.47L427.03 334.998L427.703 336.478C427.776 335.856 428.011 335.295 428.41 334.794C428.814 334.279 429.362 333.864 430.054 333.55ZM443.313 337.372C442.54 337.723 441.765 337.867 440.987 337.803C440.204 337.729 439.494 337.463 438.856 337.005C438.218 336.546 437.72 335.925 437.364 335.142C437.008 334.358 436.867 333.576 436.941 332.793C437.015 332.011 437.283 331.306 437.747 330.678C438.21 330.05 438.828 329.56 439.601 329.208C440.374 328.857 441.15 328.713 441.927 328.776C442.705 328.84 443.408 329.104 444.036 329.567C444.674 330.025 445.171 330.646 445.528 331.43C445.884 332.213 446.025 332.996 445.951 333.778C445.887 334.556 445.626 335.264 445.168 335.902C444.704 336.53 444.086 337.02 443.313 337.372ZM442.876 336.41C443.446 336.151 443.896 335.793 444.228 335.335C444.566 334.862 444.753 334.329 444.79 333.735C444.827 333.142 444.707 332.54 444.429 331.929C444.151 331.319 443.777 330.833 443.305 330.47C442.833 330.108 442.311 329.903 441.737 329.857C441.17 329.796 440.601 329.895 440.031 330.154C439.462 330.413 439.008 330.779 438.671 331.252C438.339 331.71 438.149 332.238 438.102 332.836C438.065 333.43 438.185 334.032 438.463 334.642C438.74 335.252 439.115 335.739 439.587 336.101C440.069 336.459 440.594 336.669 441.161 336.73C441.735 336.776 442.306 336.669 442.876 336.41Z" fill="#50DAFF"/>
</g>
<path d="M271.148 201.221C271.148 201.221 300.498 189.036 309.882 214.269C317.278 234.171 289.815 277.573 283.385 292.489C276.967 307.406 281.642 317.688 281.642 317.688C281.642 317.688 284.196 303.703 306.868 288.226C312.604 284.31 321.304 281.123 329.601 278.119C340.981 273.999 351.601 270.225 352.765 265.389C353.082 262.274 349.538 258.599 348.907 255.859C348.286 253.12 351.779 250.328 350.774 248.924C349.761 247.523 346.538 248.058 346.538 248.058C346.538 248.058 350.246 244.69 348.334 243.469C346.411 242.246 344.923 240.522 344.923 240.522C344.923 240.522 352.844 234.334 351.282 232.357C349.718 230.376 328.914 223.085 327.043 218.972C325.173 214.86 325.08 205.727 313.208 199.957C295.213 191.204 275.977 199.01 271.925 200.853C271.419 201.084 271.148 201.221 271.148 201.221" fill="url(#paint2_linear)"/>
<path d="M246.318 249.086C245.986 249.237 245.793 249.528 245.888 249.737L248.721 255.967L238.776 260.489C238.443 260.64 238.251 260.931 238.346 261.139L241.798 268.731C241.892 268.939 242.238 268.985 242.57 268.834L252.515 264.312L255.348 270.542C255.443 270.75 255.789 270.796 256.121 270.645L268.24 265.135C268.572 264.984 268.764 264.693 268.669 264.485L265.836 258.255L275.781 253.732C276.114 253.581 276.306 253.29 276.212 253.082L272.76 245.491C272.665 245.282 272.319 245.236 271.987 245.387L262.042 249.91L259.209 243.679C259.114 243.471 258.769 243.425 258.437 243.576L246.318 249.086Z" fill="url(#paint3_linear)"/>
<path d="M224.697 248.124C224.542 248.194 224.452 248.33 224.496 248.427L225.818 251.333L221.179 253.443C221.023 253.514 220.934 253.65 220.978 253.746L222.589 257.289C222.633 257.385 222.794 257.407 222.949 257.336L227.588 255.227L228.91 258.134C228.954 258.231 229.116 258.252 229.27 258.182L234.925 255.611C235.08 255.54 235.17 255.405 235.125 255.308L233.804 252.401L238.444 250.291C238.598 250.221 238.688 250.085 238.644 249.989L237.033 246.446C236.989 246.349 236.828 246.327 236.673 246.397L232.033 248.507L230.712 245.601C230.668 245.504 230.506 245.482 230.351 245.553L224.697 248.124Z" fill="url(#paint4_linear)"/>
<path d="M278.232 237.39C278.134 237.435 278.076 237.522 278.104 237.584L278.949 239.442L275.984 240.79C275.885 240.835 275.827 240.922 275.856 240.984L276.885 243.248C276.913 243.31 277.017 243.324 277.116 243.279L280.081 241.931L280.925 243.788C280.954 243.85 281.058 243.863 281.156 243.819L284.77 242.176C284.869 242.13 284.926 242.044 284.898 241.982L284.053 240.124L287.019 238.776C287.118 238.731 287.176 238.644 287.148 238.582L286.118 236.318C286.09 236.255 285.987 236.242 285.888 236.287L282.922 237.635L282.077 235.777C282.049 235.716 281.946 235.701 281.847 235.747L278.232 237.39Z" fill="url(#paint5_linear)"/>
<path d="M259.536 233.297C259.479 233.323 259.446 233.373 259.462 233.409L259.949 234.479L258.24 235.257C258.183 235.283 258.149 235.333 258.166 235.369L258.759 236.674C258.775 236.709 258.835 236.717 258.892 236.691L260.601 235.914L261.088 236.985C261.104 237.021 261.164 237.028 261.221 237.002L263.304 236.055C263.361 236.029 263.395 235.979 263.378 235.943L262.891 234.872L264.601 234.095C264.657 234.069 264.691 234.019 264.675 233.984L264.081 232.679C264.065 232.643 264.005 232.635 263.949 232.661L262.239 233.438L261.752 232.367C261.736 232.331 261.676 232.324 261.619 232.35L259.536 233.297Z" fill="url(#paint6_linear)"/>
<path d="M243.144 276.546C243.076 276.577 243.036 276.637 243.055 276.68L243.64 277.966L241.588 278.899C241.519 278.931 241.479 278.991 241.499 279.033L242.212 280.601C242.231 280.643 242.302 280.653 242.371 280.622L244.424 279.689L245.008 280.975C245.028 281.017 245.1 281.027 245.168 280.996L247.669 279.858C247.738 279.827 247.778 279.767 247.758 279.724L247.173 278.438L249.226 277.505C249.294 277.474 249.334 277.413 249.315 277.371L248.602 275.804C248.583 275.761 248.511 275.751 248.443 275.782L246.39 276.716L245.805 275.429C245.786 275.387 245.714 275.377 245.646 275.408L243.144 276.546Z" fill="url(#paint7_linear)"/>
<path d="M236.16 322.791C247.109 324.023 262.107 318.63 271.915 317.812L271.912 317.807C271.912 317.807 258.269 301.131 231.062 300.057C231.816 299.951 256.075 296.631 275.61 316.095C275.668 316.155 275.733 316.212 275.791 316.273C274.124 309.735 264.666 285.038 218.493 300.077C218.493 300.077 211.903 320.06 236.16 322.791" fill="url(#paint8_linear)"/>
<path d="M271.987 278.855C268.388 285.12 273.526 292.17 276.122 295.134C278.336 280.95 287.47 271.003 288.064 270.372C279.519 282.373 278.599 290.174 277.485 296.567C279.705 286.202 294.211 262.391 294.211 262.391C291.218 265.613 276.683 270.671 271.987 278.855" fill="url(#paint9_linear)"/>
<path d="M309.882 214.269C317.278 234.171 289.815 277.573 283.385 292.489C276.967 307.406 281.642 317.688 281.642 317.688C277.117 288.68 327.814 242.098 317.342 213.972C306.863 185.85 271.148 201.221 271.148 201.221C271.148 201.221 300.498 189.036 309.882 214.269" fill="url(#paint10_linear)"/>
<path d="M259.13 207.436C256.751 208.673 254.503 210.112 252.414 211.657C248.226 214.753 244.807 218.299 242.162 221.89C240.83 223.687 239.678 225.507 238.684 227.33C238.359 227.943 238.054 228.56 237.761 229.177C237.096 229.237 236.424 229.307 235.749 229.391C233.548 229.648 231.314 230.005 229.066 230.463C224.576 231.369 219.992 232.654 215.433 234.391C213.159 235.27 210.904 236.277 208.69 237.377C206.483 238.492 204.334 239.73 202.268 241.048C200.215 242.391 198.25 243.818 196.412 245.33C195.945 245.697 195.479 246.132 195.01 246.538C194.565 246.933 194.037 247.384 193.72 247.708L192.624 248.759L192.238 249.132L191.951 249.437L191.371 250.035C188.301 253.255 185.723 256.735 183.955 260.275C182.207 263.812 181.282 267.397 181.306 270.717C181.295 274.048 182.276 277.076 183.924 279.696C184.753 281 185.749 282.209 186.886 283.318C188.039 284.413 189.33 285.402 190.733 286.29C193.544 288.07 196.784 289.445 200.327 290.421C203.864 291.406 207.65 292.042 211.613 292.33C215.569 292.622 219.662 292.629 223.835 292.332C225.916 292.205 228.117 291.948 230.017 291.773C231.985 291.567 233.926 291.416 235.863 291.298C239.725 291.081 243.529 291.039 247.206 291.221C250.887 291.409 254.444 291.827 257.779 292.562C261.129 293.265 264.292 294.254 267.056 295.627C269.826 296.992 272.345 298.657 274.005 300.892C273.525 299.597 272.684 298.465 271.735 297.402C270.77 296.346 269.677 295.36 268.421 294.491C265.941 292.741 262.986 291.336 259.75 290.232C256.481 289.163 252.929 288.408 249.219 287.893C245.514 287.369 241.619 287.123 237.631 287.107C235.638 287.101 233.624 287.117 231.588 287.212C229.49 287.303 227.667 287.388 225.815 287.387C222.096 287.396 218.488 287.194 215.095 286.721C211.705 286.239 208.485 285.539 205.59 284.528C202.7 283.509 200.092 282.239 197.923 280.67C195.754 279.099 194.027 277.242 192.848 275.147C191.67 273.059 191.106 270.709 191.17 268.236C191.274 263.281 194.193 257.81 199.016 252.801L199.476 252.331L199.678 252.121L199.728 252.079L199.867 251.948L200.963 250.898C201.354 250.515 201.625 250.305 201.943 250.024C202.265 249.753 202.534 249.495 202.891 249.215C204.267 248.08 205.73 247.005 207.268 245.989C208.816 244.994 210.427 244.05 212.115 243.19C213.809 242.339 215.556 241.564 217.33 240.849C220.905 239.435 224.651 238.327 228.401 237.515C230.276 237.109 232.157 236.782 234.018 236.518C234.946 236.382 235.875 236.27 236.785 236.178C237.24 236.133 237.689 236.097 238.129 236.064L238.783 236.021L239.325 235.991L244.791 235.708L245.564 231.92C245.576 231.859 245.643 231.636 245.692 231.483L245.866 230.951C245.99 230.591 246.121 230.227 246.269 229.855C246.558 229.117 246.899 228.365 247.254 227.621C247.972 226.129 248.819 224.639 249.809 223.178C251.781 220.264 254.261 217.462 257.268 215.015C258.772 213.791 260.41 212.668 262.15 211.641C263.89 210.608 265.744 209.697 267.672 208.907C269.598 208.112 271.599 207.437 273.638 206.87C274.662 206.596 275.687 206.323 276.721 206.114C277.02 206.052 277.257 206.006 277.485 205.965C277.722 205.919 277.948 205.872 278.198 205.833C278.694 205.75 279.194 205.672 279.69 205.607C281.665 205.335 283.594 205.241 285.441 205.318C287.283 205.405 289.038 205.674 290.69 206.102C293.999 206.955 296.797 208.512 299.031 210.487C301.254 212.478 303.043 214.823 304.26 217.458C304.869 218.775 305.377 220.151 305.713 221.587C305.903 222.443 306.051 223.313 306.098 224.222C306.134 224.845 306.127 225.481 306.059 226.138C306.612 224.479 306.742 222.85 306.728 221.274C306.713 219.693 306.518 218.155 306.153 216.678C305.409 213.734 304.162 210.926 302.135 208.516C300.128 206.104 297.406 204.016 293.817 202.658C290.25 201.283 285.771 200.752 281.001 201.109C280.405 201.15 279.801 201.214 279.199 201.283C278.896 201.315 278.571 201.363 278.256 201.408C277.936 201.448 277.62 201.492 277.362 201.535C276.179 201.72 274.974 201.945 273.77 202.194C271.351 202.711 268.883 203.38 266.411 204.262C264.901 204.797 263.387 205.405 261.897 206.083C260.963 206.508 260.038 206.959 259.13 207.436" fill="url(#paint11_linear)"/>
<path d="M240.528 232.085C240.528 232.085 217.6 232.755 200.166 246.681C182.731 260.608 182.713 275.342 196.353 284.38C208.16 292.205 231.544 288.456 249.036 289.464C266.247 290.455 274.005 300.892 274.005 300.892C273.525 299.597 272.684 298.465 271.735 297.402C270.77 296.346 269.677 295.36 268.421 294.491C265.941 292.741 262.986 291.336 259.75 290.232C256.481 289.163 252.929 288.408 249.219 287.893C245.514 287.369 241.62 287.123 237.631 287.107C235.638 287.101 233.624 287.117 231.588 287.212C229.49 287.303 227.667 287.388 225.815 287.387C222.096 287.396 218.488 287.194 215.095 286.721C211.705 286.239 208.485 285.539 205.59 284.528C202.7 283.509 200.092 282.239 197.923 280.67C195.754 279.099 194.027 277.242 192.848 275.147C191.67 273.059 191.106 270.709 191.17 268.236C191.274 263.281 194.193 257.81 199.016 252.801L199.476 252.331L199.678 252.121L199.728 252.079L199.867 251.948L200.963 250.898C201.354 250.515 201.625 250.305 201.943 250.024C202.266 249.753 202.534 249.495 202.891 249.215C204.267 248.08 205.73 247.005 207.268 245.989C208.816 244.994 210.427 244.05 212.115 243.19C213.809 242.339 215.556 241.563 217.33 240.849C220.905 239.435 224.651 238.327 228.402 237.515C230.276 237.109 232.157 236.782 234.018 236.518C234.946 236.382 235.876 236.27 236.785 236.178C237.24 236.133 237.689 236.097 238.129 236.064L238.783 236.021L239.325 235.991L244.791 235.708L245.564 231.92C245.576 231.859 245.643 231.636 245.692 231.483L245.866 230.951C245.99 230.591 246.121 230.227 246.269 229.855C246.558 229.117 246.899 228.365 247.254 227.621C247.972 226.129 248.819 224.639 249.809 223.178C251.781 220.264 254.261 217.462 257.268 215.015C258.772 213.791 260.41 212.668 262.15 211.641C263.89 210.608 265.744 209.697 267.672 208.907C269.598 208.112 271.599 207.437 273.638 206.87C274.662 206.596 275.687 206.323 276.721 206.114C277.02 206.052 277.257 206.006 277.485 205.965C277.722 205.919 277.948 205.872 278.198 205.833C278.694 205.75 279.194 205.672 279.69 205.607C281.665 205.335 283.594 205.241 285.441 205.318C287.283 205.405 289.038 205.674 290.69 206.102C293.999 206.955 296.797 208.512 299.031 210.487C301.254 212.478 303.043 214.823 304.26 217.458C304.87 218.775 305.377 220.151 305.713 221.587C305.903 222.443 306.051 223.313 306.098 224.222C305.974 203.954 285.539 198.543 265.81 207.012C265.436 207.172 265.069 207.334 264.705 207.499C245.294 216.327 240.528 232.085 240.528 232.085" fill="url(#paint12_linear)"/>
<defs>
<linearGradient id="paint0_linear" x1="286.122" y1="12.0974" x2="286.122" y2="547.779" gradientUnits="userSpaceOnUse">
<stop offset="0.9993" stop-color="#160667"/>
<stop offset="0.9994" stop-color="#1A0870" stop-opacity="0.780822"/>
<stop offset="0.9995" stop-color="#1A0870"/>
<stop offset="0.9996" stop-color="#1A0870"/>
<stop offset="0.9997" stop-color="#1A0870" stop-opacity="0"/>
<stop offset="0.9998" stop-color="#1A0870"/>
</linearGradient>
<linearGradient id="paint1_linear" x1="35.3253" y1="247.663" x2="405.441" y2="490.298" gradientUnits="userSpaceOnUse">
<stop stop-color="#1A0870"/>
<stop offset="0.239029" stop-color="#1A0870"/>
<stop offset="1" stop-color="#1A085C"/>
</linearGradient>
<linearGradient id="paint2_linear" x1="227.754" y1="248.496" x2="308.809" y2="302.11" gradientUnits="userSpaceOnUse">
<stop stop-color="#14DBE4"/>
<stop offset="0.019127" stop-color="#2EDDE5"/>
<stop offset="1" stop-color="#6D45FF"/>
</linearGradient>
<linearGradient id="paint3_linear" x1="171.373" y1="245.627" x2="315.261" y2="340.802" gradientUnits="userSpaceOnUse">
<stop stop-color="#6D45FF"/>
<stop offset="0.980873" stop-color="#2EDDE5"/>
<stop offset="1" stop-color="#2EDDE5"/>
</linearGradient>
<linearGradient id="paint4_linear" x1="172.328" y1="244.184" x2="316.216" y2="339.358" gradientUnits="userSpaceOnUse">
<stop stop-color="#6D45FF"/>
<stop offset="0.980873" stop-color="#2EDDE5"/>
<stop offset="1" stop-color="#2EDDE5"/>
</linearGradient>
<linearGradient id="paint5_linear" x1="183.871" y1="226.732" x2="327.759" y2="321.907" gradientUnits="userSpaceOnUse">
<stop stop-color="#6D45FF"/>
<stop offset="0.980873" stop-color="#2EDDE5"/>
<stop offset="1" stop-color="#2EDDE5"/>
</linearGradient>
<linearGradient id="paint6_linear" x1="185.344" y1="224.507" x2="329.232" y2="319.681" gradientUnits="userSpaceOnUse">
<stop stop-color="#6D45FF"/>
<stop offset="0.980873" stop-color="#2EDDE5"/>
<stop offset="1" stop-color="#2EDDE5"/>
</linearGradient>
<linearGradient id="paint7_linear" x1="157.591" y1="266.464" x2="301.479" y2="361.639" gradientUnits="userSpaceOnUse">
<stop stop-color="#6D45FF"/>
<stop offset="0.980873" stop-color="#2EDDE5"/>
<stop offset="1" stop-color="#2EDDE5"/>
</linearGradient>
<linearGradient id="paint8_linear" x1="152.045" y1="297.024" x2="272.996" y2="377.027" gradientUnits="userSpaceOnUse">
<stop stop-color="#6DFF97"/>
<stop offset="0.980873" stop-color="#2EDDE5"/>
<stop offset="1" stop-color="#2EDDE5"/>
</linearGradient>
<linearGradient id="paint9_linear" x1="173.576" y1="264.472" x2="294.527" y2="344.475" gradientUnits="userSpaceOnUse">
<stop stop-color="#6DFF97"/>
<stop offset="0.980873" stop-color="#2EDDE5"/>
<stop offset="1" stop-color="#2EDDE5"/>
</linearGradient>
<linearGradient id="paint10_linear" x1="187.191" y1="243.889" x2="308.142" y2="323.892" gradientUnits="userSpaceOnUse">
<stop stop-color="#6DFF97"/>
<stop offset="0.980873" stop-color="#2EDDE5"/>
<stop offset="1" stop-color="#2EDDE5"/>
</linearGradient>
<linearGradient id="paint11_linear" x1="247.375" y1="224.273" x2="257.512" y2="281.536" gradientUnits="userSpaceOnUse">
<stop stop-color="#FF9AFF"/>
<stop offset="0.980873" stop-color="#FF00FF"/>
<stop offset="1" stop-color="#FF00FF"/>
</linearGradient>
<linearGradient id="paint12_linear" x1="189.764" y1="239.998" x2="310.715" y2="320.001" gradientUnits="userSpaceOnUse">
<stop stop-color="#6D45FF"/>
<stop offset="0.980873" stop-color="#F015FF"/>
<stop offset="1" stop-color="#F015FF"/>
</linearGradient>
</defs>
</svg>
