<svg xmlns="http://www.w3.org/2000/svg" xmlns:xlink="http://www.w3.org/1999/xlink" viewBox="0 0 2037 2454"><defs><style>.cls-1,.cls-34{fill:none;}.cls-2{isolation:isolate;}.cls-3{fill:#333343;}.cls-36,.cls-39,.cls-4,.cls-50,.cls-83,.cls-85,.cls-89{fill:#fff;}.cls-5{fill:#3e3d51;}.cls-6{font-size:30.81px;font-family:CenturyGothic-Bold, Century Gothic;}.cls-36,.cls-6{font-weight:700;}.cls-7,.cls-98{font-size:28px;}.cls-7{fill:#300c0c;letter-spacing:0em;}.cls-11,.cls-50,.cls-57,.cls-7,.cls-85,.cls-89{font-family:Montserrat-SemiBold, Montserrat;}.cls-11,.cls-50,.cls-57,.cls-7,.cls-85,.cls-89,.cls-92{font-weight:600;}.cls-8{letter-spacing:0em;}.cls-9{letter-spacing:0em;}.cls-10{letter-spacing:0em;}.cls-11{font-size:34.96px;}.cls-12{letter-spacing:0.01em;}.cls-13,.cls-14,.cls-15,.cls-17,.cls-18,.cls-21,.cls-33,.cls-53,.cls-60,.cls-61{fill:#939393;}.cls-13,.cls-14,.cls-15,.cls-17,.cls-18,.cls-21{font-size:18.65px;}.cls-13{letter-spacing:0em;}.cls-15{letter-spacing:-0.01em;}.cls-16{letter-spacing:0em;}.cls-17{letter-spacing:-0.02em;}.cls-18{letter-spacing:0em;}.cls-19{letter-spacing:-0.01em;}.cls-20{letter-spacing:-0.01em;}.cls-21{letter-spacing:-0.02em;}.cls-22{clip-path:url(#clip-path);}.cls-23{fill:#ffae94;}.cls-24{fill:#ea5f4a;}.cls-25{fill:#8e00c9;}.cls-26{fill:#c5f;}.cls-27{fill:#26323b;}.cls-28{fill:#ff9680;}.cls-29{fill:#152128;}.cls-30{fill:#ffc23f;}.cls-31{fill:#f9a715;}.cls-32{fill:#ea940a;}.cls-34{stroke:#939393;stroke-linecap:round;stroke-miterlimit:10;stroke-width:0.5px;}.cls-35,.cls-64{mix-blend-mode:multiply;}.cls-35{fill:url(#linear-gradient);}.cls-36{font-size:22.11px;font-family:Montserrat-BoldItalic, Montserrat;font-style:italic;letter-spacing:0.07em;}.cls-37{letter-spacing:0.07em;}.cls-38{opacity:0.6;}.cls-39{font-size:14.65px;letter-spacing:0.06em;}.cls-39,.cls-83{font-family:Montserrat-Light, Montserrat;font-weight:300;}.cls-40{letter-spacing:0.05em;}.cls-41{letter-spacing:0.05em;}.cls-42{letter-spacing:0.05em;}.cls-43{letter-spacing:0.06em;}.cls-44{letter-spacing:0.06em;}.cls-45{letter-spacing:0.05em;}.cls-46{letter-spacing:0.05em;}.cls-47,.cls-99{font-family:TheBoldFont, The Bold Font;}.cls-47{font-weight:400;}.cls-48{opacity:0.5;fill:url(#linear-gradient-2);}.cls-49{fill:url(#linear-gradient-3);}.cls-50{font-size:35.33px;letter-spacing:0.07em;}.cls-51{letter-spacing:0.1em;}.cls-52{fill:#f9fafc;}.cls-53{font-size:11px;font-family:Montserrat-Medium, Montserrat;font-weight:500;}.cls-54{letter-spacing:-0.01em;}.cls-55{letter-spacing:-0.01em;}.cls-56{letter-spacing:0em;}.cls-57{font-size:25.54px;}.cls-58{letter-spacing:0em;}.cls-59{letter-spacing:0em;}.cls-60,.cls-61{font-size:13.62px;}.cls-60{letter-spacing:-0.02em;}.cls-62{letter-spacing:-0.01em;}.cls-63,.cls-64{fill:#f7c3cd;}.cls-64{opacity:0.2;}.cls-65{fill:#e5a1af;}.cls-66{fill:#9ffaff;}.cls-67{fill:#f4abba;}.cls-68{fill:#392054;}.cls-69{fill:#493262;}.cls-70{fill:#5ae1ec;}.cls-71{fill:#eadcff;}.cls-72{fill:url(#Degradado_sin_nombre_2);}.cls-73{fill:url(#Degradado_sin_nombre_7);}.cls-74{fill:url(#Degradado_sin_nombre_7-2);}.cls-75{fill:url(#Degradado_sin_nombre_7-3);}.cls-76{fill:url(#Degradado_sin_nombre_7-4);}.cls-77{fill:url(#Degradado_sin_nombre_7-5);}.cls-78{fill:url(#Degradado_sin_nombre_10);}.cls-79{fill:url(#Degradado_sin_nombre_10-2);}.cls-80{fill:url(#Degradado_sin_nombre_10-3);}.cls-81{fill:url(#Degradado_sin_nombre_11);}.cls-82{fill:url(#Degradado_sin_nombre_12);}.cls-83{font-size:39.69px;}.cls-84{letter-spacing:-0.01em;}.cls-85{font-size:67.83px;}.cls-86{letter-spacing:-0.02em;}.cls-87{letter-spacing:0em;}.cls-88{letter-spacing:-0.01em;}.cls-89{font-size:66.29px;}.cls-90{letter-spacing:-0.01em;}.cls-91{letter-spacing:0em;}.cls-92{font-size:88.6px;fill:#4b4a4b;font-family:FiraSans-SemiBold, FiraSans SemiBold;letter-spacing:0.03em;}.cls-93{letter-spacing:0.04em;}.cls-94{letter-spacing:0.04em;}.cls-95{letter-spacing:0.05em;}.cls-96{letter-spacing:0.05em;}.cls-97{letter-spacing:0.04em;}.cls-98{font-family:MyriadPro-Regular, Myriad Pro;}.cls-99{font-size:34px;letter-spacing:0em;}</style><clipPath id="clip-path"><rect class="cls-1" x="600" y="501" width="561" height="704" rx="9.37"/></clipPath><linearGradient id="linear-gradient" x1="886.5" y1="1562" x2="886.5" y2="1366" gradientUnits="userSpaceOnUse"><stop offset="0" stop-color="#6144ae"/><stop offset="0.99" stop-color="#9b2fda"/></linearGradient><linearGradient id="linear-gradient-2" x1="888.63" y1="1500.55" x2="888.63" y2="1507.27" gradientUnits="userSpaceOnUse"><stop offset="0" stop-color="#00d4c1"/><stop offset="0.71" stop-color="#03b5c4"/></linearGradient><linearGradient id="linear-gradient-3" x1="729.99" y1="1500.54" x2="729.99" y2="1507.27" gradientUnits="userSpaceOnUse"><stop offset="0" stop-color="#80fff4"/><stop offset="0.71" stop-color="#7be6ef"/></linearGradient><linearGradient id="Degradado_sin_nombre_2" x1="-718.36" y1="1546.08" x2="-717.7" y2="1546.08" gradientTransform="matrix(144.99, 144.99, 144.99, -144.99, -119190.97, 328792.16)" gradientUnits="userSpaceOnUse"><stop offset="0" stop-color="#2edde5"/><stop offset="0.02" stop-color="#2edde5"/><stop offset="1" stop-color="#6d45ff"/></linearGradient><linearGradient id="Degradado_sin_nombre_7" x1="-719.87" y1="1543.87" x2="-719.19" y2="1543.87" gradientTransform="matrix(257.39, 257.39, 257.39, -257.39, -211323.64, 583081.22)" gradientUnits="userSpaceOnUse"><stop offset="0" stop-color="#6d45ff"/><stop offset="0.98" stop-color="#2edde5"/><stop offset="1" stop-color="#2edde5"/></linearGradient><linearGradient id="Degradado_sin_nombre_7-2" x1="-719.86" y1="1543.86" x2="-719.19" y2="1543.86" gradientTransform="matrix(257.39, 257.39, 257.39, -257.39, -211321.31, 583078.89)" xlink:href="#Degradado_sin_nombre_7"/><linearGradient id="Degradado_sin_nombre_7-3" x1="-719.86" y1="1543.83" x2="-719.19" y2="1543.83" gradientTransform="matrix(257.39, 257.39, 257.39, -257.39, -211293.22, 583050.8)" xlink:href="#Degradado_sin_nombre_7"/><linearGradient id="Degradado_sin_nombre_7-4" x1="-719.86" y1="1543.82" x2="-719.18" y2="1543.82" gradientTransform="matrix(257.39, 257.39, 257.39, -257.39, -211289.64, 583047.22)" xlink:href="#Degradado_sin_nombre_7"/><linearGradient id="Degradado_sin_nombre_7-5" x1="-719.87" y1="1543.91" x2="-719.19" y2="1543.91" gradientTransform="matrix(257.39, 257.39, 257.39, -257.39, -211357.17, 583114.76)" xlink:href="#Degradado_sin_nombre_7"/><linearGradient id="Degradado_sin_nombre_10" x1="-719.49" y1="1544.54" x2="-718.82" y2="1544.54" gradientTransform="matrix(216.36, 216.36, 216.36, -216.36, -177781.05, 490326.78)" gradientUnits="userSpaceOnUse"><stop offset="0" stop-color="#6dff97"/><stop offset="0.98" stop-color="#2edde5"/><stop offset="1" stop-color="#2edde5"/></linearGradient><linearGradient id="Degradado_sin_nombre_10-2" x1="-719.47" y1="1544.46" x2="-718.82" y2="1544.46" gradientTransform="matrix(216.36, 216.36, 216.36, -216.36, -177728.66, 490274.39)" xlink:href="#Degradado_sin_nombre_10"/><linearGradient id="Degradado_sin_nombre_10-3" x1="-719.47" y1="1544.41" x2="-718.83" y2="1544.41" gradientTransform="matrix(216.36, 216.36, 216.36, -216.36, -177695.53, 490241.26)" xlink:href="#Degradado_sin_nombre_10"/><linearGradient id="Degradado_sin_nombre_11" x1="-726.67" y1="1548.69" x2="-726.02" y2="1548.69" gradientTransform="matrix(-53.32, 129.96, 129.96, 53.32, -239156.78, 12305.65)" gradientUnits="userSpaceOnUse"><stop offset="0" stop-color="#ff9aff"/><stop offset="0.98" stop-color="#f0f"/><stop offset="1" stop-color="#f0f"/></linearGradient><linearGradient id="Degradado_sin_nombre_12" x1="-719.48" y1="1544.4" x2="-718.82" y2="1544.4" gradientTransform="matrix(216.36, 216.36, 216.36, -216.36, -177689.26, 490234.99)" gradientUnits="userSpaceOnUse"><stop offset="0" stop-color="#6d45ff"/><stop offset="0.98" stop-color="#f015ff"/><stop offset="1" stop-color="#f015ff"/></linearGradient></defs><g class="cls-2"><g id="Capa_2" data-name="Capa 2"><g id="Layer_1" data-name="Layer 1"><path class="cls-3" d="M1184.09,502.56h-1.2V376A75.94,75.94,0,0,0,1107,300H647a75.94,75.94,0,0,0-75.89,76V502.56h-1.2a9.92,9.92,0,0,0-9.91,9.92V600a9.92,9.92,0,0,0,9.91,9.92h1.2v20.88h-1.2a9.92,9.92,0,0,0-9.91,9.92v87.56a9.92,9.92,0,0,0,9.91,9.92h1.2V1505A75.94,75.94,0,0,0,647,1581h460a75.94,75.94,0,0,0,75.89-76V663.66h1.2a9.92,9.92,0,0,0,9.91-9.92V512.48A9.92,9.92,0,0,0,1184.09,502.56Z"/><rect class="cls-4" x="593.2" y="318.79" width="567.61" height="1243.41" rx="103.44"/><path class="cls-5" d="M691.88,399.53H655.53a1.5,1.5,0,0,1,0-3h36.35a1.5,1.5,0,0,1,0,3Z"/><path class="cls-5" d="M691.88,413H655.53a1.49,1.49,0,0,1,0-3h36.35a1.49,1.49,0,1,1,0,3Z"/><path class="cls-5" d="M691.88,426.38H655.53a1.5,1.5,0,0,1,0-3h36.35a1.5,1.5,0,0,1,0,3Z"/><path class="cls-5" d="M1071.55,439.9h-69.91a28.44,28.44,0,0,1,0-56.88h69.91a28.44,28.44,0,0,1,0,56.88ZM1001.64,386a25.46,25.46,0,0,0,0,50.92h69.91a25.46,25.46,0,0,0,0-50.92Z"/><text class="cls-6" transform="translate(990.92 421.55) scale(1.07 1)">Saltar</text><text class="cls-7" transform="translate(630.25 776.42) scale(1.25 1)">E<tspan class="cls-8" x="18.62" y="0">st</tspan><tspan class="cls-9" x="44.91" y="0">a</tspan><tspan class="cls-10" x="62.05" y="0">disticas</tspan></text><text class="cls-11" transform="translate(674.99 838.23) scale(1.25 1)">3<tspan class="cls-12" x="20.35" y="0">,</tspan><tspan x="29.23" y="0">234 </tspan><tspan class="cls-13" x="103.31" y="0">m</tspan><tspan class="cls-14" x="123.03" y="0">et</tspan><tspan class="cls-15" x="142.54" y="0">r</tspan><tspan class="cls-14" x="150.18" y="0">os</tspan></text><text class="cls-11" transform="translate(669.58 924.73) scale(1.25 1)"><tspan class="cls-16">5</tspan><tspan x="20.24" y="0">23 </tspan><tspan class="cls-17" x="70.59" y="0">k</tspan><tspan class="cls-18" x="82.03" y="0">cal</tspan></text><text class="cls-11" transform="translate(665.21 1006.3) scale(1.25 1)"><tspan class="cls-12">4</tspan><tspan x="24.09" y="0">8</tspan><tspan class="cls-19" x="46.88" y="0">9</tspan><tspan class="cls-20" x="68.38" y="0">,</tspan><tspan x="76.39" y="0">1 </tspan><tspan class="cls-14" x="99.36" y="0">pun</tspan><tspan class="cls-21" x="137.62" y="0">t</tspan><tspan class="cls-18" x="145.19" y="0">os</tspan></text><text class="cls-11" transform="translate(669.58 1086.3) scale(1.25 1)">54 <tspan class="cls-14" x="53.8" y="0">min</tspan></text><text class="cls-11" transform="translate(669.58 1169.04) scale(1.25 1)">65 <tspan class="cls-17" x="51.99" y="0">k</tspan><tspan class="cls-14" x="63.44" y="0">g</tspan></text><g class="cls-22"><path class="cls-23" d="M1110.88,913.59l-8.36,18.93s20.34,2.26,31.83,1.94c1.43,10.33,5.48,39.23,5.85,39.4s10.44-.1,10.44-.1l6.14-45.69c.28-2.09-1.53-4-4.38-4.7Z"/><path class="cls-23" d="M1019.33,944.63l-9,4.83-25.72,13.78a8.88,8.88,0,0,1-8.06-.06L925.24,934.3s5.16-6,5.66-6.11c.72,0,37.31,13.58,50.44,18.46,6-6.83,19.95-17.34,19.95-17.34l11.75,10Z"/><path class="cls-24" d="M1019.33,944.63l-9,4.83a80.36,80.36,0,0,1,1-9.16l1.7-1Z"/><path class="cls-25" d="M1028.44,907l-3.15,12.11-6.15,23.74a56.5,56.5,0,0,1-7.81-2.53c-9.1-3.68-13.53-8.31-13.53-8.31C1003.85,927.16,1028.44,907,1028.44,907Z"/><path class="cls-26" d="M1025.29,919.09l-6.15,23.74a56.5,56.5,0,0,1-7.81-2.53c2.75-13.46,11.44-26.71,11.44-26.71S1023.8,915.8,1025.29,919.09Z"/><path class="cls-25" d="M1095.71,988.59l-19.65,6.35-34,11c-.52-.76-1-1.52-1.54-2.28-49.48-73.64-9.71-98.54-9.71-98.54,15.14-1.1,31.1-4,31.1-4,22.95,5.46,29.17,17.19,30,29.41a55.1,55.1,0,0,1,0,6.92c-.54,8.56-2.7,16.82-2.52,22.79A77.46,77.46,0,0,0,1095.71,988.59Z"/><path class="cls-26" d="M1091.88,937.4c-10-2.6-20.54-4.54-20.54-4.54l4.69-4.54,15.87,2.16A53.26,53.26,0,0,1,1091.88,937.4Z"/><path class="cls-23" d="M1055,870.13c0-.32.06-.63.08-1,0-.12,0-.19,0-.19h0c.11-3.24-.91-6.88-3.9-10.78-5.16-6.76-20.74-12.1-34.18-7.46-17.48,6-15.88,18-15.88,18s.64,19.94,10.34,26.44c4.42,3,11.65,1.29,18.62-1.83a18.85,18.85,0,0,1,.84,4.34,39,39,0,0,1-.1,7.42s-15.13,17.36-8.18,21.85c5.26,3.4,21.51-14.63,26.6-18.63,7.91-6.22,12.68-7.26,12.68-7.26C1053.82,892.92,1054.6,874.83,1055,870.13Z"/><path class="cls-27" d="M1063,849.48c-3.2-1.48-7.47-1-10.08-.55a21.27,21.27,0,0,1,8.93-3.06,17.09,17.09,0,0,0-14.41,3,2.56,2.56,0,0,0-2-1.41,7.53,7.53,0,0,0-4.66.69c-24.62-10.44-48.63,2.57-51,8.47S997,867,1007.63,867.73s14.19.39,14.19.39,1,5.68,2.72,6.86,5.22.39,6.47,1.1,2.84,5.22,3.22,3.08-.56-6.64,3.82-7.23,5.68,1.05,7.38,5.05,3.06,7.79,4.58,8.42,7.11.27,7.11.27,0-1.09,0-2.85a6.94,6.94,0,0,0,2.31,2.95,26.13,26.13,0,0,1-1-5.85c-.28-4.78,0-10.88-.8-11.41.19-2.27.46-4,.77-5.86a8.5,8.5,0,0,0-2.08-11.53,6.19,6.19,0,0,0-2-1A28.35,28.35,0,0,1,1063,849.48Z"/><path class="cls-24" d="M1042.14,886.29s-1.94,4.35-11.25,11.41a18.85,18.85,0,0,0-.84-4.34A114.69,114.69,0,0,0,1042.14,886.29Z"/><path class="cls-25" d="M1067.71,902.71l44.34,10.93s1.36,12-4.54,21l-34.94-1.42s-10.46-1.84-14.24-8.58Z"/><path class="cls-23" d="M1140.06,973.39s.56,2.07-.92,2.91-4.64.43-6.67.67-6,1.2-7.49,1.26-1.62,1-.43,1.66a11.8,11.8,0,0,0,4.36,1c1.17.07,3.44-.46,3.8-.26s-3.1,1.33-3.73,2.31.09,4.3.54,4.73,2.35.34,2.55.46.35,1.15,1.12,1.5a7.93,7.93,0,0,0,2.74.26c.57,0,.79.87,1.31,1.21s2.19,0,2.93.23,1,.9,2,.92a3.64,3.64,0,0,0,2.25-.8c.49-.37,1.28-2.75,2.28-3.18s4.62-4,4.11-7.15a41.31,41.31,0,0,1,0-8.29Z"/><path class="cls-23" d="M932.07,928.56a4.86,4.86,0,0,1-2-4c0-1.62-2.22-5.52-2.76-6.55s-.94-4-1.42-4.4a2.48,2.48,0,0,0-3.19,2.85c.43,2.89.28,4.11-.16,4.17s-4.1-.79-4.2-1.22.84-.78,1-1.24-1.07-2.12-2-2.9a9.68,9.68,0,0,0-5.21-1.54c-1.49.15-2.52,1.09-2.1,2.16a3.6,3.6,0,0,0-2.13.83,2.8,2.8,0,0,0-.71,2.46,9.67,9.67,0,0,0-2.87,1.39,1.43,1.43,0,0,0-.11,2.06,3.32,3.32,0,0,0-1.59,1.26c-.64,1-.1,2.29.87,3.15a38.61,38.61,0,0,0,4,2.34c1.24.8,1.91,1.23,4.35,2.57s7.16,1.32,9.52,1.67a32.3,32.3,0,0,1,5.43,1.53Z"/><path class="cls-25" d="M1001.05,866.83s-.68,4.06.37,5.88c0,0,43.8-.49,56.21-4.2a18.46,18.46,0,0,0,.77-5.86S1037.73,866.72,1001.05,866.83Z"/><path class="cls-23" d="M1035.37,873.36s3.92-5.41,11.1-1.82c5.85,2.93-1.33,12.24-4.33,11.85S1035.37,873.36,1035.37,873.36Z"/><path class="cls-28" d="M1038.62,873.48a1.87,1.87,0,0,0,.17,2.51c.4.26,1.16.33,1.53.81s-.2,1.3.37,2a3,3,0,0,0,2.58,1.42c1.19-.1,2.78-2.88,3-4.58a3,3,0,0,0-2.19-3.15C1041.88,871.8,1039.41,872.46,1038.62,873.48Z"/><path class="cls-23" d="M1087.47,1061.18s16.41,13.06,21.22,15.65,113.52,24.77,113.52,24.77l3.85-9s-48.87-25.67-91.49-29.57l-11.47-15.75Z"/><path class="cls-23" d="M1044.51,1065l-19.77,13.06-.06,0-33.25,3,3.86-16.83a.47.47,0,0,0,.05-.1l.86-1.1.06-.08c4.75-6.11,9.32-11.42,9.32-11.42Z"/><path class="cls-23" d="M989.42,1149.21l-12.8-2.09s6.58-38.8,13.59-63.86l5.08-19a.47.47,0,0,0,.05-.1,13.65,13.65,0,0,1,.86-1.1l.06-.08,28.35,14.76a3.42,3.42,0,0,0,.13.34C1033.72,1101.36,989.42,1149.21,989.42,1149.21Z"/><path class="cls-27" d="M1124.78,1049.5h0c-11,5.66-33.87,13.09-35,13.47h0a171.48,171.48,0,0,1-14.64-12c-1.45-1.29-2.9-2.6-4.29-3.9-2-1.77-3.87-3.55-5.68-5.26s-3.72-3.52-5.36-5.11c-5-4.84-8.46-8.3-8.46-8.3l33.24-12.89,18.44-7.14c.24.54.62,1.31,1.08,2.25C1109,1020.51,1124.78,1049.5,1124.78,1049.5Z"/><path class="cls-29" d="M1099.56,1019.67s-.09.23-.28.65h0c-1.49,3.12-8.52,16.73-24.19,30.71-1.45-1.29-2.9-2.6-4.29-3.9l-2.56,1.87c-4.59-2.11-7.49-3.46-7.49-3.46l4.37-3.67,22.55-19Z"/><path class="cls-27" d="M1104,1010.69a34.6,34.6,0,0,1-4.76,9.63h0a73.6,73.6,0,0,1-8.1,9.68c-5.25,5.39-12.72,11.43-20.38,17.13l-2.56,1.87c-14.58,10.65-29.13,19.64-29.83,20.07l0,0h0c-21.67-6.55-32.77-17.53-32.77-17.53.44-.52.88-1,1.32-1.58h0c9.74-12,18.16-22.88,34.63-43.49-2.22-3.86-5.16-9-5.16-9s15.5-2.13,43-12.47c10.79-4,12.59-7.22,12.59-7.22a69.91,69.91,0,0,0,7.34,11.69c4.93,6.44,6.85,13.86,4.79,21A1.21,1.21,0,0,1,1104,1010.69Z"/><path class="cls-30" d="M1251.46,1115.65c0,5.86-.84,13.89-4.1,15.07a8.06,8.06,0,0,1-7-.37c-1.56-.83-5.25-9.84-9.1-16.37-1.57-2.66-3.88-6-6.44-7.86-3.74-2.72-7.67-3.55-7.66-4.88,0-.84,4.7-1.71,5.72-3.32,1.64-2.55,1.16-5.69,1.22-6.53a.76.76,0,0,1,.85-.76,14.49,14.49,0,0,0,4.5.34l.66-.06c4.87-.44,11-2.21,14.12-1.43,7.25,1.79,6.26,6.43,5.42,11.37a13,13,0,0,0,0,4.22C1250.14,1108.33,1251.46,1111.53,1251.46,1115.65Z"/><path class="cls-31" d="M1249.65,1105.07a10.56,10.56,0,0,1-2.57.21c-12.94-.38-16.28-11.13-17-14.37,4.87-.44,11-2.21,14.12-1.43,7.25,1.79,6.26,6.43,5.42,11.37A13,13,0,0,0,1249.65,1105.07Z"/><path class="cls-32" d="M1245.26,1089.77a82.11,82.11,0,0,1,0,9.6c-.32,5.35,1.2,10.37,2,14.11s-.53,11.66-1,13.22-1.52,4.61-1.52,4.61a16.54,16.54,0,0,0,4.17.28c1.69-.2,3-5.35,3.67-9a41.85,41.85,0,0,0,.48-11.86c-.42-2.78-1.56-7.55-1.2-10.4s1.32-9.45.72-10.21S1248.67,1088.75,1245.26,1089.77Z"/><path class="cls-25" d="M956.11,1166.08c-8.43,0-20-.68-21.64-2.95s-.65-3.79.57-4.87,14.2-3.59,23.61-6.22c3.83-1.08,8.65-2.66,11.36-4.43,3.93-2.58,5.15-5.3,7.07-5.29,1.2,0,2.42,3.28,4.74,4,3.65,1.15,8.17.84,9.38.88s1.08.6,1.08.6a5.31,5.31,0,0,0-.51,3.13c0,.15,0,.3.07.45.61,3.39,3.12,7.67,2,9.83-2.63,5-9.3,4.31-16.4,3.7a38.35,38.35,0,0,0-6.06,0C966.66,1165.21,962,1166.11,956.11,1166.08Z"/><path class="cls-26" d="M971.36,1164.89a3.51,3.51,0,0,1-.29-1.78c.63-9,16.11-11.25,20.77-11.73.61,3.39,3.12,7.67,2,9.83-2.63,5-9.3,4.31-16.4,3.7A38.35,38.35,0,0,0,971.36,1164.89Z"/><path d="M993.38,1161.94s-6.09.18-13.8-.08-14.93.77-20.31,1.31-16.77-.44-19-.8l-6.63-1.09a5.81,5.81,0,0,0-.43,2.9c.29,1.17,7.68,2.08,12.91,2.61a127.56,127.56,0,0,0,17.07.41c4-.28,10.87-1,15-.77s13.59,1,14.68.57S994.83,1164.32,993.38,1161.94Z"/></g><ellipse class="cls-33" cx="638.52" cy="824.8" rx="6.93" ry="5.8"/><ellipse class="cls-33" cx="638.52" cy="909.4" rx="6.93" ry="5.8"/><ellipse class="cls-33" cx="638.52" cy="994.01" rx="6.93" ry="5.8"/><line class="cls-34" x1="638.52" y1="834.25" x2="638.52" y2="899.64"/><line class="cls-34" x1="638.52" y1="919.17" x2="638.52" y2="984.25"/><line class="cls-34" x1="638.52" y1="1004.59" x2="638.52" y2="1069.67"/><ellipse class="cls-33" cx="638.52" cy="1078.6" rx="6.93" ry="5.8"/><ellipse class="cls-33" cx="638.52" cy="1163.2" rx="6.93" ry="5.8"/><line class="cls-34" x1="638.52" y1="1088.36" x2="638.52" y2="1153.44"/><path class="cls-35" d="M1173,1529c0,18.21-14.41,33-32.19,33H632.19c-17.78,0-32.19-14.76-32.19-33V1399c0-18.21,14.41-33,32.19-33h508.62c17.78,0,32.19,14.76,32.19,33Z"/><text class="cls-36" transform="translate(651.68 1423.79) scale(0.98 1)">debe beber 15 lit<tspan class="cls-37" x="217.86" y="0">r</tspan><tspan x="228.85" y="0">os de agua</tspan></text><g class="cls-38"><text class="cls-39" transform="translate(640.25 1455.1) scale(0.88 1)">po<tspan class="cls-40" x="20.73" y="0">r</tspan><tspan class="cls-41" x="27.18" y="0">c</tspan><tspan x="36.06" y="0">entaje </tspan><tspan class="cls-42" x="91.62" y="0">c</tspan><tspan class="cls-43" x="100.49" y="0">omplet</tspan><tspan class="cls-44" x="158.74" y="0">a</tspan><tspan x="168.18" y="0" xml:space="preserve">do del dia;   </tspan><tspan class="cls-45" x="265.95" y="0">f</tspan><tspan x="271.49" y="0">a</tspan><tspan class="cls-46" x="280.91" y="0">l</tspan><tspan x="285.51" y="0">tan </tspan><tspan class="cls-47" x="317.03" y="0">10 litros</tspan></text></g><path class="cls-48" d="M1137,1506.13c0,3.61-2.85,6.53-9.82,6.53h-484a10.17,10.17,0,0,1-2.91-6.53h0a10.15,10.15,0,0,1,2.91-6.51h484c7,0,9.82,2.92,9.82,6.51Z"/><path class="cls-49" d="M819.74,1506.13a6.45,6.45,0,0,1-6.37,6.52H646.61a6.44,6.44,0,0,1-6.36-6.52h0a6.44,6.44,0,0,1,6.36-6.52H813.37a6.45,6.45,0,0,1,6.37,6.52Z"/><text class="cls-50" transform="translate(1074.86 1456.73) scale(0.98 1)">5<tspan class="cls-51" x="23.28" y="0">l</tspan><tspan x="37.06" y="0">ts</tspan></text><rect class="cls-52" x="625" y="1220" width="233.54" height="125" rx="4.79"/><text class="cls-53" transform="translate(638.06 1266.31) scale(1.87 1)"><tspan class="cls-54">C</tspan><tspan x="7.88" y="0">alo</tspan><tspan class="cls-54" x="24.51" y="0">r</tspan><tspan x="28.94" y="0">ias </tspan><tspan class="cls-55" x="47.06" y="0">c</tspan><tspan class="cls-56" x="53.25" y="0">onsumidas</tspan></text><text class="cls-57" transform="translate(637.79 1307.47) scale(1.87 1)">2<tspan class="cls-58" x="14.86" y="0">2</tspan><tspan class="cls-59" x="29.65" y="0">0</tspan><tspan x="46.71" y="0">1 </tspan><tspan class="cls-60" x="63.48" y="0">K</tspan><tspan class="cls-61" x="73.1" y="0">cal</tspan></text><text/><text/><rect class="cls-52" x="903.46" y="1220" width="233.54" height="125" rx="4.79"/><text class="cls-53" transform="translate(921.14 1266.31) scale(1.87 1)"><tspan class="cls-62">P</tspan><tspan class="cls-56" x="7.81" y="0">eso </tspan><tspan class="cls-55" x="30" y="0">c</tspan><tspan x="36.19" y="0">o</tspan><tspan class="cls-54" x="43.17" y="0">r</tspan><tspan x="47.61" y="0">po</tspan><tspan class="cls-55" x="62.09" y="0">r</tspan><tspan x="66.52" y="0">al</tspan></text><text class="cls-57" transform="translate(919.67 1307.47) scale(1.87 1)">65 <tspan class="cls-60" x="37.97" y="0">K</tspan><tspan class="cls-61" x="47.59" y="0">g</tspan></text><path class="cls-63" d="M220.17,2000H627.36l33.78-90.94a128.67,128.67,0,0,1,67.76-72.28c29.49-13.34,69.18-37.56,107.66-80.75,74.87-84,114.6-174.19,114.6-174.19l-252.35-1.24S721.52,1439.44,596.1,1252a106.07,106.07,0,0,1-17.44-68.2L590.55,1047s85.23-95.24,32.93-213.41c0,0-50-69.23-69.84-43.89,0,0-151,359.68-164.79,413.16s-32.09,87.1-13.75,255.18c4.85,44.49,6.6,81.6,6.54,112.11a397.88,397.88,0,0,1-38.25,169.34Z"/><path class="cls-64" d="M600,1766.68c-37.8-42-90.3-35.33-145.52-54.47s-72.92-157.14-72.92-157.14v0c.09,5.2.13,10.26.13,15.13a397.88,397.88,0,0,1-38.25,169.34L220.17,2000H627.36l33.78-90.94a128.67,128.67,0,0,1,67.76-72.28c25.1-11.36,57.58-30.6,90.42-62.7C707.17,1821.22,637.75,1808.64,600,1766.68Z"/><path class="cls-65" d="M1178.82,549.92s86.25-57.72,106-19.69-112.06,172.6-112.06,172.6Z"/><path class="cls-65" d="M1178.82,801.43s86.25-57.72,106-19.69-112.06,172.6-112.06,172.6Z"/><path class="cls-65" d="M1178.82,972.79s86.25-57.72,106-19.69-112.06,172.6-112.06,172.6Z"/><path class="cls-63" d="M571.19,1129.54s3.26,12.1,10.61,18L590.55,1047S653.24,977,638.1,882.47a141.26,141.26,0,0,0-45.89-83.76c-14-12.34-29.47-20.59-38.57-9,0,0-71,169.14-120.1,292.69Z"/><path class="cls-66" d="M566.42,889.08C586,880.05,596.29,829,600,806c-15.75-15.84-35.51-30.1-46.32-16.3,0,0-15.64,37.25-37.31,89.55C531.15,887.53,551.74,895.83,566.42,889.08Z"/><path class="cls-67" d="M1060.93,1179.05s-72.83,6.11-75.38,25.46,3.06,53.49,71.82,60.11h71.22s-21.31-59.09-20.29-61.12S1060.93,1179.05,1060.93,1179.05Z"/><path class="cls-63" d="M944.07,1467.77a19.76,19.76,0,0,0-7.69,27.37c33.51,57.8,166.79,287.53,178.8,306.22,13.75,21.39,47.37,71.82,158.91,97.79S1431.48,2000,1431.48,2000h343.8s-81-128.35-148.22-461.46c0,0-52-276.57-149.74-267.4,0,0-59.6-62.65-117.66-50.42,0,0-110-65.71-172.67-65.71L1036.51,977.17c-14.89-17.6-41.14-21-59.45-7-5.89,4.51-10.39,10.47-11.63,18.33-4.58,29,33.62,102.38,94.74,191s212.39,369.78,146.69,493.55c0,0-67.23-50.43-125.3-131.41C1032.94,1473.78,975.74,1451,944.07,1467.77Z"/><path class="cls-65" d="M1187.55,1155.08a626.39,626.39,0,0,1,56.36,55.11c23.87,26,54,64.49,71.7,94.23,22.32,36.78,37.05,69,44,109.52l-.45.1c-8-38-29-79-47.21-107.33-13.65-22.13-38.92-57.29-70.78-94.15-16-18.45-36.3-40.26-53.94-57.15Z"/><path class="cls-65" d="M1358.68,1220.24c16.24,8.31,30.73,19.91,43.54,33a210.9,210.9,0,0,1,33,44,215.05,215.05,0,0,1,20.65,51c4,16.62,6.5,27.89,6.91,54.19l-.45,0a267.23,267.23,0,0,0-9.91-53.21c-5.16-16.77-12.41-34.79-21.19-49.74a235.64,235.64,0,0,0-31.67-43.82c-11.5-12.59-26.55-26.19-41.1-35.06Z"/><path class="cls-65" d="M1476.05,1269.86c14.37,10.86,28.92,30.1,36,43.1a194.14,194.14,0,0,1,20.54,52.38c3.39,12.41,4.26,24.46,4.79,37.08l-.45.06c-2.12-12.23-3.45-21.35-7.81-36.15-6.67-22.45-11.91-34-20.86-51.31-5.35-10.67-19.23-31.8-32.38-44.83Z"/><path class="cls-66" d="M1013.47,1538.91c3-15.47-15-40-31.34-58.51a38,38,0,0,0-40.52-11.05,19.79,19.79,0,0,0-5.23,25.79c9,15.53,25.21,43.48,44.34,76.42C995,1564.26,1010.65,1553.22,1013.47,1538.91Z"/><path class="cls-66" d="M1027.91,1047c8.7-1.74,48.13-14.86,45.72-22h0l-38.9-46a44.26,44.26,0,0,0-29.65-15.49h0l-.18,0c-.32,0-1-.08-2-.08-5.22,0-18.06,1.49-20.88,15.61-2.79,13.95,20.29,47.85,30.47,61.94A15.33,15.33,0,0,0,1027.91,1047Z"/><path class="cls-68" d="M337.5,1759.73c43.08,26.47,181.79,105.62,325.22,122.49,8.4,1,14.31,8.69,11.83,15.35l-25.06,67.11c-1.66,4.44-6.65,7-12.25,6.35-42.27-5.13-216.68-31.38-339.39-126.31-4.18-3.23-5.94-8.13-4.37-12.31l25.57-68.49C321.45,1757.47,330.48,1755.42,337.5,1759.73Z"/><path class="cls-69" d="M324.91,1823.9l-.48-.17a4.87,4.87,0,0,1-2.85-6.26l7.71-20.66a4.86,4.86,0,0,1,6.26-2.85l.47.17a4.86,4.86,0,0,1,2.86,6.26l-7.72,20.66A4.85,4.85,0,0,1,324.91,1823.9Z"/><path class="cls-69" d="M350.71,1839.8l-.48-.17a4.87,4.87,0,0,1-2.85-6.26l7.71-20.66a4.87,4.87,0,0,1,6.26-2.85l.47.17a4.86,4.86,0,0,1,2.86,6.26L357,1837A4.85,4.85,0,0,1,350.71,1839.8Z"/><rect class="cls-69" x="376.75" y="1824.73" width="10.23" height="31.78" rx="4.86" transform="translate(668.11 -17.27) rotate(20.48)"/><path class="cls-69" d="M403.14,1868.44l-.47-.18a4.86,4.86,0,0,1-2.86-6.25l7.72-20.66a4.86,4.86,0,0,1,6.25-2.86l.48.18a4.86,4.86,0,0,1,2.85,6.25l-7.71,20.67A4.87,4.87,0,0,1,403.14,1868.44Z"/><rect class="cls-69" x="418.73" y="1863.28" width="31.78" height="10.23" rx="4.86" transform="translate(-1467.75 1621.86) rotate(-69.52)"/><path class="cls-69" d="M456.62,1895.21l-.47-.18a4.86,4.86,0,0,1-2.86-6.26l7.71-20.66a4.87,4.87,0,0,1,6.26-2.85l.47.18a4.86,4.86,0,0,1,2.86,6.25l-7.72,20.66A4.85,4.85,0,0,1,456.62,1895.21Z"/><path class="cls-69" d="M484.47,1905.61l-.47-.18a4.86,4.86,0,0,1-2.86-6.26l7.72-20.66a4.86,4.86,0,0,1,6.25-2.85l.48.17a4.87,4.87,0,0,1,2.85,6.26l-7.71,20.66A4.86,4.86,0,0,1,484.47,1905.61Z"/><rect class="cls-69" x="513.07" y="1883.7" width="10.23" height="31.78" rx="4.86" transform="translate(697.35 -61.24) rotate(20.48)"/><rect class="cls-69" x="542.61" y="1889.57" width="10.23" height="31.78" rx="4.86" transform="matrix(0.94, 0.35, -0.35, 0.94, 701.28, -71.21)"/><path class="cls-69" d="M571.17,1928.39l-.47-.18a4.85,4.85,0,0,1-2.85-6.25l7.71-20.67a4.86,4.86,0,0,1,6.25-2.85l.48.18a4.86,4.86,0,0,1,2.85,6.25l-7.71,20.66A4.86,4.86,0,0,1,571.17,1928.39Z"/><path class="cls-69" d="M601,1933.39l-.47-.17a4.86,4.86,0,0,1-2.86-6.26l7.72-20.66a4.85,4.85,0,0,1,6.25-2.85l.48.17a4.87,4.87,0,0,1,2.85,6.26l-7.71,20.66A4.86,4.86,0,0,1,601,1933.39Z"/><rect class="cls-69" x="631.15" y="1907.43" width="10.23" height="31.78" rx="4.86" transform="translate(712.98 -101.06) rotate(20.48)"/><path class="cls-70" d="M422.63,1915.13l.12-.31a6.49,6.49,0,0,1-1.35-.33l-33.95-12.67a6.78,6.78,0,0,1-3.62-8.84l30.6-82a6.78,6.78,0,0,1,8.53-4.3l34,12.68a6.33,6.33,0,0,1,3.87,4.45c2.66,1.16,5.35,2.33,8.06,3.48.91-6.89-2.63-13.58-8.94-15.94L426,1798.69c-7.44-2.77-15.93,1.51-18.93,9.54l-30.61,82c-3,8,.61,16.84,8,19.61l34,12.68a14.29,14.29,0,0,0,14.65-3.16Q427.85,1917.29,422.63,1915.13Z"/><path class="cls-71" d="M415.19,1850.08l-14.77-5.52a5.55,5.55,0,0,0-3.87,10.36l14.77,5.51Z"/><path class="cls-64" d="M1431.48,2000h343.8s-53.1-84.16-109-293c-24.53,153.79-159.87,144.92-213.58,153.45-61.83,9.83-301.89-40.22-335.53-56,15,22.83,50.42,69.91,156.92,94.71C1385.64,1925.13,1431.48,2000,1431.48,2000Z"/><path class="cls-64" d="M1078.35,1207.34c67.4,108.32,188.35,357.12,128.51,465.67l39.71,39.2s100.35-111.17-59.33-356.31A1635.62,1635.62,0,0,0,1078.35,1207.34Z"/><path class="cls-64" d="M528,1425.84C282.51,1691.66,546.25,1719.28,853,1699c0,0,138-191,74-155-458.63,258-130-400-276-112C646.44,1441,528,1425.84,528,1425.84Z"/><g id="g36"><g id="g88"><g id="g90"><g id="g96"><g id="g98"><path id="path108" class="cls-72" d="M885.39,421.21s34.68,1.74,32.6,46h0c-1.64,34.89-48.56,81.24-61.69,99.22h0A68.29,68.29,0,0,0,843.18,603h0s8.86-19.23,38.39-27h0c7.47-2,17.56-.8,27.17.35h0c13.17,1.58,25.43,3.16,28.77-3.3h0c1.73-4.45-.13-12.38.48-16.92h0c.62-4.53,5.35-6.33,5-9.12h0c-.38-2.79-3.82-4.19-3.82-4.19h0s5.21-2.52,3.86-5.66h0a37.68,37.68,0,0,1-2.06-6.74h0s10.67-3.88,10-7.91h0c-.66-4-18-29.15-18-36.59h0c0-7.44,4-21.2-5.16-37.95h0c-13.93-25.39-36.58-26.8-41.44-26.8h0c-.61,0-.94,0-.94,0"/></g></g></g></g><g id="g110"><g id="g112"><g id="g118"><g id="g120"><path id="path130" class="cls-73" d="M839.07,476.05a.71.71,0,0,0-.72.68h0V488H826.42a.7.7,0,0,0-.72.68h0v13.73a.7.7,0,0,0,.72.69h11.93v11.27a.7.7,0,0,0,.72.68h14.54a.7.7,0,0,0,.72-.68h0V503.11h11.93a.7.7,0,0,0,.72-.69h0V488.69a.7.7,0,0,0-.72-.68H854.33V476.73a.7.7,0,0,0-.72-.68H839.07Z"/></g></g></g></g><g id="g132"><g id="g134"><g id="g140"><g id="g142"><path id="path152" class="cls-74" d="M818,459.87a.33.33,0,0,0-.34.31h0v5.26h-5.56a.33.33,0,0,0-.34.32h0v6.41a.33.33,0,0,0,.34.32h5.56v5.26a.33.33,0,0,0,.34.32h6.78a.33.33,0,0,0,.34-.32h0v-5.26h5.56a.33.33,0,0,0,.34-.32h0v-6.41a.33.33,0,0,0-.34-.32h-5.56v-5.26a.33.33,0,0,0-.34-.31H818Z"/></g></g></g></g><g id="g154"><g id="g156"><g id="g162"><g id="g164"><path id="path174" class="cls-75" d="M876.08,480.27a.21.21,0,0,0-.21.21h0v3.36h-3.56a.2.2,0,0,0-.21.2h0v4.1a.2.2,0,0,0,.21.2h3.56v3.36a.21.21,0,0,0,.21.21h4.34a.21.21,0,0,0,.21-.21h0v-3.36h3.56a.21.21,0,0,0,.22-.2h0V484a.21.21,0,0,0-.22-.2h-3.56v-3.36a.21.21,0,0,0-.21-.21h-4.34Z"/></g></g></g></g><g id="g176"><g id="g178"><g id="g184"><g id="g186"><path id="path196" class="cls-76" d="M859.35,461.39a.12.12,0,0,0-.12.12h0v1.93h-2.06a.13.13,0,0,0-.12.12h0v2.36a.12.12,0,0,0,.12.12h2.06V468a.11.11,0,0,0,.12.11h2.5A.11.11,0,0,0,862,468h0V466h2a.12.12,0,0,0,.13-.12h0v-2.36a.13.13,0,0,0-.13-.12h-2v-1.93a.12.12,0,0,0-.12-.12h-2.5Z"/></g></g></g></g><g id="g198"><g id="g200"><g id="g206"><g id="g208"><path id="path218" class="cls-77" d="M823.51,515.06a.15.15,0,0,0-.15.14h0v2.33H820.9a.14.14,0,0,0-.15.14h0v2.84a.15.15,0,0,0,.15.14h2.46V523a.15.15,0,0,0,.15.14h3a.15.15,0,0,0,.15-.14h0v-2.32h2.46a.15.15,0,0,0,.15-.14h0v-2.84a.15.15,0,0,0-.15-.14h-2.46V515.2a.15.15,0,0,0-.15-.14h-3Z"/></g></g></g></g><g id="g220"><g id="g222"><g id="g228"><g id="g230"><path id="path240" class="cls-78" d="M795.66,579.64c10.33,9.31,27.68,11.45,37.79,16.91h0s-6-34.3-32.58-54.46h0c.8.35,26.41,11.91,37,54.42h0c0,.13.07.26.1.39h0c1.3-10.94,3.06-54.42-49.63-63.35h0s-15.58,25.47,7.29,46.1"/></g></g></g></g><g id="g242"><g id="g244"><g id="g250"><g id="g252"><path id="path262" class="cls-79" d="M851.13,538.19c-6.4,6.94-4.48,21-3.24,27.23h0c8.61-19.76,22.18-28.45,23.06-29h0C857,548.6,852.59,559.67,848.59,568.5h0c6.89-14,32.08-39.85,32.08-39.85h0c-4.43,2.8-21.17.47-29.54,9.54"/></g></g></g></g><g id="g264"><g id="g266"><g id="g272"><g id="g274"><path id="path284" class="cls-80" d="M918,467.18c-1.64,34.89-48.56,81.24-61.69,99.22h0A68.29,68.29,0,0,0,843.18,603h0c8.61-46.58,80.06-81.86,82.36-131.17h0c2.3-49.32-40.15-50.62-40.15-50.62h0s34.68,1.74,32.6,46"/></g></g></g></g><g id="g286"><g id="g288"><g id="g294"><g id="g296"><path id="path306" class="cls-81" d="M870.63,422.34a38,38,0,0,0-8.58,1.74h0a44.17,44.17,0,0,0-14.81,8.36h0a53.93,53.93,0,0,0-5.92,5.78h0c-.6.7-1.18,1.42-1.75,2.14h0q-1-.54-2.1-1.05h0a67.61,67.61,0,0,0-7.13-2.95h0A65,65,0,0,0,815,433h0a58.52,58.52,0,0,0-8.06-.12h0a56.14,56.14,0,0,0-8,1.12h0a53.7,53.7,0,0,0-7.76,2.43h0c-.63.23-1.29.57-1.93.86h0c-.63.29-1.35.6-1.82.87h0l-1.56.83-.55.3-.43.26-.84.5a47,47,0,0,0-12,10.3h0a40.19,40.19,0,0,0-7.36,13.85h0a40.14,40.14,0,0,0-1.45,15.25h0a46.85,46.85,0,0,0,1.31,7.45h0a49.88,49.88,0,0,0,2.48,7.08h0a56.73,56.73,0,0,0,7.67,12.73h0A68.92,68.92,0,0,0,785,517.23h0a82.27,82.27,0,0,0,12.15,8.34h0c2.13,1.22,4.43,2.34,6.4,3.37h0c2,1,4,2.13,6,3.28h0a104,104,0,0,1,11.31,7.62h0a73.4,73.4,0,0,1,9.91,9.22h0A55.7,55.7,0,0,1,838.65,560h0a37.86,37.86,0,0,1,4.53,12.63h0a27.25,27.25,0,0,0-.68-6.78h0a41.31,41.31,0,0,0-2-6.63h0a57.6,57.6,0,0,0-6.69-12.29h0a78.12,78.12,0,0,0-9.41-10.69h0a90.55,90.55,0,0,0-11.17-9.08h0c-2-1.37-4-2.72-6-4h0c-2.13-1.3-4-2.41-5.82-3.68h0A80,80,0,0,1,791,511.19h0a65.86,65.86,0,0,1-8.46-9.76h0a51.83,51.83,0,0,1-5.88-11h0a39.72,39.72,0,0,1-2.54-11.74h0a31.61,31.61,0,0,1,1.45-11.51h0c2.34-7.35,7.72-13.57,14.78-17.79h0l.67-.39.29-.18.07,0,.2-.1,1.56-.83c.56-.3.93-.43,1.37-.64h0c.44-.18.83-.39,1.31-.57h0a41.34,41.34,0,0,1,5.81-1.85h0a42.22,42.22,0,0,1,6.08-.89h0a50,50,0,0,1,6.24.05h0a52.88,52.88,0,0,1,12.51,2.55h0a62.21,62.21,0,0,1,6,2.33h0c1,.43,2,.89,2.9,1.38h0c.48.24.94.49,1.39.74h0l.67.38.55.33,5.56,3.3,2.48-5.15c0-.09.21-.37.33-.57h0l.41-.68c.29-.46.58-.91.9-1.37h0c.62-.91,1.3-1.8,2-2.68h0a43.11,43.11,0,0,1,4.54-4.92h0a36.2,36.2,0,0,1,11.11-7.15h0a30.23,30.23,0,0,1,6.38-1.73h0a30.68,30.68,0,0,1,6.72-.34h0a39.64,39.64,0,0,1,6.85,1h0c1.14.29,2.29.57,3.41,1h0l.82.29h0c.26.1.51.18.77.29h0c.53.21,1.07.44,1.59.68h0a30.06,30.06,0,0,1,5.85,3.49h0a29.9,29.9,0,0,1,4.86,4.75h0a35,35,0,0,1,6.31,12.26h0a50.73,50.73,0,0,1,2,14h0a52.31,52.31,0,0,1-.42,7.18h0a36.08,36.08,0,0,1-.81,4.22h0a24.59,24.59,0,0,1-.9,2.84h0a28.07,28.07,0,0,0,2.86-6.83h0a46.24,46.24,0,0,0,1.51-7.29h0a49.51,49.51,0,0,0-.31-15h0a38.5,38.5,0,0,0-5.62-14.46h0a34.12,34.12,0,0,0-12-11.06h0c-.61-.35-1.24-.66-1.87-1h0c-.31-.16-.66-.31-1-.45h0c-.34-.16-.67-.31-1-.42h0c-1.26-.53-2.55-1-3.86-1.46h0a43.27,43.27,0,0,0-8.25-1.92h0a40.82,40.82,0,0,0-5.31-.35h0c-1.12,0-2.25.05-3.37.15"/></g></g></g></g><g id="g308"><g id="g310"><g id="g316"><g id="g318"><path id="path328" class="cls-82" d="M841,446.61S817.91,432,794.29,441h0c-23.63,9-30.31,31.07-20.83,53.93h0c8.2,19.78,33.13,30.1,50.07,43.54h0c16.66,13.22,19.65,34.16,19.65,34.16h0a27.25,27.25,0,0,0-.68-6.78h0a41.31,41.31,0,0,0-2-6.63h0a57.6,57.6,0,0,0-6.69-12.29h0a78.12,78.12,0,0,0-9.41-10.69h0a90.55,90.55,0,0,0-11.17-9.08h0c-2-1.37-4-2.72-6-4h0c-2.13-1.3-4-2.41-5.82-3.68h0A80,80,0,0,1,791,511.19h0a65.86,65.86,0,0,1-8.46-9.76h0a51.83,51.83,0,0,1-5.88-11h0a39.72,39.72,0,0,1-2.54-11.74h0a31.61,31.61,0,0,1,1.45-11.51h0c2.34-7.35,7.72-13.57,14.78-17.79h0l.67-.39.29-.18.07,0,.2-.1,1.56-.83c.56-.3.93-.43,1.37-.64h0c.44-.18.83-.39,1.31-.57h0a41.34,41.34,0,0,1,5.81-1.85h0a42.22,42.22,0,0,1,6.08-.89h0a50,50,0,0,1,6.24.05h0a52.88,52.88,0,0,1,12.51,2.55h0a62.21,62.21,0,0,1,6,2.33h0c1,.43,2,.89,2.9,1.38h0c.48.24.94.49,1.39.74h0l.67.38.55.33,5.56,3.3,2.48-5.15c0-.09.21-.37.33-.57h0l.41-.68c.29-.46.58-.91.9-1.37h0c.62-.91,1.3-1.8,2-2.68h0a43.11,43.11,0,0,1,4.54-4.92h0a36.2,36.2,0,0,1,11.11-7.15h0a30.23,30.23,0,0,1,6.38-1.73h0a30.68,30.68,0,0,1,6.72-.34h0a39.64,39.64,0,0,1,6.85,1h0c1.14.29,2.29.57,3.41,1h0l.82.29h0c.26.1.51.18.77.29h0c.53.21,1.07.44,1.59.68h0a30.06,30.06,0,0,1,5.85,3.49h0a29.9,29.9,0,0,1,4.86,4.75h0a35,35,0,0,1,6.31,12.26h0a50.73,50.73,0,0,1,2,14h0a52.31,52.31,0,0,1-.42,7.18h0a36.08,36.08,0,0,1-.81,4.22h0c9-30.48-8.83-52.52-32.26-53.28h0l-1.32,0h0c-23.29,0-35.15,20.38-35.15,20.38"/></g></g></g></g></g><rect class="cls-1" width="2037" height="2454"/><rect x="386.04" y="2246.19" width="574.69" height="177.81" rx="3.72"/><path class="cls-4" d="M421.71,2318.84c-9.32,16.46-3.39,41.44,6.92,56.59,5.14,7.57,10.35,14.36,17.49,14.36h.41a21.25,21.25,0,0,0,8.11-2.21,21.94,21.94,0,0,1,9.62-2.31,20.62,20.62,0,0,1,9.15,2.24,19.14,19.14,0,0,0,8.77,2.14c8-.15,13-7.49,17.33-14a62.34,62.34,0,0,0,7.59-15.82l0-.1a.93.93,0,0,0-.48-1.13l-.06,0a23.36,23.36,0,0,1-14-21.46c-.13-12.41,9.31-19,11.2-20.17l.09-.06a.91.91,0,0,0,.4-.59,1,1,0,0,0-.14-.7,26,26,0,0,0-20.52-11.34,17.44,17.44,0,0,0-1.79-.09c-4.72,0-9.24,1.82-12.87,3.28-2.51,1-4.68,1.87-6.17,1.87-1.68,0-3.86-.88-6.38-1.9-3.37-1.36-7.2-2.9-11.24-2.9h-.29C435.51,2304.69,426.62,2310.17,421.71,2318.84Z"/><path class="cls-4" d="M483.67,2277.6c-5.7.24-12.54,3.81-16.62,8.68-3.48,4.09-6.87,10.92-6,17.79a.91.91,0,0,0,.82.8c.39,0,.78.05,1.17.05,5.57,0,11.59-3.14,15.69-8.19,4.32-5.33,6.51-12.18,5.85-18.31A.92.92,0,0,0,483.67,2277.6Z"/><text class="cls-83" transform="translate(569.23 2304.93) scale(0.98 1)">Desca<tspan class="cls-84" x="120.63" y="0">r</tspan><tspan x="135.71" y="0">ga en la</tspan></text><text class="cls-85" transform="translate(541.6 2377.34) scale(0.98 1)">App S<tspan class="cls-86" x="205.26" y="0">t</tspan><tspan class="cls-87" x="232.8" y="0">o</tspan><tspan class="cls-88" x="276.56" y="0">r</tspan><tspan x="304.37" y="0">e</tspan></text><rect x="992.31" y="2246.19" width="574.69" height="177.81" rx="3.72"/><text class="cls-83" transform="translate(1164.54 2304.93) scale(0.98 1)">Disponible en </text><text class="cls-89" transform="translate(1143.38 2377.34) scale(0.98 1)">Google Pl<tspan class="cls-90" x="328.68" y="0">a</tspan><tspan class="cls-91" x="368.25" y="0">y</tspan></text><path class="cls-4" d="M1130.59,2332.83l-21.9-12.86-18,17.71,16.45,16.19,23.45-13.77a4.24,4.24,0,0,0,0-7.27Z"/><polygon class="cls-4" points="1104.98 2317.79 1080.88 2303.64 1028.08 2276.11 1087.72 2334.76 1104.98 2317.79"/><polygon class="cls-4" points="1028.95 2398.39 1080.97 2369.24 1103.43 2356.05 1087.72 2340.6 1028.95 2398.39"/><polygon class="cls-4" points="1024.55 2278.48 1024.5 2396.94 1084.75 2337.68 1024.55 2278.48"/><text class="cls-92" transform="translate(673.27 2176.23) scale(0.98 1)">P<tspan class="cls-93" x="50.15" y="0">r</tspan><tspan class="cls-94" x="82.67" y="0">o</tspan><tspan class="cls-95" x="134.5" y="0">ximame</tspan><tspan class="cls-96" x="457.73" y="0">n</tspan><tspan class="cls-97" x="510.98" y="0">t</tspan><tspan class="cls-95" x="544.21" y="0">e!</tspan></text><text class="cls-98" transform="translate(763.52 677.63)"><tspan xml:space="preserve">Hola   </tspan><tspan class="cls-99" x="71.54" y="0">Micaela</tspan></text></g></g></g></svg>