<?xml version="1.0" encoding="UTF-8" standalone="no"?>
<svg
   xmlns:dc="http://purl.org/dc/elements/1.1/"
   xmlns:cc="http://creativecommons.org/ns#"
   xmlns:rdf="http://www.w3.org/1999/02/22-rdf-syntax-ns#"
   xmlns:svg="http://www.w3.org/2000/svg"
   xmlns="http://www.w3.org/2000/svg"
   xmlns:sodipodi="http://sodipodi.sourceforge.net/DTD/sodipodi-0.dtd"
   xmlns:inkscape="http://www.inkscape.org/namespaces/inkscape"
   version="1.1"
   id="svg28"
   xml:space="preserve"
   width="666.66669"
   height="666.66669"
   viewBox="0 0 666.66669 666.66669"
   sodipodi:docname="logo.ai.svg"
   inkscape:version="1.0.2 (1.0.2+r75+1)"><metadata
     id="metadata34"><rdf:RDF><cc:Work
         rdf:about=""><dc:format>image/svg+xml</dc:format><dc:type
           rdf:resource="http://purl.org/dc/dcmitype/StillImage" /><dc:title></dc:title></cc:Work></rdf:RDF></metadata><defs
     id="defs32"><rect
       x="287.53604"
       y="142.93402"
       width="170.52905"
       height="30.129232"
       id="rect332" /><linearGradient
       x1="0"
       y1="0"
       x2="1"
       y2="0"
       gradientUnits="userSpaceOnUse"
       gradientTransform="matrix(496.47491,-491.97565,-491.97565,-496.47491,2.9747682,494.78659)"
       spreadMethod="pad"
       id="linearGradient56"><stop
         style="stop-opacity:1;stop-color:#1a0870"
         offset="0"
         id="stop50" /><stop
         style="stop-opacity:1;stop-color:#1a0870"
         offset="0.2390287"
         id="stop52" /><stop
         style="stop-opacity:1;stop-color:#1a085c"
         offset="1"
         id="stop54" /></linearGradient><clipPath
       clipPathUnits="userSpaceOnUse"
       id="clipPath70"><path
         d="M 0,500 H 500 V 0 H 0 Z"
         id="path68" /></clipPath><clipPath
       clipPathUnits="userSpaceOnUse"
       id="clipPath78"><path
         d="M 186.341,129.852 H 312.254 V 118.728 H 186.341 Z"
         id="path76" /></clipPath><linearGradient
       x1="0"
       y1="0"
       x2="1"
       y2="0"
       gradientUnits="userSpaceOnUse"
       gradientTransform="matrix(108.74532,-108.74532,-108.74532,-108.74532,210.68491,342.28394)"
       spreadMethod="pad"
       id="linearGradient106"><stop
         style="stop-opacity:1;stop-color:#2edde5"
         offset="0"
         id="stop100" /><stop
         style="stop-opacity:1;stop-color:#2edde5"
         offset="0.01912702"
         id="stop102" /><stop
         style="stop-opacity:1;stop-color:#6d45ff"
         offset="1"
         id="stop104" /></linearGradient><linearGradient
       x1="0"
       y1="0"
       x2="1"
       y2="0"
       gradientUnits="userSpaceOnUse"
       gradientTransform="matrix(193.04317,-193.04317,-193.04317,-193.04317,151.11761,391.49783)"
       spreadMethod="pad"
       id="linearGradient128"><stop
         style="stop-opacity:1;stop-color:#6d45ff"
         offset="0"
         id="stop122" /><stop
         style="stop-opacity:1;stop-color:#2edde5"
         offset="0.98087298"
         id="stop124" /><stop
         style="stop-opacity:1;stop-color:#2edde5"
         offset="1"
         id="stop126" /></linearGradient><linearGradient
       x1="0"
       y1="0"
       x2="1"
       y2="0"
       gradientUnits="userSpaceOnUse"
       gradientTransform="matrix(193.04317,-193.04317,-193.04317,-193.04317,152.86075,393.24097)"
       spreadMethod="pad"
       id="linearGradient150"><stop
         style="stop-opacity:1;stop-color:#6d45ff"
         offset="0"
         id="stop144" /><stop
         style="stop-opacity:1;stop-color:#2edde5"
         offset="0.98087298"
         id="stop146" /><stop
         style="stop-opacity:1;stop-color:#2edde5"
         offset="1"
         id="stop148" /></linearGradient><linearGradient
       x1="0"
       y1="0"
       x2="1"
       y2="0"
       gradientUnits="userSpaceOnUse"
       gradientTransform="matrix(193.04317,-193.04317,-193.04317,-193.04317,173.92746,414.30768)"
       spreadMethod="pad"
       id="linearGradient172"><stop
         style="stop-opacity:1;stop-color:#6d45ff"
         offset="0"
         id="stop166" /><stop
         style="stop-opacity:1;stop-color:#2edde5"
         offset="0.98087298"
         id="stop168" /><stop
         style="stop-opacity:1;stop-color:#2edde5"
         offset="1"
         id="stop170" /></linearGradient><linearGradient
       x1="0"
       y1="0"
       x2="1"
       y2="0"
       gradientUnits="userSpaceOnUse"
       gradientTransform="matrix(193.04317,-193.04317,-193.04317,-193.04317,176.614,416.9942)"
       spreadMethod="pad"
       id="linearGradient194"><stop
         style="stop-opacity:1;stop-color:#6d45ff"
         offset="0"
         id="stop188" /><stop
         style="stop-opacity:1;stop-color:#2edde5"
         offset="0.98087298"
         id="stop190" /><stop
         style="stop-opacity:1;stop-color:#2edde5"
         offset="1"
         id="stop192" /></linearGradient><linearGradient
       x1="0"
       y1="0"
       x2="1"
       y2="0"
       gradientUnits="userSpaceOnUse"
       gradientTransform="matrix(193.04317,-193.04317,-193.04317,-193.04317,125.96433,366.34454)"
       spreadMethod="pad"
       id="linearGradient216"><stop
         style="stop-opacity:1;stop-color:#6d45ff"
         offset="0"
         id="stop210" /><stop
         style="stop-opacity:1;stop-color:#2edde5"
         offset="0.98087298"
         id="stop212" /><stop
         style="stop-opacity:1;stop-color:#2edde5"
         offset="1"
         id="stop214" /></linearGradient><linearGradient
       x1="0"
       y1="0"
       x2="1"
       y2="0"
       gradientUnits="userSpaceOnUse"
       gradientTransform="matrix(162.27013,-162.27013,-162.27013,-162.27013,104.93679,317.93823)"
       spreadMethod="pad"
       id="linearGradient238"><stop
         style="stop-opacity:1;stop-color:#6dff97"
         offset="0"
         id="stop232" /><stop
         style="stop-opacity:1;stop-color:#2edde5"
         offset="0.98087298"
         id="stop234" /><stop
         style="stop-opacity:1;stop-color:#2edde5"
         offset="1"
         id="stop236" /></linearGradient><linearGradient
       x1="0"
       y1="0"
       x2="1"
       y2="0"
       gradientUnits="userSpaceOnUse"
       gradientTransform="matrix(162.27013,-162.27013,-162.27013,-162.27013,144.23296,357.23441)"
       spreadMethod="pad"
       id="linearGradient260"><stop
         style="stop-opacity:1;stop-color:#6dff97"
         offset="0"
         id="stop254" /><stop
         style="stop-opacity:1;stop-color:#2edde5"
         offset="0.98087298"
         id="stop256" /><stop
         style="stop-opacity:1;stop-color:#2edde5"
         offset="1"
         id="stop258" /></linearGradient><linearGradient
       x1="0"
       y1="0"
       x2="1"
       y2="0"
       gradientUnits="userSpaceOnUse"
       gradientTransform="matrix(162.27013,-162.27013,-162.27013,-162.27013,169.07977,382.08121)"
       spreadMethod="pad"
       id="linearGradient282"><stop
         style="stop-opacity:1;stop-color:#6dff97"
         offset="0"
         id="stop276" /><stop
         style="stop-opacity:1;stop-color:#2edde5"
         offset="0.98087298"
         id="stop278" /><stop
         style="stop-opacity:1;stop-color:#2edde5"
         offset="1"
         id="stop280" /></linearGradient><linearGradient
       x1="0"
       y1="0"
       x2="1"
       y2="0"
       gradientUnits="userSpaceOnUse"
       gradientTransform="matrix(-39.987141,-97.468658,-97.468658,39.987141,243.81929,368.70078)"
       spreadMethod="pad"
       id="linearGradient304"><stop
         style="stop-opacity:1;stop-color:#ff9aff"
         offset="0"
         id="stop298" /><stop
         style="stop-opacity:1;stop-color:#ff00ff"
         offset="0.98087298"
         id="stop300" /><stop
         style="stop-opacity:1;stop-color:#ff00ff"
         offset="1"
         id="stop302" /></linearGradient><linearGradient
       x1="0"
       y1="0"
       x2="1"
       y2="0"
       gradientUnits="userSpaceOnUse"
       gradientTransform="matrix(162.27013,-162.27013,-162.27013,-162.27013,173.77682,386.77826)"
       spreadMethod="pad"
       id="linearGradient326"><stop
         style="stop-opacity:1;stop-color:#6d45ff"
         offset="0"
         id="stop320" /><stop
         style="stop-opacity:1;stop-color:#f015ff"
         offset="0.98087298"
         id="stop322" /><stop
         style="stop-opacity:1;stop-color:#f015ff"
         offset="1"
         id="stop324" /></linearGradient></defs><sodipodi:namedview
     pagecolor="#ffffff"
     bordercolor="#666666"
     borderopacity="1"
     objecttolerance="10"
     gridtolerance="10"
     guidetolerance="10"
     inkscape:pageopacity="0"
     inkscape:pageshadow="2"
     inkscape:window-width="1896"
     inkscape:window-height="1001"
     id="namedview30"
     showgrid="false"
     inkscape:zoom="1.2345"
     inkscape:cx="336.57352"
     inkscape:cy="333.33334"
     inkscape:window-x="12"
     inkscape:window-y="67"
     inkscape:window-maximized="0"
     inkscape:current-layer="g36" /><g
     id="g36"
     inkscape:groupmode="layer"
     inkscape:label="4855450"
     transform="matrix(1.3333333,0,0,-1.3333333,0,666.66667)"><g
       id="g38"><g
         id="g40"><g
           id="g46"><g
             id="g48"><path
               d="M 0,0 H 500 V 500 H 0 Z"
               style="fill:url(#linearGradient56);stroke:none"
               id="path58" /></g></g></g></g><text
       transform="scale(0.9866664,-1.0135138)"
       style="font-variant:normal;font-weight:bold;font-stretch:normal;font-size:40.8656px;font-family:Montserrat;-inkscape-font-specification:Montserrat-Bold;writing-mode:lr-tb;fill:#ffffff;fill-opacity:1;fill-rule:nonzero;stroke:none;stroke-width:1.01352"
       id="text62"
       x="160.52533"
       y="-136.69916"><tspan
         x="160.52533"
         y="-136.69916"
         sodipodi:role="line"
         id="tspan60"
         style="font-size:40.8656px;stroke-width:1.01352">BOXIBLE</tspan></text><g
       id="g64"
       transform="translate(-2.5871343,-7.1699255)"><g
         id="g66"
         clip-path="url(#clipPath70)"><g
           id="g72"><g
             id="g74" /><g
             id="g86"><g
               clip-path="url(#clipPath78)"
               opacity="0.5"
               id="g84"><text
                 transform="scale(1.1250634,-0.88883881)"
                 style="font-variant:normal;font-weight:500;font-stretch:normal;font-size:12.5715px;font-family:'Montserrat Medium';-inkscape-font-specification:Montserrat-Medium;writing-mode:lr-tb;fill:#50daff;fill-opacity:1;fill-rule:nonzero;stroke:none;stroke-width:1.25783"
                 id="text82"
                 x="165.52713"
                 y="-135.64818"><tspan
                   sodipodi:role="line"
                   id="tspan80"
                   style="stroke-width:1.25783"
                   x="165.52713"
                   y="-135.64818">tu app de entreno</tspan></text></g></g></g></g></g><g
       id="g88"><g
         id="g90"><g
           id="g96"><g
             id="g98"><path
               d="m 280.868,389.836 c 0,0 37.735,-2.004 35.475,-52.934 v 0 c -1.788,-40.165 -52.836,-93.537 -67.125,-114.241 v 0 C 234.94,201.946 234.94,180.525 234.94,180.525 v 0 c 0,0 9.64,22.139 41.772,31.06 v 0 c 8.129,2.259 19.106,0.931 29.557,-0.396 v 0 c 14.334,-1.821 27.677,-3.642 31.314,3.792 v 0 c 1.874,5.13 -0.151,14.256 0.514,19.483 v 0 c 0.675,5.216 5.826,7.294 5.43,10.507 v 0 c -0.407,3.214 -4.156,4.82 -4.156,4.82 v 0 c 0,0 5.667,2.903 4.199,6.513 v 0 c -1.478,3.62 -2.239,7.765 -2.239,7.765 v 0 c 0,0 11.61,4.466 10.893,9.104 v 0 c -0.717,4.649 -19.633,33.568 -19.633,42.137 v 0 c 0,8.568 4.391,24.409 -5.612,43.689 v 0 c -15.158,29.239 -39.802,30.863 -45.09,30.862 v 0 c -0.661,0 -1.021,-0.025 -1.021,-0.025"
               style="fill:url(#linearGradient106);stroke:none"
               id="path108" /></g></g></g></g><g
       id="g110"><g
         id="g112"><g
           id="g118"><g
             id="g120"><path
               d="m 230.473,326.692 c -0.434,0 -0.785,-0.351 -0.785,-0.785 v 0 -12.98 h -12.98 c -0.434,0 -0.785,-0.351 -0.785,-0.785 v 0 -15.816 c 0,-0.434 0.351,-0.785 0.785,-0.785 v 0 h 12.98 v -12.98 c 0,-0.433 0.351,-0.785 0.785,-0.785 v 0 h 15.817 c 0.433,0 0.784,0.352 0.784,0.785 v 0 12.98 h 12.98 c 0.434,0 0.785,0.351 0.785,0.785 v 0 15.816 c 0,0.434 -0.351,0.785 -0.785,0.785 v 0 h -12.98 v 12.98 c 0,0.434 -0.351,0.785 -0.784,0.785 v 0 z"
               style="fill:url(#linearGradient128);stroke:none"
               id="path130" /></g></g></g></g><g
       id="g132"><g
         id="g134"><g
           id="g140"><g
             id="g142"><path
               d="m 207.562,345.327 c -0.202,0 -0.366,-0.164 -0.366,-0.366 v 0 -6.055 h -6.055 c -0.203,0 -0.366,-0.165 -0.366,-0.367 v 0 -7.38 c 0,-0.201 0.163,-0.365 0.366,-0.365 v 0 h 6.055 v -6.056 c 0,-0.203 0.164,-0.366 0.366,-0.366 v 0 h 7.38 c 0.202,0 0.366,0.163 0.366,0.366 v 0 6.056 h 6.056 c 0.202,0 0.365,0.164 0.365,0.365 v 0 7.38 c 0,0.202 -0.163,0.367 -0.365,0.367 v 0 h -6.056 v 6.055 c 0,0.202 -0.164,0.366 -0.366,0.366 v 0 z"
               style="fill:url(#linearGradient150);stroke:none"
               id="path152" /></g></g></g></g><g
       id="g154"><g
         id="g156"><g
           id="g162"><g
             id="g164"><path
               d="m 270.742,321.831 c -0.128,0 -0.234,-0.105 -0.234,-0.234 v 0 -3.871 h -3.87 c -0.129,0 -0.234,-0.104 -0.234,-0.234 v 0 -4.717 c 0,-0.129 0.105,-0.234 0.234,-0.234 v 0 h 3.87 v -3.87 c 0,-0.129 0.106,-0.234 0.234,-0.234 v 0 h 4.717 c 0.13,0 0.234,0.105 0.234,0.234 v 0 3.87 h 3.871 c 0.129,0 0.234,0.105 0.234,0.234 v 0 4.717 c 0,0.13 -0.105,0.234 -0.234,0.234 v 0 h -3.871 v 3.871 c 0,0.129 -0.104,0.234 -0.234,0.234 v 0 z"
               style="fill:url(#linearGradient172);stroke:none"
               id="path174" /></g></g></g></g><g
       id="g176"><g
         id="g178"><g
           id="g184"><g
             id="g186"><path
               d="m 252.534,343.575 c -0.075,0 -0.135,-0.06 -0.135,-0.135 v 0 -2.231 h -2.231 c -0.074,0 -0.135,-0.06 -0.135,-0.135 v 0 -2.719 c 0,-0.074 0.061,-0.134 0.135,-0.134 v 0 h 2.231 v -2.231 c 0,-0.075 0.06,-0.135 0.135,-0.135 v 0 h 2.719 c 0.074,0 0.135,0.06 0.135,0.135 v 0 2.231 h 2.231 c 0.074,0 0.135,0.06 0.135,0.134 v 0 2.719 c 0,0.075 -0.061,0.135 -0.135,0.135 v 0 h -2.231 v 2.231 c 0,0.075 -0.061,0.135 -0.135,0.135 v 0 z"
               style="fill:url(#linearGradient194);stroke:none"
               id="path196" /></g></g></g></g><g
       id="g198"><g
         id="g200"><g
           id="g206"><g
             id="g208"><path
               d="m 213.536,281.776 c -0.089,0 -0.162,-0.072 -0.162,-0.161 v 0 -2.68 h -2.679 c -0.09,0 -0.162,-0.073 -0.162,-0.162 v 0 -3.265 c 0,-0.089 0.072,-0.162 0.162,-0.162 v 0 h 2.679 v -2.679 c 0,-0.089 0.073,-0.162 0.162,-0.162 v 0 h 3.265 c 0.089,0 0.162,0.073 0.162,0.162 v 0 2.679 h 2.679 c 0.089,0 0.162,0.073 0.162,0.162 v 0 3.265 c 0,0.089 -0.073,0.162 -0.162,0.162 v 0 h -2.679 v 2.68 c 0,0.089 -0.073,0.161 -0.162,0.161 v 0 z"
               style="fill:url(#linearGradient216);stroke:none"
               id="path218" /></g></g></g></g><g
       id="g220"><g
         id="g222"><g
           id="g228"><g
             id="g230"><path
               d="m 183.239,207.419 c 11.236,-10.721 30.109,-13.185 41.119,-19.472 v 0 0.011 c 0,0 -6.555,39.501 -35.452,62.712 v 0 c 0.867,-0.408 28.737,-13.721 40.293,-62.659 v 0 c 0.033,-0.15 0.075,-0.3 0.108,-0.45 v 0 c 1.413,12.596 3.33,62.659 -54.005,72.941 v 0 c 0,0 -16.955,-29.326 7.937,-53.083"
               style="fill:url(#linearGradient238);stroke:none"
               id="path240" /></g></g></g></g><g
       id="g242"><g
         id="g244"><g
           id="g250"><g
             id="g252"><path
               d="m 243.595,255.146 c -6.973,-7.99 -4.884,-24.195 -3.534,-31.35 v 0 c 9.371,22.75 24.141,32.753 25.094,33.375 v 0 c -15.144,-14.01 -19.975,-26.756 -24.324,-36.92 v 0 c 7.498,16.152 34.897,45.874 34.897,45.874 v 0 c -4.821,-3.213 -23.029,-0.535 -32.133,-10.979"
               style="fill:url(#linearGradient260);stroke:none"
               id="path262" /></g></g></g></g><g
       id="g264"><g
         id="g266"><g
           id="g272"><g
             id="g274"><path
               d="m 316.343,336.902 c -1.788,-40.165 -52.836,-93.537 -67.125,-114.241 v 0 C 234.94,201.946 234.94,180.525 234.94,180.525 v 0 c 9.372,53.632 87.111,94.255 89.618,151.033 v 0 c 2.496,56.778 -43.69,58.278 -43.69,58.278 v 0 c 0,0 37.735,-2.004 35.475,-52.934"
               style="fill:url(#linearGradient282);stroke:none"
               id="path284" /></g></g></g></g><g
       id="g286"><g
         id="g288"><g
           id="g294"><g
             id="g296"><path
               d="m 264.813,388.54 c -3.181,-0.268 -6.32,-0.986 -9.34,-2.014 v 0 c -6.052,-2.057 -11.493,-5.495 -16.12,-9.619 v 0 c -2.324,-2.056 -4.466,-4.294 -6.437,-6.661 v 0 c -0.653,-0.804 -1.286,-1.629 -1.907,-2.464 v 0 c -0.749,0.418 -1.51,0.825 -2.281,1.21 v 0 c -2.507,1.285 -5.099,2.421 -7.755,3.396 v 0 c -5.302,1.96 -10.892,3.341 -16.677,3.92 v 0 c -2.891,0.267 -5.826,0.3 -8.761,0.139 v 0 c -2.935,-0.193 -5.869,-0.643 -8.751,-1.296 v 0 c -2.881,-0.707 -5.708,-1.629 -8.44,-2.796 v 0 c -0.685,-0.267 -1.403,-0.653 -2.11,-0.985 v 0 c -0.675,-0.332 -1.468,-0.696 -1.971,-1.007 v 0 l -1.702,-0.954 -0.601,-0.341 -0.46,-0.301 -0.921,-0.578 c -4.905,-3.149 -9.404,-7.133 -13.057,-11.857 v 0 c -3.63,-4.734 -6.394,-10.197 -8.001,-15.948 v 0 c -1.649,-5.742 -2.078,-11.739 -1.584,-17.556 v 0 c 0.256,-2.902 0.738,-5.772 1.423,-8.579 v 0 c 0.708,-2.795 1.618,-5.516 2.699,-8.151 v 0 c 2.164,-5.28 4.992,-10.197 8.344,-14.663 v 0 c 3.342,-4.477 7.123,-8.547 11.268,-12.157 v 0 c 4.135,-3.609 8.558,-6.834 13.218,-9.597 v 0 c 2.313,-1.414 4.819,-2.699 6.961,-3.888 v 0 c 2.229,-1.189 4.403,-2.452 6.556,-3.77 v 0 c 4.284,-2.657 8.418,-5.57 12.306,-8.772 v 0 c 3.888,-3.213 7.53,-6.727 10.775,-10.615 v 0 c 3.278,-3.844 6.213,-8.033 8.526,-12.574 v 0 c 2.325,-4.531 4.231,-9.383 4.927,-14.545 v 0 c 0.118,2.613 -0.235,5.227 -0.738,7.808 v 0 c -0.525,2.581 -1.222,5.141 -2.153,7.626 v 0 c -1.822,4.97 -4.327,9.714 -7.284,14.16 v 0 c -3.01,4.412 -6.48,8.504 -10.239,12.306 v 0 c -3.75,3.813 -7.841,7.295 -12.147,10.454 v 0 c -2.152,1.575 -4.338,3.128 -6.587,4.563 v 0 c -2.314,1.489 -4.327,2.774 -6.33,4.23 v 0 c -4.027,2.903 -7.829,6.085 -11.267,9.566 v 0 c -3.429,3.492 -6.567,7.229 -9.201,11.246 v 0 c -2.625,4.028 -4.821,8.268 -6.395,12.681 v 0 c -1.574,4.414 -2.528,8.976 -2.773,13.518 v 0 c -0.247,4.531 0.299,9.029 1.584,13.249 v 0 c 2.549,8.473 8.397,15.627 16.077,20.489 v 0 l 0.729,0.45 0.321,0.204 0.075,0.032 0.214,0.118 1.703,0.953 c 0.611,0.354 1.007,0.504 1.489,0.739 v 0 c 0.482,0.214 0.9,0.45 1.424,0.653 v 0 c 2.046,0.879 4.157,1.586 6.32,2.133 v 0 c 2.164,0.503 4.37,0.867 6.619,1.027 v 0 c 2.25,0.14 4.521,0.107 6.791,-0.053 v 0 c 4.562,-0.364 9.158,-1.393 13.614,-2.935 v 0 c 2.227,-0.771 4.423,-1.682 6.565,-2.688 v 0 c 1.071,-0.493 2.131,-1.029 3.16,-1.586 v 0 c 0.514,-0.278 1.017,-0.568 1.51,-0.857 v 0 l 0.728,-0.439 0.601,-0.374 6.051,-3.803 2.699,5.934 c 0.043,0.096 0.225,0.428 0.353,0.653 v 0 l 0.45,0.783 c 0.311,0.524 0.632,1.049 0.975,1.574 v 0 c 0.675,1.049 1.414,2.078 2.164,3.085 v 0 c 1.51,2.013 3.159,3.919 4.948,5.665 v 0 c 3.566,3.482 7.626,6.373 12.082,8.237 v 0 c 2.228,0.932 4.552,1.585 6.94,1.993 v 0 c 2.389,0.417 4.842,0.535 7.316,0.385 v 0 c 2.474,-0.14 4.97,-0.546 7.455,-1.167 v 0 c 1.242,-0.332 2.485,-0.664 3.706,-1.115 v 0 c 0.353,-0.128 0.632,-0.235 0.899,-0.342 v 0 c 0.279,-0.108 0.546,-0.204 0.836,-0.332 v 0 c 0.578,-0.246 1.157,-0.504 1.725,-0.782 v 0 c 2.27,-1.081 4.402,-2.432 6.362,-4.016 v 0 c 1.949,-1.596 3.716,-3.438 5.291,-5.474 v 0 c 3.16,-4.07 5.42,-8.954 6.865,-14.117 v 0 c 1.425,-5.184 2.207,-10.636 2.228,-16.141 v 0 c 0.011,-2.752 -0.117,-5.527 -0.46,-8.268 v 0 c -0.215,-1.629 -0.483,-3.246 -0.879,-4.852 v 0 c -0.267,-1.104 -0.588,-2.196 -0.985,-3.278 v 0 c 1.414,2.431 2.356,5.141 3.116,7.872 v 0 c 0.761,2.742 1.307,5.549 1.639,8.387 v 0 c 0.643,5.666 0.675,11.492 -0.332,17.244 v 0 c -0.985,5.741 -2.902,11.482 -6.115,16.645 v 0 c -3.182,5.173 -7.765,9.607 -13.1,12.735 v 0 c -0.664,0.397 -1.35,0.76 -2.035,1.114 v 0 c -0.343,0.182 -0.718,0.354 -1.081,0.525 v 0 c -0.365,0.182 -0.729,0.353 -1.029,0.482 v 0 c -1.371,0.61 -2.785,1.167 -4.209,1.681 v 0 c -2.871,1.007 -5.869,1.79 -8.976,2.207 v 0 c -1.896,0.263 -3.833,0.401 -5.778,0.401 v 0 c -1.219,0 -2.441,-0.054 -3.658,-0.165"
               style="fill:url(#linearGradient304);stroke:none"
               id="path306" /></g></g></g></g><g
       id="g308"><g
         id="g310"><g
           id="g316"><g
             id="g318"><path
               d="m 232.572,360.589 c 0,0 -25.127,16.843 -50.832,6.486 v 0 c -25.706,-10.357 -32.971,-35.78 -22.664,-62.091 v 0 c 8.922,-22.778 36.056,-34.664 54.479,-50.135 v 0 c 18.127,-15.223 21.385,-39.332 21.385,-39.332 v 0 c 0.118,2.613 -0.235,5.227 -0.738,7.808 v 0 c -0.525,2.581 -1.222,5.141 -2.153,7.626 v 0 c -1.822,4.97 -4.327,9.714 -7.284,14.16 v 0 c -3.01,4.412 -6.48,8.504 -10.239,12.306 v 0 c -3.75,3.813 -7.841,7.295 -12.147,10.454 v 0 c -2.152,1.575 -4.338,3.128 -6.587,4.563 v 0 c -2.314,1.489 -4.327,2.774 -6.33,4.23 v 0 c -4.027,2.903 -7.829,6.085 -11.267,9.566 v 0 c -3.429,3.492 -6.567,7.229 -9.201,11.246 v 0 c -2.625,4.028 -4.821,8.268 -6.395,12.681 v 0 c -1.574,4.414 -2.528,8.976 -2.773,13.518 v 0 c -0.247,4.531 0.299,9.029 1.584,13.249 v 0 c 2.549,8.473 8.397,15.627 16.077,20.489 v 0 l 0.729,0.45 0.321,0.204 0.075,0.032 0.214,0.118 1.703,0.953 c 0.611,0.354 1.007,0.504 1.489,0.739 v 0 c 0.482,0.214 0.9,0.45 1.424,0.653 v 0 c 2.046,0.879 4.157,1.586 6.32,2.133 v 0 c 2.164,0.503 4.37,0.867 6.619,1.027 v 0 c 2.25,0.14 4.521,0.107 6.791,-0.053 v 0 c 4.562,-0.364 9.158,-1.393 13.614,-2.935 v 0 c 2.227,-0.771 4.423,-1.682 6.565,-2.688 v 0 c 1.071,-0.493 2.131,-1.029 3.16,-1.586 v 0 c 0.514,-0.278 1.017,-0.568 1.51,-0.857 v 0 l 0.728,-0.439 0.601,-0.374 6.051,-3.803 2.699,5.934 c 0.043,0.096 0.225,0.428 0.353,0.653 v 0 l 0.45,0.783 c 0.311,0.524 0.632,1.049 0.975,1.574 v 0 c 0.675,1.049 1.414,2.078 2.164,3.085 v 0 c 1.51,2.013 3.159,3.919 4.948,5.665 v 0 c 3.566,3.482 7.626,6.373 12.082,8.237 v 0 c 2.228,0.932 4.552,1.585 6.94,1.993 v 0 c 2.389,0.417 4.842,0.535 7.316,0.385 v 0 c 2.474,-0.14 4.97,-0.546 7.455,-1.167 v 0 c 1.242,-0.332 2.485,-0.664 3.706,-1.115 v 0 c 0.353,-0.128 0.632,-0.235 0.899,-0.342 v 0 c 0.279,-0.108 0.546,-0.204 0.836,-0.332 v 0 c 0.578,-0.246 1.157,-0.504 1.725,-0.782 v 0 c 2.27,-1.081 4.402,-2.432 6.362,-4.016 v 0 c 1.949,-1.596 3.716,-3.438 5.291,-5.474 v 0 c 3.16,-4.07 5.42,-8.954 6.865,-14.117 v 0 c 1.425,-5.184 2.207,-10.636 2.228,-16.141 v 0 c 0.011,-2.752 -0.117,-5.527 -0.46,-8.268 v 0 c -0.215,-1.629 -0.483,-3.246 -0.879,-4.852 v 0 c 9.833,35.088 -9.607,60.472 -35.11,61.34 v 0 c -0.483,0.017 -0.96,0.025 -1.434,0.025 v 0 c -25.336,-0.001 -38.24,-23.466 -38.24,-23.466"
               style="fill:url(#linearGradient326);stroke:none"
               id="path328" /></g></g></g></g><text
       xml:space="preserve"
       id="text330"
       style="fill:black;fill-opacity:1;line-height:1.25;stroke:none;font-family:sans-serif;font-style:normal;font-weight:normal;font-size:30.00000075px;white-space:pre;shape-inside:url(#rect332);" /></g></svg>
